<svg version="1.1" xmlns="http://www.w3.org/2000/svg" xmlns:xlink="http://www.w3.org/1999/xlink" width="757" height="299"><defs/><g><g transform="translate(-118,-590) scale(1,1)"><path fill="#C0C0C0" stroke="none" d="M 233 727 L 282.66455078125 727 Q 292.66455078125 727 292.66455078125 737 L 292.66455078125 756 Q 292.66455078125 766 282.66455078125 766 L 233 766 Q 223 766 223 756 L 223 737 Q 223 727 233 727 Z" opacity="0.2"/></g><g transform="translate(-118,-590) scale(1,1)"><path fill="#6dff6d" stroke="none" d="M 226 720 L 275.66455078125 720 Q 285.66455078125 720 285.66455078125 730 L 285.66455078125 749 Q 285.66455078125 759 275.66455078125 759 L 226 759 Q 216 759 216 749 L 216 730 Q 216 720 226 720 Z"/></g><g transform="translate(-118,-590) scale(1,1)"><path fill="none" stroke="#000000" d="M 226 720 L 275.66455078125 720 Q 285.66455078125 720 285.66455078125 730 L 285.66455078125 749 Q 285.66455078125 759 275.66455078125 759 L 226 759 Q 216 759 216 749 L 216 730 Q 216 720 226 720 Z" stroke-miterlimit="10"/></g><g transform="translate(-118,-590) scale(1,1)"><g><path fill="none" stroke="none"/><text fill="#000000" stroke="none" font-family="Arial" font-size="13px" font-style="normal" font-weight="bold" text-decoration="none" x="220.5" y="739.5">RUNNING</text></g></g><g transform="translate(-118,-590) scale(1,1)"><path fill="#C0C0C0" stroke="none" d="M 401 847 L 466.54638671875 847 Q 476.54638671875 847 476.54638671875 857 L 476.54638671875 876 Q 476.54638671875 886 466.54638671875 886 L 401 886 Q 391 886 391 876 L 391 857 Q 391 847 401 847 Z" opacity="0.2"/></g><g transform="translate(-118,-590) scale(1,1)"><path fill="#d8d800" stroke="none" d="M 394 840 L 459.54638671875 840 Q 469.54638671875 840 469.54638671875 850 L 469.54638671875 869 Q 469.54638671875 879 459.54638671875 879 L 394 879 Q 384 879 384 869 L 384 850 Q 384 840 394 840 Z"/></g><g transform="translate(-118,-590) scale(1,1)"><path fill="none" stroke="#000000" d="M 394 840 L 459.54638671875 840 Q 469.54638671875 840 469.54638671875 850 L 469.54638671875 869 Q 469.54638671875 879 459.54638671875 879 L 394 879 Q 384 879 384 869 L 384 850 Q 384 840 394 840 Z" stroke-miterlimit="10"/></g><g transform="translate(-118,-590) scale(1,1)"><g><path fill="none" stroke="none"/><text fill="#000000" stroke="none" font-family="Arial" font-size="13px" font-style="normal" font-weight="bold" text-decoration="none" x="388.5" y="859.5">SHUTDOWN</text></g></g><g transform="translate(-118,-590) scale(1,1)"><path fill="none" stroke="#000000" d="M 281 760 L 397 839" stroke-miterlimit="10"/></g><g transform="translate(-118,-590) scale(1,1)"><path fill="none" stroke="#000000" d="M 386.2307427692026 836.7587729483789 L 397 839 L 390.9697720301409 829.800198337381" stroke-miterlimit="10"/></g><g transform="translate(-118,-590) scale(1,1)"><g><path fill="none" stroke="none"/><text fill="#000000" stroke="none" font-family="Arial" font-size="13px" font-style="normal" font-weight="normal" text-decoration="none" x="319.5" y="792.5">shutdown</text></g></g><g transform="translate(-118,-590) scale(1,1)"><path fill="#C0C0C0" stroke="none" d="M 414 607 L 453 607 Q 463 607 463 617 L 463 636 Q 463 646 453 646 L 414 646 Q 404 646 404 636 L 404 617 Q 404 607 414 607 Z" opacity="0.2"/></g><g transform="translate(-118,-590) scale(1,1)"><path fill="#ffbf00" stroke="none" d="M 407 600 L 446 600 Q 456 600 456 610 L 456 629 Q 456 639 446 639 L 407 639 Q 397 639 397 629 L 397 610 Q 397 600 407 600 Z"/></g><g transform="translate(-118,-590) scale(1,1)"><path fill="none" stroke="#000000" d="M 407 600 L 446 600 Q 456 600 456 610 L 456 629 Q 456 639 446 639 L 407 639 Q 397 639 397 629 L 397 610 Q 397 600 407 600 Z" stroke-miterlimit="10"/></g><g transform="translate(-118,-590) scale(1,1)"><g><path fill="none" stroke="none"/><text fill="#000000" stroke="none" font-family="Arial" font-size="13px" font-style="normal" font-weight="bold" text-decoration="none" x="408.802734375" y="619.5">STOP</text></g></g><g transform="translate(-118,-590) scale(1,1)"><path fill="none" stroke="#000000" d="M 279 719 L 396 639" stroke-miterlimit="10"/></g><g transform="translate(-118,-590) scale(1,1)"><path fill="none" stroke="#000000" d="M 389.98689447017813 648.2110022194778 L 396 639 L 385.2349301729555 641.2612544347897" stroke-miterlimit="10"/></g><g transform="translate(-118,-590) scale(1,1)"><g><path fill="none" stroke="none"/><text fill="#000000" stroke="none" font-family="Arial" font-size="13px" font-style="normal" font-weight="normal" text-decoration="none" x="287.5" y="672.5">shutdownNow</text></g></g><g transform="translate(-118,-590) scale(1,1)"><path fill="#C0C0C0" stroke="none" d="M 569 727 L 610.7236328125 727 Q 620.7236328125 727 620.7236328125 737 L 620.7236328125 756 Q 620.7236328125 766 610.7236328125 766 L 569 766 Q 559 766 559 756 L 559 737 Q 559 727 569 727 Z" opacity="0.2"/></g><g transform="translate(-118,-590) scale(1,1)"><path fill="#ff3f00" stroke="none" d="M 562 720 L 603.7236328125 720 Q 613.7236328125 720 613.7236328125 730 L 613.7236328125 749 Q 613.7236328125 759 603.7236328125 759 L 562 759 Q 552 759 552 749 L 552 730 Q 552 720 562 720 Z"/></g><g transform="translate(-118,-590) scale(1,1)"><path fill="none" stroke="#000000" d="M 562 720 L 603.7236328125 720 Q 613.7236328125 720 613.7236328125 730 L 613.7236328125 749 Q 613.7236328125 759 603.7236328125 759 L 562 759 Q 552 759 552 749 L 552 730 Q 552 720 562 720 Z" stroke-miterlimit="10"/></g><g transform="translate(-118,-590) scale(1,1)"><g><path fill="none" stroke="none"/><text fill="#000000" stroke="none" font-family="Arial" font-size="13px" font-style="normal" font-weight="bold" text-decoration="none" x="556.5" y="739.5">TIDYING</text></g></g><g transform="translate(-118,-590) scale(1,1)"><path fill="#C0C0C0" stroke="none" d="M 713 727 L 787.21728515625 727 Q 797.21728515625 727 797.21728515625 737 L 797.21728515625 756 Q 797.21728515625 766 787.21728515625 766 L 713 766 Q 703 766 703 756 L 703 737 Q 703 727 713 727 Z" opacity="0.2"/></g><g transform="translate(-118,-590) scale(1,1)"><path fill="#3f0000" stroke="none" d="M 706 720 L 780.21728515625 720 Q 790.21728515625 720 790.21728515625 730 L 790.21728515625 749 Q 790.21728515625 759 780.21728515625 759 L 706 759 Q 696 759 696 749 L 696 730 Q 696 720 706 720 Z"/></g><g transform="translate(-118,-590) scale(1,1)"><path fill="none" stroke="#000000" d="M 706 720 L 780.21728515625 720 Q 790.21728515625 720 790.21728515625 730 L 790.21728515625 749 Q 790.21728515625 759 780.21728515625 759 L 706 759 Q 696 759 696 749 L 696 730 Q 696 720 706 720 Z" stroke-miterlimit="10"/></g><g transform="translate(-118,-590) scale(1,1)"><g><path fill="none" stroke="none"/><text fill="#ffffff" stroke="none" font-family="Arial" font-size="13px" font-style="normal" font-weight="bold" text-decoration="none" x="700.858642578125" y="739.5">TERMINATED</text></g></g><g transform="translate(-118,-590) scale(1,1)"><path fill="none" stroke="#000000" d="M 426 839 L 426 640" stroke-miterlimit="10"/></g><g transform="translate(-118,-590) scale(1,1)"><path fill="none" stroke="#000000" d="M 430.209517756016 650.1626748576241 L 426 640 L 421.790482243984 650.1626748576241" stroke-miterlimit="10"/></g><g transform="translate(-118,-590) scale(1,1)"><g><path fill="none" stroke="none"/><text fill="#000000" stroke="none" font-family="Arial" font-size="13px" font-style="normal" font-weight="normal" text-decoration="none" x="370.5" y="744.5">shutdownNow</text></g></g><g transform="translate(-118,-590) scale(1,1)"><path fill="none" stroke="#000000" d="M 452 839 L 555 760" stroke-miterlimit="10"/></g><g transform="translate(-118,-590) scale(1,1)"><path fill="none" stroke="#000000" d="M 549.4979809849718 769.5251134774484 L 555 760 L 544.3742127127812 762.8447573757314" stroke-miterlimit="10"/></g><g transform="translate(-118,-590) scale(1,1)"><g><path fill="none" stroke="none"/><text fill="#000000" stroke="none" font-family="Arial" font-size="13px" font-style="normal" font-weight="normal" text-decoration="none" x="435.5" y="792.5">队列和池中线程已空</text></g></g><g transform="translate(-118,-590) scale(1,1)"><path fill="none" stroke="#000000" d="M 453 640 L 556 719" stroke-miterlimit="10"/></g><g transform="translate(-118,-590) scale(1,1)"><path fill="none" stroke="#000000" d="M 545.3742127127812 716.1552426242686 L 556 719 L 550.4979809849718 709.4748865225516" stroke-miterlimit="10"/></g><g transform="translate(-118,-590) scale(1,1)"><g><path fill="none" stroke="none"/><text fill="#000000" stroke="none" font-family="Arial" font-size="13px" font-style="normal" font-weight="normal" text-decoration="none" x="473.5" y="673.5">池中线程已空</text></g></g><g transform="translate(-118,-590) scale(1,1)"><path fill="none" stroke="#000000" d="M 615 739 L 695 739" stroke-miterlimit="10"/></g><g transform="translate(-118,-590) scale(1,1)"><path fill="none" stroke="#000000" d="M 684.8373251423759 743.209517756016 L 695 739 L 684.8373251423758 734.790482243984" stroke-miterlimit="10"/></g><g transform="translate(-118,-590) scale(1,1)"><g><path fill="none" stroke="none"/><text fill="#000000" stroke="none" font-family="Arial" font-size="13px" font-style="normal" font-weight="normal" text-decoration="none" x="624.5" y="730.5">terminated</text></g></g><g transform="translate(-118,-590) scale(1,1)"><path fill="#C0C0C0" stroke="none" d="M 847 746.5 C 847 739.59644 852.59644 734 859.5 734 C 866.40356 734 872 739.59644 872 746.5 C 872 753.40356 866.40356 759 859.5 759 C 852.59644 759 847 753.40356 847 746.5 Z" opacity="0.2"/></g><g transform="translate(-118,-590) scale(1,1)"><path fill="none" stroke="#000000" d="M 840 739.5 C 840 732.59644 845.59644 727 852.5 727 C 859.40356 727 865 732.59644 865 739.5 C 865 746.40356 859.40356 752 852.5 752 C 845.59644 752 840 746.40356 840 739.5 Z" stroke-miterlimit="10"/></g><g transform="translate(-118,-590) scale(1,1)"><path fill="#000000" stroke="none" d="M 845 739.5 C 845 735.357864 848.357864 732 852.5 732 C 856.642136 732 860 735.357864 860 739.5 C 860 743.642136 856.642136 747 852.5 747 C 848.357864 747 845 743.642136 845 739.5 Z"/></g><g transform="translate(-118,-590) scale(1,1)"><path fill="#C0C0C0" stroke="none" d="M 135 746.5 C 135 741.2532944 139.2532944 737 144.5 737 C 149.7467056 737 154 741.2532944 154 746.5 C 154 751.7467056 149.7467056 756 144.5 756 C 139.2532944 756 135 751.7467056 135 746.5 Z" opacity="0.2"/></g><g transform="translate(-118,-590) scale(1,1)"><path fill="#000000" stroke="none" d="M 128 739.5 C 128 734.2532944 132.2532944 730 137.5 730 C 142.7467056 730 147 734.2532944 147 739.5 C 147 744.7467056 142.7467056 749 137.5 749 C 132.2532944 749 128 744.7467056 128 739.5 Z"/></g><g transform="translate(-118,-590) scale(1,1)"><path fill="none" stroke="#000000" d="M 148 739 L 215 739" stroke-miterlimit="10"/></g><g transform="translate(-118,-590) scale(1,1)"><path fill="none" stroke="#000000" d="M 204.83732514237585 743.209517756016 L 215 739 L 204.83732514237585 734.790482243984" stroke-miterlimit="10"/></g><g transform="translate(-118,-590) scale(1,1)"><g><path fill="none" stroke="none"/><text fill="#000000" stroke="none" font-family="Arial" font-size="13px" font-style="normal" font-weight="normal" text-decoration="none" x="169.5" y="730.5">new</text></g></g><g transform="translate(-118,-590) scale(1,1)"><path fill="none" stroke="#000000" d="M 791 739 L 839 739" stroke-miterlimit="10"/></g><g transform="translate(-118,-590) scale(1,1)"><path fill="none" stroke="#000000" d="M 828.8373251423759 743.209517756016 L 839 739 L 828.8373251423758 734.790482243984" stroke-miterlimit="10"/></g><g transform="translate(-118,-590) scale(1,1)"><g><path fill="none" stroke="none"/><text fill="#000000" stroke="none" font-family="Arial" font-size="13px" font-style="normal" font-weight="normal" text-decoration="none" x="808.5" y="730.5">gc</text></g></g></g></svg>