<svg version="1.1" xmlns="http://www.w3.org/2000/svg" xmlns:xlink="http://www.w3.org/1999/xlink" width="609.05908203125" height="355"><defs/><g><g transform="translate(-173,-134) scale(1,1)"><rect fill="#C0C0C0" stroke="none" x="242" y="151" width="73.32080078125" height="48" opacity="0.2"/></g><g transform="translate(-173,-134) scale(1,1)"><rect fill="#ffffff" stroke="none" x="235" y="144" width="73.32080078125" height="48"/></g><g transform="translate(-173,-134) scale(1,1)"><path fill="none" stroke="#000000" d="M 235 144 L 308.32080078125 144 L 308.32080078125 192 L 235 192 L 235 144 Z Z" stroke-miterlimit="10"/></g><g transform="translate(-173,-134) scale(1,1)"><g><path fill="none" stroke="none"/><text fill="#000000" stroke="none" font-family="Arial" font-size="13px" font-style="normal" font-weight="normal" text-decoration="none" x="239.5" y="161.5">«interface»</text></g></g><g transform="translate(-173,-134) scale(1,1)"><g><path fill="none" stroke="none"/><text fill="#000000" stroke="none" font-family="Arial" font-size="13px" font-style="normal" font-weight="bold" text-decoration="none" x="246.009521484375" y="176.5">Executor</text></g></g><g transform="translate(-173,-134) scale(1,1)"><rect fill="#C0C0C0" stroke="none" x="223" y="246" width="110.892578125" height="48" opacity="0.2"/></g><g transform="translate(-173,-134) scale(1,1)"><rect fill="#ffffff" stroke="none" x="216" y="239" width="110.892578125" height="48"/></g><g transform="translate(-173,-134) scale(1,1)"><path fill="none" stroke="#000000" d="M 216 239 L 326.892578125 239 L 326.892578125 287 L 216 287 L 216 239 Z Z" stroke-miterlimit="10"/></g><g transform="translate(-173,-134) scale(1,1)"><g><path fill="none" stroke="none"/><text fill="#000000" stroke="none" font-family="Arial" font-size="13px" font-style="normal" font-weight="normal" text-decoration="none" x="239.285888671875" y="256.5">«interface»</text></g></g><g transform="translate(-173,-134) scale(1,1)"><g><path fill="none" stroke="none"/><text fill="#000000" stroke="none" font-family="Arial" font-size="13px" font-style="normal" font-weight="bold" text-decoration="none" x="224.121337890625" y="271.5">ExecutorService</text></g></g><g transform="translate(-173,-134) scale(1,1)"><rect fill="#C0C0C0" stroke="none" x="190" y="438" width="176.62890625" height="48" opacity="0.2"/></g><g transform="translate(-173,-134) scale(1,1)"><rect fill="#ffffff" stroke="none" x="183" y="431" width="176.62890625" height="48"/></g><g transform="translate(-173,-134) scale(1,1)"><path fill="none" stroke="#000000" d="M 183 431 L 359.62890625 431 L 359.62890625 479 L 183 479 L 183 431 Z Z" stroke-miterlimit="10"/></g><g transform="translate(-173,-134) scale(1,1)"><g><path fill="none" stroke="none"/><text fill="#000000" stroke="none" font-family="Arial" font-size="13px" font-style="normal" font-weight="normal" text-decoration="none" x="239.154052734375" y="448.5">«interface»</text></g></g><g transform="translate(-173,-134) scale(1,1)"><g><path fill="none" stroke="none"/><text fill="#000000" stroke="none" font-family="Arial" font-size="13px" font-style="normal" font-weight="bold" text-decoration="none" x="193.27001953125" y="463.5">ScheduledExecutorService</text></g></g><g transform="translate(-173,-134) scale(1,1)"><rect fill="#C0C0C0" stroke="none" x="466" y="248" width="163.62890625" height="44" opacity="0.2"/></g><g transform="translate(-173,-134) scale(1,1)"><rect fill="#ffffff" stroke="none" x="459" y="241" width="163.62890625" height="44"/></g><g transform="translate(-173,-134) scale(1,1)"><path fill="none" stroke="#000000" d="M 459 241 L 622.62890625 241 L 622.62890625 285 L 459 285 L 459 241 Z Z" stroke-miterlimit="10"/></g><g transform="translate(-173,-134) scale(1,1)"><path fill="none" stroke="#000000" d="M 459 266 L 622.62890625 266" stroke-miterlimit="10"/></g><g transform="translate(-173,-134) scale(1,1)"><path fill="none" stroke="#000000" d="M 459 276 L 622.62890625 276" stroke-miterlimit="10"/></g><g transform="translate(-173,-134) scale(1,1)"><g><path fill="none" stroke="none"/><text fill="#000000" stroke="none" font-family="Arial" font-size="13px" font-style="normal" font-weight="bold" text-decoration="none" x="469.647705078125" y="260.5">AbstractExecutorService</text></g></g><g transform="translate(-173,-134) scale(1,1)"><path fill="none" stroke="#000000" d="M 271 238 L 271 193" stroke-miterlimit="10"/></g><g transform="translate(-173,-134) scale(1,1)"><path fill="#FFFFFF" stroke="none" d="M 279.419035512032 213.3253497152483 L 271 193 L 262.580964487968 213.3253497152483"/></g><g transform="translate(-173,-134) scale(1,1)"><path fill="none" stroke="#000000" d="M 279.419035512032 213.3253497152483 L 271 193 L 262.580964487968 213.3253497152483 L 279.419035512032 213.3253497152483" stroke-miterlimit="10"/></g><g transform="translate(-173,-134) scale(1,1)"><path fill="none" stroke="#000000" d="M 271 430 L 271 288" stroke-miterlimit="10"/></g><g transform="translate(-173,-134) scale(1,1)"><path fill="#FFFFFF" stroke="none" d="M 279.419035512032 308.3253497152483 L 271 288 L 262.580964487968 308.3253497152483"/></g><g transform="translate(-173,-134) scale(1,1)"><path fill="none" stroke="#000000" d="M 279.419035512032 308.3253497152483 L 271 288 L 262.580964487968 308.3253497152483 L 279.419035512032 308.3253497152483" stroke-miterlimit="10"/></g><g transform="translate(-173,-134) scale(1,1)"><path fill="none" stroke="#000000" d="M 458 263 L 328 263" stroke-miterlimit="10" stroke-dasharray="3"/></g><g transform="translate(-173,-134) scale(1,1)"><path fill="#FFFFFF" stroke="none" d="M 348.3253497152483 254.58096448796803 L 328 263 L 348.3253497152483 271.419035512032"/></g><g transform="translate(-173,-134) scale(1,1)"><path fill="none" stroke="#000000" d="M 348.3253497152483 254.58096448796803 L 328 263 L 348.3253497152483 271.419035512032 L 348.3253497152483 254.58096448796803" stroke-miterlimit="10"/></g><g transform="translate(-173,-134) scale(1,1)"><rect fill="#C0C0C0" stroke="none" x="479" y="344" width="136.13720703125" height="44" opacity="0.2"/></g><g transform="translate(-173,-134) scale(1,1)"><rect fill="#ffffff" stroke="none" x="472" y="337" width="136.13720703125" height="44"/></g><g transform="translate(-173,-134) scale(1,1)"><path fill="none" stroke="#000000" d="M 472 337 L 608.13720703125 337 L 608.13720703125 381 L 472 381 L 472 337 Z Z" stroke-miterlimit="10"/></g><g transform="translate(-173,-134) scale(1,1)"><path fill="none" stroke="#000000" d="M 472 362 L 608.13720703125 362" stroke-miterlimit="10"/></g><g transform="translate(-173,-134) scale(1,1)"><path fill="none" stroke="#000000" d="M 472 372 L 608.13720703125 372" stroke-miterlimit="10"/></g><g transform="translate(-173,-134) scale(1,1)"><g><path fill="none" stroke="none"/><text fill="#000000" stroke="none" font-family="Arial" font-size="13px" font-style="normal" font-weight="bold" text-decoration="none" x="480.813232421875" y="356.5">ThreadPoolExecutor</text></g></g><g transform="translate(-173,-134) scale(1,1)"><rect fill="#C0C0C0" stroke="none" x="447" y="440" width="201.87353515625" height="44" opacity="0.2"/></g><g transform="translate(-173,-134) scale(1,1)"><rect fill="#ffffff" stroke="none" x="440" y="433" width="201.87353515625" height="44"/></g><g transform="translate(-173,-134) scale(1,1)"><path fill="none" stroke="#000000" d="M 440 433 L 641.87353515625 433 L 641.87353515625 477 L 440 477 L 440 433 Z Z" stroke-miterlimit="10"/></g><g transform="translate(-173,-134) scale(1,1)"><path fill="none" stroke="#000000" d="M 440 458 L 641.87353515625 458" stroke-miterlimit="10"/></g><g transform="translate(-173,-134) scale(1,1)"><path fill="none" stroke="#000000" d="M 440 468 L 641.87353515625 468" stroke-miterlimit="10"/></g><g transform="translate(-173,-134) scale(1,1)"><g><path fill="none" stroke="none"/><text fill="#000000" stroke="none" font-family="Arial" font-size="13px" font-style="normal" font-weight="bold" text-decoration="none" x="450.9619140625" y="452.5">ScheduledThreadPoolExecutor</text></g></g><g transform="translate(-173,-134) scale(1,1)"><rect fill="#C0C0C0" stroke="none" x="687" y="248" width="92.05908203125" height="44" opacity="0.2"/></g><g transform="translate(-173,-134) scale(1,1)"><rect fill="#ffffff" stroke="none" x="680" y="241" width="92.05908203125" height="44"/></g><g transform="translate(-173,-134) scale(1,1)"><path fill="none" stroke="#000000" d="M 680 241 L 772.05908203125 241 L 772.05908203125 285 L 680 285 L 680 241 Z Z" stroke-miterlimit="10"/></g><g transform="translate(-173,-134) scale(1,1)"><path fill="none" stroke="#000000" d="M 680 266 L 772.05908203125 266" stroke-miterlimit="10"/></g><g transform="translate(-173,-134) scale(1,1)"><path fill="none" stroke="#000000" d="M 680 276 L 772.05908203125 276" stroke-miterlimit="10"/></g><g transform="translate(-173,-134) scale(1,1)"><g><path fill="none" stroke="none"/><text fill="#000000" stroke="none" font-family="Arial" font-size="13px" font-style="normal" font-weight="bold" text-decoration="none" x="688.095947265625" y="260.5">ForkJoinPool</text></g></g><g transform="translate(-173,-134) scale(1,1)"><path fill="none" stroke="#000000" d="M 540 336 L 540 286" stroke-miterlimit="10"/></g><g transform="translate(-173,-134) scale(1,1)"><path fill="#FFFFFF" stroke="none" d="M 548.419035512032 306.3253497152483 L 540 286 L 531.580964487968 306.3253497152483"/></g><g transform="translate(-173,-134) scale(1,1)"><path fill="none" stroke="#000000" d="M 548.419035512032 306.3253497152483 L 540 286 L 531.580964487968 306.3253497152483 L 548.419035512032 306.3253497152483" stroke-miterlimit="10"/></g><g transform="translate(-173,-134) scale(1,1)"><path fill="none" stroke="#000000" d="M 679 263 L 624 263" stroke-miterlimit="10"/></g><g transform="translate(-173,-134) scale(1,1)"><path fill="#FFFFFF" stroke="none" d="M 644.3253497152483 254.58096448796803 L 624 263 L 644.3253497152483 271.419035512032"/></g><g transform="translate(-173,-134) scale(1,1)"><path fill="none" stroke="#000000" d="M 644.3253497152483 254.58096448796803 L 624 263 L 644.3253497152483 271.419035512032 L 644.3253497152483 254.58096448796803" stroke-miterlimit="10"/></g><g transform="translate(-173,-134) scale(1,1)"><path fill="none" stroke="#000000" d="M 540 432 L 540 382" stroke-miterlimit="10"/></g><g transform="translate(-173,-134) scale(1,1)"><path fill="#FFFFFF" stroke="none" d="M 548.419035512032 402.3253497152483 L 540 382 L 531.580964487968 402.3253497152483"/></g><g transform="translate(-173,-134) scale(1,1)"><path fill="none" stroke="#000000" d="M 548.419035512032 402.3253497152483 L 540 382 L 531.580964487968 402.3253497152483 L 548.419035512032 402.3253497152483" stroke-miterlimit="10"/></g><g transform="translate(-173,-134) scale(1,1)"><path fill="none" stroke="#000000" d="M 439 455 L 361 455" stroke-miterlimit="10" stroke-dasharray="3"/></g><g transform="translate(-173,-134) scale(1,1)"><path fill="#FFFFFF" stroke="none" d="M 381.3253497152483 446.580964487968 L 361 455 L 381.3253497152483 463.419035512032"/></g><g transform="translate(-173,-134) scale(1,1)"><path fill="none" stroke="#000000" d="M 381.3253497152483 446.580964487968 L 361 455 L 381.3253497152483 463.419035512032 L 381.3253497152483 446.580964487968" stroke-miterlimit="10"/></g></g></svg>