<svg version="1.1" xmlns="http://www.w3.org/2000/svg" xmlns:xlink="http://www.w3.org/1999/xlink" width="454.341796875" height="283"><defs/><g><g transform="translate(-302,-902) scale(1,1)"><path fill="#C0C0C0" stroke="none" d="M 531.7099609375 930.5 C 531.7099609375 924.1487248 536.8586857375 919 543.2099609375 919 C 549.5612361375 919 554.7099609375 924.1487248 554.7099609375 930.5 C 554.7099609375 936.8512752 549.5612361375 942 543.2099609375 942 C 536.8586857375 942 531.7099609375 936.8512752 531.7099609375 930.5 Z" opacity="0.2"/></g><g transform="translate(-302,-902) scale(1,1)"><path fill="#ffffff" stroke="none" d="M 524.7099609375 923.5 C 524.7099609375 917.1487248 529.8586857375 912 536.2099609375 912 C 542.5612361375 912 547.7099609375 917.1487248 547.7099609375 923.5 C 547.7099609375 929.8512752 542.5612361375 935 536.2099609375 935 C 529.8586857375 935 524.7099609375 929.8512752 524.7099609375 923.5 Z"/></g><g transform="translate(-302,-902) scale(1,1)"><path fill="none" stroke="#000000" d="M 524.7099609375 923.5 C 524.7099609375 917.1487248 529.8586857375 912 536.2099609375 912 C 542.5612361375 912 547.7099609375 917.1487248 547.7099609375 923.5 C 547.7099609375 929.8512752 542.5612361375 935 536.2099609375 935 C 529.8586857375 935 524.7099609375 929.8512752 524.7099609375 923.5 Z" stroke-miterlimit="10"/></g><g transform="translate(-302,-902) scale(1,1)"><g><path fill="none" stroke="none"/><text fill="#000000" stroke="none" font-family="Arial" font-size="13px" font-style="normal" font-weight="bold" text-decoration="none" x="522.838623046875" y="954.5">Path</text></g></g><g transform="translate(-302,-902) scale(1,1)"><rect fill="#C0C0C0" stroke="none" x="466" y="1031" width="154.9072265625" height="44" opacity="0.2"/></g><g transform="translate(-302,-902) scale(1,1)"><rect fill="#ffffff" stroke="none" x="459" y="1024" width="154.9072265625" height="44"/></g><g transform="translate(-302,-902) scale(1,1)"><path fill="none" stroke="#000000" d="M 459 1024 L 613.9072265625 1024 L 613.9072265625 1068 L 459 1068 L 459 1024 Z Z" stroke-miterlimit="10"/></g><g transform="translate(-302,-902) scale(1,1)"><path fill="none" stroke="#000000" d="M 459 1049 L 613.9072265625 1049" stroke-miterlimit="10"/></g><g transform="translate(-302,-902) scale(1,1)"><path fill="none" stroke="#000000" d="M 459 1059 L 613.9072265625 1059" stroke-miterlimit="10"/></g><g transform="translate(-302,-902) scale(1,1)"><g><path fill="none" stroke="none"/><text fill="#000000" stroke="none" font-family="Arial" font-size="13px" font-style="normal" font-weight="bold" text-decoration="none" x="469.61279296875" y="1043.5">sun.nio.fs.AbstractPath</text></g></g><g transform="translate(-302,-902) scale(1,1)"><rect fill="#C0C0C0" stroke="none" x="319" y="1138" width="159.21728515625" height="44" opacity="0.2"/></g><g transform="translate(-302,-902) scale(1,1)"><rect fill="#ffffff" stroke="none" x="312" y="1131" width="159.21728515625" height="44"/></g><g transform="translate(-302,-902) scale(1,1)"><path fill="none" stroke="#000000" d="M 312 1131 L 471.21728515625 1131 L 471.21728515625 1175 L 312 1175 L 312 1131 Z Z" stroke-miterlimit="10"/></g><g transform="translate(-302,-902) scale(1,1)"><path fill="none" stroke="#000000" d="M 312 1156 L 471.21728515625 1156" stroke-miterlimit="10"/></g><g transform="translate(-302,-902) scale(1,1)"><path fill="none" stroke="#000000" d="M 312 1166 L 471.21728515625 1166" stroke-miterlimit="10"/></g><g transform="translate(-302,-902) scale(1,1)"><g><path fill="none" stroke="none"/><text fill="#000000" stroke="none" font-family="Arial" font-size="13px" font-style="normal" font-weight="bold" text-decoration="none" x="322.241455078125" y="1150.5">sun.nio.fs.WindowsPath</text></g></g><g transform="translate(-302,-902) scale(1,1)"><rect fill="#C0C0C0" stroke="none" x="623" y="1138" width="130.341796875" height="44" opacity="0.2"/></g><g transform="translate(-302,-902) scale(1,1)"><rect fill="#ffffff" stroke="none" x="616" y="1131" width="130.341796875" height="44"/></g><g transform="translate(-302,-902) scale(1,1)"><path fill="none" stroke="#000000" d="M 616 1131 L 746.341796875 1131 L 746.341796875 1175 L 616 1175 L 616 1131 Z Z" stroke-miterlimit="10"/></g><g transform="translate(-302,-902) scale(1,1)"><path fill="none" stroke="#000000" d="M 616 1156 L 746.341796875 1156" stroke-miterlimit="10"/></g><g transform="translate(-302,-902) scale(1,1)"><path fill="none" stroke="#000000" d="M 616 1166 L 746.341796875 1166" stroke-miterlimit="10"/></g><g transform="translate(-302,-902) scale(1,1)"><g><path fill="none" stroke="none"/><text fill="#000000" stroke="none" font-family="Arial" font-size="13px" font-style="normal" font-weight="bold" text-decoration="none" x="625.168701171875" y="1150.5">sun.nio.fs.UnixPath</text></g></g><g transform="translate(-302,-902) scale(1,1)"><path fill="none" stroke="#000000" d="M 536 1023 L 536 935" stroke-miterlimit="10"/></g><g transform="translate(-302,-902) scale(1,1)"><path fill="none" stroke="#000000" d="M 422 1130 L 505 1069" stroke-miterlimit="10"/></g><g transform="translate(-302,-902) scale(1,1)"><path fill="#FFFFFF" stroke="none" d="M 493.6078877677759 1087.8207273740525 L 505 1069 L 483.6362962355003 1074.2528241416119"/></g><g transform="translate(-302,-902) scale(1,1)"><path fill="none" stroke="#000000" d="M 493.6078877677759 1087.8207273740525 L 505 1069 L 483.6362962355003 1074.2528241416119 L 493.6078877677759 1087.8207273740525" stroke-miterlimit="10"/></g><g transform="translate(-302,-902) scale(1,1)"><path fill="none" stroke="#000000" d="M 650 1130 L 567 1069" stroke-miterlimit="10"/></g><g transform="translate(-302,-902) scale(1,1)"><path fill="#FFFFFF" stroke="none" d="M 588.3637037644997 1074.2528241416119 L 567 1069 L 578.3921122322241 1087.8207273740525"/></g><g transform="translate(-302,-902) scale(1,1)"><path fill="none" stroke="#000000" d="M 588.3637037644997 1074.2528241416119 L 567 1069 L 578.3921122322241 1087.8207273740525 L 588.3637037644997 1074.2528241416119" stroke-miterlimit="10"/></g></g></svg>