<svg version="1.1" xmlns="http://www.w3.org/2000/svg" xmlns:xlink="http://www.w3.org/1999/xlink" width="694.3642578125" height="530"><defs/><g><g transform="translate(-94,-110) scale(1,1)"><rect fill="#C0C0C0" stroke="none" x="631" y="231" width="89.57080078125" height="60" opacity="0.2"/></g><g transform="translate(-94,-110) scale(1,1)"><rect fill="#38ff9b" stroke="none" x="624" y="224" width="89.57080078125" height="60"/></g><g transform="translate(-94,-110) scale(1,1)"><path fill="none" stroke="#000000" d="M 624 224 L 713.57080078125 224 L 713.57080078125 284 L 624 284 L 624 224 Z Z" stroke-miterlimit="10"/></g><g transform="translate(-94,-110) scale(1,1)"><path fill="none" stroke="#000000" d="M 624 262 L 713.57080078125 262" stroke-miterlimit="10"/></g><g transform="translate(-94,-110) scale(1,1)"><g><path fill="none" stroke="none"/><text fill="#000000" stroke="none" font-family="Arial" font-size="13px" font-style="normal" font-weight="normal" text-decoration="none" x="636.625" y="241.5">«interface»</text></g></g><g transform="translate(-94,-110) scale(1,1)"><g><path fill="none" stroke="none"/><text fill="#000000" stroke="none" font-family="Arial" font-size="13px" font-style="normal" font-weight="bold" text-decoration="none" x="638.075439453125" y="256.5">Watchable</text></g></g><g transform="translate(-94,-110) scale(1,1)"><g><path fill="none" stroke="none"/><text fill="#000000" stroke="none" font-family="Arial" font-size="13px" font-style="normal" font-weight="normal" text-decoration="none" x="629" y="279.5">+register()</text></g></g><g transform="translate(-94,-110) scale(1,1)"><rect fill="#C0C0C0" stroke="none" x="617" y="359" width="116.2880859375" height="90" opacity="0.2"/></g><g transform="translate(-94,-110) scale(1,1)"><rect fill="#00ff7f" stroke="none" x="610" y="352" width="116.2880859375" height="90"/></g><g transform="translate(-94,-110) scale(1,1)"><path fill="none" stroke="#000000" d="M 610 352 L 726.2880859375 352 L 726.2880859375 442 L 610 442 L 610 352 Z Z" stroke-miterlimit="10"/></g><g transform="translate(-94,-110) scale(1,1)"><path fill="none" stroke="#000000" d="M 610 390 L 726.2880859375 390" stroke-miterlimit="10"/></g><g transform="translate(-94,-110) scale(1,1)"><g><path fill="none" stroke="none"/><text fill="#000000" stroke="none" font-family="Arial" font-size="13px" font-style="normal" font-weight="normal" text-decoration="none" x="635.983642578125" y="369.5">«interface»</text></g></g><g transform="translate(-94,-110) scale(1,1)"><g><path fill="none" stroke="none"/><text fill="#000000" stroke="none" font-family="Arial" font-size="13px" font-style="normal" font-weight="bold" text-decoration="none" x="628.049072265625" y="384.5">WatchService</text></g></g><g transform="translate(-94,-110) scale(1,1)"><g><path fill="none" stroke="none"/><text fill="#000000" stroke="none" font-family="Arial" font-size="13px" font-style="normal" font-weight="normal" text-decoration="none" x="615" y="407.5">+poll(): WatchKey</text></g></g><g transform="translate(-94,-110) scale(1,1)"><g><path fill="none" stroke="none"/><text fill="#000000" stroke="none" font-family="Arial" font-size="13px" font-style="normal" font-weight="normal" text-decoration="none" x="615" y="422.5">+take(): WatchKey</text></g></g><g transform="translate(-94,-110) scale(1,1)"><g><path fill="none" stroke="none"/><text fill="#000000" stroke="none" font-family="Arial" font-size="13px" font-style="normal" font-weight="normal" text-decoration="none" x="615" y="437.5">+close(): void</text></g></g><g transform="translate(-94,-110) scale(1,1)"><rect fill="#C0C0C0" stroke="none" x="311" y="532" width="105.46533203125" height="90" opacity="0.2"/></g><g transform="translate(-94,-110) scale(1,1)"><rect fill="#00ff7f" stroke="none" x="304" y="525" width="105.46533203125" height="90"/></g><g transform="translate(-94,-110) scale(1,1)"><path fill="none" stroke="#000000" d="M 304 525 L 409.46533203125 525 L 409.46533203125 615 L 304 615 L 304 525 Z Z" stroke-miterlimit="10"/></g><g transform="translate(-94,-110) scale(1,1)"><path fill="none" stroke="#000000" d="M 304 563 L 409.46533203125 563" stroke-miterlimit="10"/></g><g transform="translate(-94,-110) scale(1,1)"><g><path fill="none" stroke="none"/><text fill="#000000" stroke="none" font-family="Arial" font-size="13px" font-style="normal" font-weight="normal" text-decoration="none" x="324.572265625" y="542.5">«interface»</text></g></g><g transform="translate(-94,-110) scale(1,1)"><g><path fill="none" stroke="none"/><text fill="#000000" stroke="none" font-family="Arial" font-size="13px" font-style="normal" font-weight="bold" text-decoration="none" x="321.6904296875" y="557.5">WatchEvent</text></g></g><g transform="translate(-94,-110) scale(1,1)"><g><path fill="none" stroke="none"/><text fill="#000000" stroke="none" font-family="Arial" font-size="13px" font-style="normal" font-weight="normal" text-decoration="none" x="309" y="580.5">+kind(): Kind&lt;T&gt;</text></g></g><g transform="translate(-94,-110) scale(1,1)"><g><path fill="none" stroke="none"/><text fill="#000000" stroke="none" font-family="Arial" font-size="13px" font-style="normal" font-weight="normal" text-decoration="none" x="309" y="595.5">+count(): int</text></g></g><g transform="translate(-94,-110) scale(1,1)"><g><path fill="none" stroke="none"/><text fill="#000000" stroke="none" font-family="Arial" font-size="13px" font-style="normal" font-weight="normal" text-decoration="none" x="309" y="610.5">+context(): T</text></g></g><g transform="translate(-94,-110) scale(1,1)"><rect fill="#C0C0C0" stroke="none" x="205" y="415" width="115.89453125" height="75" opacity="0.2"/></g><g transform="translate(-94,-110) scale(1,1)"><rect fill="#00ff7f" stroke="none" x="198" y="408" width="115.89453125" height="75"/></g><g transform="translate(-94,-110) scale(1,1)"><path fill="none" stroke="#000000" d="M 198 408 L 313.89453125 408 L 313.89453125 483 L 198 483 L 198 408 Z Z" stroke-miterlimit="10"/></g><g transform="translate(-94,-110) scale(1,1)"><path fill="none" stroke="#000000" d="M 198 446 L 313.89453125 446" stroke-miterlimit="10"/></g><g transform="translate(-94,-110) scale(1,1)"><g><path fill="none" stroke="none"/><text fill="#000000" stroke="none" font-family="Arial" font-size="13px" font-style="normal" font-weight="normal" text-decoration="none" x="223.786865234375" y="425.5">«interface»</text></g></g><g transform="translate(-94,-110) scale(1,1)"><g><path fill="none" stroke="none"/><text fill="#000000" stroke="none" font-family="Arial" font-size="13px" font-style="normal" font-weight="bold" text-decoration="none" x="206.089599609375" y="440.5">WatchEvent.Kind</text></g></g><g transform="translate(-94,-110) scale(1,1)"><g><path fill="none" stroke="none"/><text fill="#000000" stroke="none" font-family="Arial" font-size="13px" font-style="normal" font-weight="normal" text-decoration="none" x="203" y="463.5">+name(): String</text></g></g><g transform="translate(-94,-110) scale(1,1)"><g><path fill="none" stroke="none"/><text fill="#000000" stroke="none" font-family="Arial" font-size="13px" font-style="normal" font-weight="normal" text-decoration="none" x="203" y="478.5">+type(): Class&lt;T&gt;</text></g></g><g transform="translate(-94,-110) scale(1,1)"><rect fill="#C0C0C0" stroke="none" x="391" y="423" width="137.5654296875" height="60" opacity="0.2"/></g><g transform="translate(-94,-110) scale(1,1)"><rect fill="#00ff7f" stroke="none" x="384" y="416" width="137.5654296875" height="60"/></g><g transform="translate(-94,-110) scale(1,1)"><path fill="none" stroke="#000000" d="M 384 416 L 521.5654296875 416 L 521.5654296875 476 L 384 476 L 384 416 Z Z" stroke-miterlimit="10"/></g><g transform="translate(-94,-110) scale(1,1)"><path fill="none" stroke="#000000" d="M 384 454 L 521.5654296875 454" stroke-miterlimit="10"/></g><g transform="translate(-94,-110) scale(1,1)"><g><path fill="none" stroke="none"/><text fill="#000000" stroke="none" font-family="Arial" font-size="13px" font-style="normal" font-weight="normal" text-decoration="none" x="420.622314453125" y="433.5">«interface»</text></g></g><g transform="translate(-94,-110) scale(1,1)"><g><path fill="none" stroke="none"/><text fill="#000000" stroke="none" font-family="Arial" font-size="13px" font-style="normal" font-weight="bold" text-decoration="none" x="392.81640625" y="448.5">WatchEvent.Modifier</text></g></g><g transform="translate(-94,-110) scale(1,1)"><g><path fill="none" stroke="none"/><text fill="#000000" stroke="none" font-family="Arial" font-size="13px" font-style="normal" font-weight="normal" text-decoration="none" x="389" y="471.5">+name(): String</text></g></g><g transform="translate(-94,-110) scale(1,1)"><rect fill="#C0C0C0" stroke="none" x="565" y="517" width="220.3642578125" height="120" opacity="0.2"/></g><g transform="translate(-94,-110) scale(1,1)"><rect fill="#00ff7f" stroke="none" x="558" y="510" width="220.3642578125" height="120"/></g><g transform="translate(-94,-110) scale(1,1)"><path fill="none" stroke="#000000" d="M 558 510 L 778.3642578125 510 L 778.3642578125 630 L 558 630 L 558 510 Z Z" stroke-miterlimit="10"/></g><g transform="translate(-94,-110) scale(1,1)"><path fill="none" stroke="#000000" d="M 558 548 L 778.3642578125 548" stroke-miterlimit="10"/></g><g transform="translate(-94,-110) scale(1,1)"><g><path fill="none" stroke="none"/><text fill="#000000" stroke="none" font-family="Arial" font-size="13px" font-style="normal" font-weight="normal" text-decoration="none" x="636.021728515625" y="527.5">«interface»</text></g></g><g transform="translate(-94,-110) scale(1,1)"><g><path fill="none" stroke="none"/><text fill="#000000" stroke="none" font-family="Arial" font-size="13px" font-style="normal" font-weight="bold" text-decoration="none" x="638.560791015625" y="542.5">WatchKey</text></g></g><g transform="translate(-94,-110) scale(1,1)"><g><path fill="none" stroke="none"/><text fill="#000000" stroke="none" font-family="Arial" font-size="13px" font-style="normal" font-weight="normal" text-decoration="none" x="563" y="565.5">+isValid(): boolean</text></g></g><g transform="translate(-94,-110) scale(1,1)"><g><path fill="none" stroke="none"/><text fill="#000000" stroke="none" font-family="Arial" font-size="13px" font-style="normal" font-weight="normal" text-decoration="none" x="563" y="580.5">+pollEvents(): List&lt;WatchEvent&lt;?&gt;&gt;</text></g></g><g transform="translate(-94,-110) scale(1,1)"><g><path fill="none" stroke="none"/><text fill="#000000" stroke="none" font-family="Arial" font-size="13px" font-style="normal" font-weight="normal" text-decoration="none" x="563" y="595.5">+reset(): boolean</text></g></g><g transform="translate(-94,-110) scale(1,1)"><g><path fill="none" stroke="none"/><text fill="#000000" stroke="none" font-family="Arial" font-size="13px" font-style="normal" font-weight="normal" text-decoration="none" x="563" y="610.5">+cancel(): void</text></g></g><g transform="translate(-94,-110) scale(1,1)"><g><path fill="none" stroke="none"/><text fill="#000000" stroke="none" font-family="Arial" font-size="13px" font-style="normal" font-weight="normal" text-decoration="none" x="563" y="625.5">+watchable(): Watchable</text></g></g><g transform="translate(-94,-110) scale(1,1)"><rect fill="#C0C0C0" stroke="none" x="128" y="135" width="269.47607421875" height="87" opacity="0.2"/></g><g transform="translate(-94,-110) scale(1,1)"><rect fill="#38ff9b" stroke="none" x="121" y="128" width="269.47607421875" height="87"/></g><g transform="translate(-94,-110) scale(1,1)"><path fill="none" stroke="#000000" d="M 121 128 L 390.47607421875 128 L 390.47607421875 215 L 121 215 L 121 128 Z Z" stroke-miterlimit="10"/></g><g transform="translate(-94,-110) scale(1,1)"><path fill="none" stroke="#000000" d="M 121 153 L 390.47607421875 153" stroke-miterlimit="10"/></g><g transform="translate(-94,-110) scale(1,1)"><path fill="none" stroke="#000000" d="M 121 206 L 390.47607421875 206" stroke-miterlimit="10"/></g><g transform="translate(-94,-110) scale(1,1)"><g><path fill="none" stroke="none"/><text fill="#000000" stroke="none" font-family="Arial" font-size="13px" font-style="normal" font-weight="bold" text-decoration="none" x="178.055419921875" y="147.5">StandardWatchEventKinds</text></g></g><g transform="translate(-94,-110) scale(1,1)"><g><path fill="none" stroke="none"/><text fill="#000000" stroke="none" font-family="Arial" font-size="13px" font-style="normal" font-weight="normal" text-decoration="none" x="126" y="170.5">+ENTRY_CREATE: WatchEvent.Kind&lt;Path&gt;</text><path fill="none" stroke="#000000" d="M 126 170.5 L 386.47607421875 170.5" stroke-miterlimit="10"/></g></g><g transform="translate(-94,-110) scale(1,1)"><g><path fill="none" stroke="none"/><text fill="#000000" stroke="none" font-family="Arial" font-size="13px" font-style="normal" font-weight="normal" text-decoration="none" x="126" y="185.5">+ENTRY_DELETE: WatchEvent.Kind&lt;Path&gt;</text><path fill="none" stroke="#000000" d="M 126 185.5 L 384.31787109375 185.5" stroke-miterlimit="10"/></g></g><g transform="translate(-94,-110) scale(1,1)"><g><path fill="none" stroke="none"/><text fill="#000000" stroke="none" font-family="Arial" font-size="13px" font-style="normal" font-weight="normal" text-decoration="none" x="126" y="200.5">+ENTRY_MODIFY: WatchEvent.Kind&lt;Path&gt;</text><path fill="none" stroke="#000000" d="M 126 200.5 L 384.298828125 200.5" stroke-miterlimit="10"/></g></g><g transform="translate(-94,-110) scale(1,1)"><path fill="none" stroke="#000000" d="M 623 275 L 315 417" stroke-miterlimit="10" stroke-dasharray="3"/></g><g transform="translate(-94,-110) scale(1,1)"><path fill="none" stroke="#000000" d="M 322.4665907173699 408.9222513619644 L 315 417 L 325.99150776727214 416.56784608992143" stroke-miterlimit="10"/></g><g transform="translate(-94,-110) scale(1,1)"><path fill="none" stroke="#000000" d="M 633 285 L 487 415" stroke-miterlimit="10" stroke-dasharray="3"/></g><g transform="translate(-94,-110) scale(1,1)"><path fill="none" stroke="#000000" d="M 491.79061531603224 405.09797975694875 L 487 415 L 497.38926223733057 411.38569091471453" stroke-miterlimit="10"/></g><g transform="translate(-94,-110) scale(1,1)"><path fill="none" stroke="#000000" d="M 668 285 L 668 351" stroke-miterlimit="10" stroke-dasharray="3"/></g><g transform="translate(-94,-110) scale(1,1)"><path fill="none" stroke="#000000" d="M 663.790482243984 340.83732514237585 L 668 351 L 672.209517756016 340.83732514237585" stroke-miterlimit="10"/></g><g transform="translate(-94,-110) scale(1,1)"><path fill="none" stroke="#000000" d="M 319 524 L 287 484" stroke-miterlimit="10"/></g><g transform="translate(-94,-110) scale(1,1)"><path fill="none" stroke="#000000" d="M 296.63565377193316 489.306050922054 L 287 484 L 290.06149153499416 494.5653807116052" stroke-miterlimit="10"/></g><g transform="translate(-94,-110) scale(1,1)"><path fill="none" stroke="#000000" d="M 392 524 L 428 477" stroke-miterlimit="10"/></g><g transform="translate(-94,-110) scale(1,1)"><path fill="none" stroke="#000000" d="M 425.1621565543033 487.62763588846155 L 428 477 L 418.47846825088936 482.50821506031474" stroke-miterlimit="10"/></g><g transform="translate(-94,-110) scale(1,1)"><path fill="none" stroke="#000000" d="M 668 443 L 668 509" stroke-miterlimit="10" stroke-dasharray="3"/></g><g transform="translate(-94,-110) scale(1,1)"><path fill="none" stroke="#000000" d="M 663.790482243984 498.83732514237585 L 668 509 L 672.209517756016 498.83732514237585" stroke-miterlimit="10"/></g><g transform="translate(-94,-110) scale(1,1)"><path fill="none" stroke="#000000" d="M 557 570 L 410 570" stroke-miterlimit="10" stroke-dasharray="3"/></g><g transform="translate(-94,-110) scale(1,1)"><path fill="none" stroke="#000000" d="M 420.16267485762415 565.790482243984 L 410 570 L 420.16267485762415 574.209517756016" stroke-miterlimit="10"/></g><g transform="translate(-94,-110) scale(1,1)"><rect fill="#C0C0C0" stroke="none" x="111" y="303" width="303.68994140625" height="44" opacity="0.2"/></g><g transform="translate(-94,-110) scale(1,1)"><rect fill="#aaaaaa" stroke="none" x="104" y="296" width="303.68994140625" height="44"/></g><g transform="translate(-94,-110) scale(1,1)"><path fill="none" stroke="#000000" d="M 104 296 L 407.68994140625 296 L 407.68994140625 340 L 104 340 L 104 296 Z Z" stroke-miterlimit="10"/></g><g transform="translate(-94,-110) scale(1,1)"><path fill="none" stroke="#000000" d="M 104 321 L 407.68994140625 321" stroke-miterlimit="10"/></g><g transform="translate(-94,-110) scale(1,1)"><path fill="none" stroke="#000000" d="M 104 331 L 407.68994140625 331" stroke-miterlimit="10"/></g><g transform="translate(-94,-110) scale(1,1)"><g><path fill="none" stroke="none"/><text fill="#000000" stroke="none" font-family="Arial" font-size="13px" font-style="normal" font-weight="bold" text-decoration="none" x="118.54833984375" y="315.5">StandardWatchEventKinds.StdWatchEventKind</text></g></g><g transform="translate(-94,-110) scale(1,1)"><path fill="none" stroke="#000000" d="M 255 216 L 255 295" stroke-miterlimit="10"/></g><g transform="translate(-94,-110) scale(1,1)"><path fill="none" stroke="#000000" d="M 250.790482243984 284.83732514237585 L 255 295 L 259.209517756016 284.83732514237585" stroke-miterlimit="10"/></g><g transform="translate(-94,-110) scale(1,1)"><path fill="none" stroke="#000000" d="M 255 341 L 255 407" stroke-miterlimit="10" stroke-dasharray="3"/></g><g transform="translate(-94,-110) scale(1,1)"><path fill="#FFFFFF" stroke="none" d="M 246.58096448796803 386.6746502847517 L 255 407 L 263.419035512032 386.6746502847517"/></g><g transform="translate(-94,-110) scale(1,1)"><path fill="none" stroke="#000000" d="M 246.58096448796803 386.6746502847517 L 255 407 L 263.419035512032 386.6746502847517 L 246.58096448796803 386.6746502847517" stroke-miterlimit="10"/></g><g transform="translate(-94,-110) scale(1,1)"><rect fill="#C0C0C0" stroke="none" x="639" y="127" width="73.32080078125" height="48" opacity="0.2"/></g><g transform="translate(-94,-110) scale(1,1)"><rect fill="#00ff7f" stroke="none" x="632" y="120" width="73.32080078125" height="48"/></g><g transform="translate(-94,-110) scale(1,1)"><path fill="none" stroke="#000000" d="M 632 120 L 705.32080078125 120 L 705.32080078125 168 L 632 168 L 632 120 Z Z" stroke-miterlimit="10"/></g><g transform="translate(-94,-110) scale(1,1)"><path fill="none" stroke="#000000" d="M 632 158 L 705.32080078125 158" stroke-miterlimit="10"/></g><g transform="translate(-94,-110) scale(1,1)"><g><path fill="none" stroke="none"/><text fill="#000000" stroke="none" font-family="Arial" font-size="13px" font-style="normal" font-weight="normal" text-decoration="none" x="636.5" y="137.5">«interface»</text></g></g><g transform="translate(-94,-110) scale(1,1)"><g><path fill="none" stroke="none"/><text fill="#000000" stroke="none" font-family="Arial" font-size="13px" font-style="normal" font-weight="bold" text-decoration="none" x="655.2890625" y="152.5">Path</text></g></g><g transform="translate(-94,-110) scale(1,1)"><path fill="none" stroke="#000000" d="M 668 169 L 668 223" stroke-miterlimit="10"/></g><g transform="translate(-94,-110) scale(1,1)"><path fill="#FFFFFF" stroke="none" d="M 659.580964487968 202.6746502847517 L 668 223 L 676.419035512032 202.6746502847517"/></g><g transform="translate(-94,-110) scale(1,1)"><path fill="none" stroke="#000000" d="M 659.580964487968 202.6746502847517 L 668 223 L 676.419035512032 202.6746502847517 L 659.580964487968 202.6746502847517" stroke-miterlimit="10"/></g></g></svg>