<svg width="583" height="203" xmlns="http://www.w3.org/2000/svg">
 <!-- Created with Method Draw - http://github.com/duopixel/Method-Draw/ -->
 <g>
  <title>background</title>
  <rect fill="#fff" id="canvas_background" height="205" width="585" y="-1" x="-1"/>
  <g display="none" overflow="visible" y="0" x="0" height="100%" width="100%" id="canvasGrid">
   <rect fill="url(#gridpattern)" stroke-width="0" y="0" x="0" height="100%" width="100%"/>
  </g>
 </g>
 <g>
  <title>Layer 1</title>
  <rect id="svg_1" height="165" width="161" y="21.333208" x="14.5" stroke-width="1.5" stroke="#000" fill="#fff"/>
  <rect rx="8" id="svg_2" height="41" width="138" y="81.333208" x="26" stroke-width="1.5" stroke="#000" fill="#D1FFB4"/>
  <rect rx="8" id="svg_7" height="41" width="138" y="135.333208" x="26" stroke-width="1.5" stroke="#000" fill="#D1FFB4"/>
  <text stroke="#000" transform="matrix(0.6343410975496065,0,0,0.6900027835079291,-3.5231608897406197,26.07576346080282) " xml:space="preserve" text-anchor="start" font-family="Helvetica, Arial, sans-serif" font-size="24" id="svg_8" y="37.34819" x="32.532931" fill-opacity="null" stroke-opacity="null" stroke-width="0" fill="#000000">Stream&lt;List&lt;Integer&gt;&gt;</text>
  <rect id="svg_9" height="165" width="161" y="22.333208" x="405.666667" stroke-width="1.5" stroke="#000" fill="#fff"/>
  <rect stroke="#000" rx="8" id="svg_10" height="36.833335" width="25.500053" y="67.333215" x="418" stroke-width="1.5" fill="#D1FFB4"/>
  <text transform="matrix(0.8606719533378957,0,0,0.8284702447913901,15.833613691938869,9.154698838065801) " stroke="#000" xml:space="preserve" text-anchor="start" font-family="Helvetica, Arial, sans-serif" font-size="24" id="svg_12" y="52.8427" x="456.653505" fill-opacity="null" stroke-opacity="null" stroke-width="0" fill="#000000">Stream&lt;Integer&gt;</text>
  <path id="svg_13" d="m176.5,96.333208" opacity="0.5" fill-opacity="null" stroke-opacity="null" stroke-width="0" stroke="#000" fill="#000000"/>
  <path id="svg_14" d="m391.03693,106.427349l3.646614,-4.199997l-7.05055,0l-7.050535,0l0,-2.599997l0,-2.6l6.969651,0c3.833303,0 6.969645,-0.13178 6.969645,-0.292846c0,-0.161062 -1.526026,-2.051062 -3.391164,-4.199996l-3.391175,-3.907155l3.134482,0l3.13447,0l4.787046,5.505266l4.787044,5.505264l-4.796227,5.49473l-4.796225,5.49473l-3.299847,0l-3.299855,0l3.646624,-4.199999l0.000002,0.000001z" fill-opacity="null" stroke-opacity="null" stroke-width="0" stroke="#000" fill="#000000"/>
  <rect stroke="#000" id="svg_16" height="4.467273" width="218.78867" y="97.408328" x="177.605034" stroke-opacity="null" stroke-width="null" fill="#000000"/>
  <text stroke="#000" transform="matrix(1.0231984010708666,0,0,1.0209931709507327,-5.797223151661788,23.855070914865863) " xml:space="preserve" text-anchor="start" font-family="Helvetica, Arial, sans-serif" font-size="24" id="svg_17" y="54.962892" x="180.45286" fill-opacity="null" stroke-opacity="null" stroke-width="0" fill="#000000">flatMap(List::stream)</text>
  <text xml:space="preserve" text-anchor="start" font-family="Helvetica, Arial, sans-serif" font-size="24" id="svg_18" y="110.476029" x="59.04718" fill-opacity="null" stroke-opacity="null" stroke-width="0" stroke="#000" fill="#000000">1,2,3,4</text>
  <text xml:space="preserve" text-anchor="start" font-family="Helvetica, Arial, sans-serif" font-size="24" id="svg_19" y="163.809463" x="59.047179" fill-opacity="null" stroke-opacity="null" stroke-width="0" stroke="#000" fill="#000000">5,6,7,8</text>
  <text xml:space="preserve" text-anchor="start" font-family="Helvetica, Arial, sans-serif" font-size="24" id="svg_22" y="94.83333" x="423.583259" fill-opacity="null" stroke-opacity="null" stroke-width="0" stroke="#000" fill="#000000">1</text>
  <rect stroke="#000" rx="8" id="svg_23" height="36.833335" width="25.500053" y="67.333215" x="451.333317" stroke-width="1.5" fill="#D1FFB4"/>
  <text style="cursor: move;" xml:space="preserve" text-anchor="start" font-family="Helvetica, Arial, sans-serif" font-size="24" id="svg_24" y="94.83333" x="457.749909" fill-opacity="null" stroke-opacity="null" stroke-width="0" stroke="#000" fill="#000000">2</text>
  <rect stroke="#000" rx="8" id="svg_25" height="36.833335" width="25.500053" y="67.333215" x="482.999969" stroke-width="1.5" fill="#D1FFB4"/>
  <text style="cursor: move;" xml:space="preserve" text-anchor="start" font-family="Helvetica, Arial, sans-serif" font-size="24" id="svg_26" y="94.83333" x="488.583228" fill-opacity="null" stroke-opacity="null" stroke-width="0" stroke="#000" fill="#000000">3</text>
  <rect stroke="#000" rx="8" id="svg_27" height="36.833335" width="25.500053" y="67.333215" x="515.499953" stroke-width="1.5" fill="#D1FFB4"/>
  <text style="cursor: move;" xml:space="preserve" text-anchor="start" font-family="Helvetica, Arial, sans-serif" font-size="24" id="svg_28" y="94.83333" x="521.083213" fill-opacity="null" stroke-opacity="null" stroke-width="0" stroke="#000" fill="#000000">4</text>
  <rect stroke="#000" rx="8" id="svg_29" height="36.833335" width="25.500053" y="120.666524" x="417.999999" stroke-width="1.5" fill="#D1FFB4"/>
  <text style="cursor: move;" xml:space="preserve" text-anchor="start" font-family="Helvetica, Arial, sans-serif" font-size="24" id="svg_30" y="148.166639" x="423.583258" fill-opacity="null" stroke-opacity="null" stroke-width="0" stroke="#000" fill="#000000">5</text>
  <rect stroke="#000" rx="8" id="svg_31" height="36.833335" width="25.500053" y="121.499857" x="450.499984" stroke-width="1.5" fill="#D1FFB4"/>
  <text style="cursor: move;" xml:space="preserve" text-anchor="start" font-family="Helvetica, Arial, sans-serif" font-size="24" id="svg_32" y="148.999972" x="456.083243" fill-opacity="null" stroke-opacity="null" stroke-width="0" stroke="#000" fill="#000000">6</text>
  <rect stroke="#000" rx="8" id="svg_33" height="36.833335" width="25.500053" y="120.666524" x="483.833301" stroke-width="1.5" fill="#D1FFB4"/>
  <text style="cursor: move;" xml:space="preserve" text-anchor="start" font-family="Helvetica, Arial, sans-serif" font-size="24" id="svg_34" y="148.166639" x="489.41656" fill-opacity="null" stroke-opacity="null" stroke-width="0" stroke="#000" fill="#000000">7</text>
  <rect stroke="#000" rx="8" id="svg_35" height="36.833335" width="25.500053" y="120.666524" x="516.333285" stroke-width="1.5" fill="#D1FFB4"/>
  <text style="cursor: move;" xml:space="preserve" text-anchor="start" font-family="Helvetica, Arial, sans-serif" font-size="24" id="svg_36" y="148.166639" x="521.916545" fill-opacity="null" stroke-opacity="null" stroke-width="0" stroke="#000" fill="#000000">8</text>
 </g>
</svg>