<svg version="1.1" xmlns="http://www.w3.org/2000/svg" xmlns:xlink="http://www.w3.org/1999/xlink" width="796.04638671875" height="315"><defs/><g><g transform="translate(-94,-662) scale(1,1)"><path fill="#C0C0C0" stroke="none" d="M 214 689 L 253 689 Q 263 689 263 699 L 263 718 Q 263 728 253 728 L 214 728 Q 204 728 204 718 L 204 699 Q 204 689 214 689 Z" opacity="0.2"/></g><g transform="translate(-94,-662) scale(1,1)"><path fill="#ffffff" stroke="none" d="M 207 682 L 246 682 Q 256 682 256 692 L 256 711 Q 256 721 246 721 L 207 721 Q 197 721 197 711 L 197 692 Q 197 682 207 682 Z"/></g><g transform="translate(-94,-662) scale(1,1)"><path fill="none" stroke="#000000" d="M 207 682 L 246 682 Q 256 682 256 692 L 256 711 Q 256 721 246 721 L 207 721 Q 197 721 197 711 L 197 692 Q 197 682 207 682 Z" stroke-miterlimit="10"/></g><g transform="translate(-94,-662) scale(1,1)"><g><path fill="none" stroke="none"/><text fill="#000000" stroke="none" font-family="Arial" font-size="13px" font-style="normal" font-weight="bold" text-decoration="none" x="211.33544921875" y="701.5">NEW</text></g></g><g transform="translate(-94,-662) scale(1,1)"><path fill="#C0C0C0" stroke="none" d="M 585 935 L 660.66455078125 935 Q 670.66455078125 935 670.66455078125 945 L 670.66455078125 964 Q 670.66455078125 974 660.66455078125 974 L 585 974 Q 575 974 575 964 L 575 945 Q 575 935 585 935 Z" opacity="0.2"/></g><g transform="translate(-94,-662) scale(1,1)"><path fill="#ffffff" stroke="none" d="M 578 928 L 653.66455078125 928 Q 663.66455078125 928 663.66455078125 938 L 663.66455078125 957 Q 663.66455078125 967 653.66455078125 967 L 578 967 Q 568 967 568 957 L 568 938 Q 568 928 578 928 Z"/></g><g transform="translate(-94,-662) scale(1,1)"><path fill="none" stroke="#000000" d="M 578 928 L 653.66455078125 928 Q 663.66455078125 928 663.66455078125 938 L 663.66455078125 957 Q 663.66455078125 967 653.66455078125 967 L 578 967 Q 568 967 568 957 L 568 938 Q 568 928 578 928 Z" stroke-miterlimit="10"/></g><g transform="translate(-94,-662) scale(1,1)"><g><path fill="none" stroke="none"/><text fill="#000000" stroke="none" font-family="Arial" font-size="13px" font-style="normal" font-weight="bold" text-decoration="none" x="572.85546875" y="947.5">COMPLETING</text></g></g><g transform="translate(-94,-662) scale(1,1)"><path fill="#C0C0C0" stroke="none" d="M 831 935 L 877.04638671875 935 Q 887.04638671875 935 887.04638671875 945 L 887.04638671875 964 Q 887.04638671875 974 877.04638671875 974 L 831 974 Q 821 974 821 964 L 821 945 Q 821 935 831 935 Z" opacity="0.2"/></g><g transform="translate(-94,-662) scale(1,1)"><path fill="#ffffff" stroke="none" d="M 824 928 L 870.04638671875 928 Q 880.04638671875 928 880.04638671875 938 L 880.04638671875 957 Q 880.04638671875 967 870.04638671875 967 L 824 967 Q 814 967 814 957 L 814 938 Q 814 928 824 928 Z"/></g><g transform="translate(-94,-662) scale(1,1)"><path fill="none" stroke="#000000" d="M 824 928 L 870.04638671875 928 Q 880.04638671875 928 880.04638671875 938 L 880.04638671875 957 Q 880.04638671875 967 870.04638671875 967 L 824 967 Q 814 967 814 957 L 814 938 Q 814 928 824 928 Z" stroke-miterlimit="10"/></g><g transform="translate(-94,-662) scale(1,1)"><g><path fill="none" stroke="none"/><text fill="#000000" stroke="none" font-family="Arial" font-size="13px" font-style="normal" font-weight="bold" text-decoration="none" x="819.214111328125" y="947.5">NORMAL</text></g></g><g transform="translate(-94,-662) scale(1,1)"><path fill="#C0C0C0" stroke="none" d="M 681 831 L 762.45361328125 831 Q 772.45361328125 831 772.45361328125 841 L 772.45361328125 860 Q 772.45361328125 870 762.45361328125 870 L 681 870 Q 671 870 671 860 L 671 841 Q 671 831 681 831 Z" opacity="0.2"/></g><g transform="translate(-94,-662) scale(1,1)"><path fill="#ffffff" stroke="none" d="M 674 824 L 755.45361328125 824 Q 765.45361328125 824 765.45361328125 834 L 765.45361328125 853 Q 765.45361328125 863 755.45361328125 863 L 674 863 Q 664 863 664 853 L 664 834 Q 664 824 674 824 Z"/></g><g transform="translate(-94,-662) scale(1,1)"><path fill="none" stroke="#000000" d="M 674 824 L 755.45361328125 824 Q 765.45361328125 824 765.45361328125 834 L 765.45361328125 853 Q 765.45361328125 863 755.45361328125 863 L 674 863 Q 664 863 664 853 L 664 834 Q 664 824 674 824 Z" stroke-miterlimit="10"/></g><g transform="translate(-94,-662) scale(1,1)"><g><path fill="none" stroke="none"/><text fill="#000000" stroke="none" font-family="Arial" font-size="13px" font-style="normal" font-weight="bold" text-decoration="none" x="669.214111328125" y="843.5">EXCEPTIONAL</text></g></g><g transform="translate(-94,-662) scale(1,1)"><path fill="#C0C0C0" stroke="none" d="M 520 689 L 589.16455078125 689 Q 599.16455078125 689 599.16455078125 699 L 599.16455078125 718 Q 599.16455078125 728 589.16455078125 728 L 520 728 Q 510 728 510 718 L 510 699 Q 510 689 520 689 Z" opacity="0.2"/></g><g transform="translate(-94,-662) scale(1,1)"><path fill="#ffffff" stroke="none" d="M 513 682 L 582.16455078125 682 Q 592.16455078125 682 592.16455078125 692 L 592.16455078125 711 Q 592.16455078125 721 582.16455078125 721 L 513 721 Q 503 721 503 711 L 503 692 Q 503 682 513 682 Z"/></g><g transform="translate(-94,-662) scale(1,1)"><path fill="none" stroke="#000000" d="M 513 682 L 582.16455078125 682 Q 592.16455078125 682 592.16455078125 692 L 592.16455078125 711 Q 592.16455078125 721 582.16455078125 721 L 513 721 Q 503 721 503 711 L 503 692 Q 503 682 513 682 Z" stroke-miterlimit="10"/></g><g transform="translate(-94,-662) scale(1,1)"><g><path fill="none" stroke="none"/><text fill="#000000" stroke="none" font-family="Arial" font-size="13px" font-style="normal" font-weight="bold" text-decoration="none" x="508.569580078125" y="701.5">CANCELLED</text></g></g><g transform="translate(-94,-662) scale(1,1)"><path fill="#C0C0C0" stroke="none" d="M 343 743 L 429.5 743 Q 439.5 743 439.5 753 L 439.5 772 Q 439.5 782 429.5 782 L 343 782 Q 333 782 333 772 L 333 753 Q 333 743 343 743 Z" opacity="0.2"/></g><g transform="translate(-94,-662) scale(1,1)"><path fill="#ffffff" stroke="none" d="M 336 736 L 422.5 736 Q 432.5 736 432.5 746 L 432.5 765 Q 432.5 775 422.5 775 L 336 775 Q 326 775 326 765 L 326 746 Q 326 736 336 736 Z"/></g><g transform="translate(-94,-662) scale(1,1)"><path fill="none" stroke="#000000" d="M 336 736 L 422.5 736 Q 432.5 736 432.5 746 L 432.5 765 Q 432.5 775 422.5 775 L 336 775 Q 326 775 326 765 L 326 746 Q 326 736 336 736 Z" stroke-miterlimit="10"/></g><g transform="translate(-94,-662) scale(1,1)"><g><path fill="none" stroke="none"/><text fill="#000000" stroke="none" font-family="Arial" font-size="13px" font-style="normal" font-weight="bold" text-decoration="none" x="330.5" y="755.5">INTERRUPTING</text></g></g><g transform="translate(-94,-662) scale(1,1)"><path fill="#C0C0C0" stroke="none" d="M 624 743 L 705.447265625 743 Q 715.447265625 743 715.447265625 753 L 715.447265625 772 Q 715.447265625 782 705.447265625 782 L 624 782 Q 614 782 614 772 L 614 753 Q 614 743 624 743 Z" opacity="0.2"/></g><g transform="translate(-94,-662) scale(1,1)"><path fill="#ffffff" stroke="none" d="M 617 736 L 698.447265625 736 Q 708.447265625 736 708.447265625 746 L 708.447265625 765 Q 708.447265625 775 698.447265625 775 L 617 775 Q 607 775 607 765 L 607 746 Q 607 736 617 736 Z"/></g><g transform="translate(-94,-662) scale(1,1)"><path fill="none" stroke="#000000" d="M 617 736 L 698.447265625 736 Q 708.447265625 736 708.447265625 746 L 708.447265625 765 Q 708.447265625 775 698.447265625 775 L 617 775 Q 607 775 607 765 L 607 746 Q 607 736 617 736 Z" stroke-miterlimit="10"/></g><g transform="translate(-94,-662) scale(1,1)"><g><path fill="none" stroke="none"/><text fill="#000000" stroke="none" font-family="Arial" font-size="13px" font-style="normal" font-weight="bold" text-decoration="none" x="611.5" y="755.5">INTERRUPTED</text></g></g><g transform="translate(-94,-662) scale(1,1)"><path fill="#C0C0C0" stroke="none" d="M 111 708.5 C 111 703.2532944 115.2532944 699 120.5 699 C 125.7467056 699 130 703.2532944 130 708.5 C 130 713.7467056 125.7467056 718 120.5 718 C 115.2532944 718 111 713.7467056 111 708.5 Z" opacity="0.2"/></g><g transform="translate(-94,-662) scale(1,1)"><path fill="#000000" stroke="none" d="M 104 701.5 C 104 696.2532944 108.2532944 692 113.5 692 C 118.7467056 692 123 696.2532944 123 701.5 C 123 706.7467056 118.7467056 711 113.5 711 C 108.2532944 711 104 706.7467056 104 701.5 Z"/></g><g transform="translate(-94,-662) scale(1,1)"><path fill="none" stroke="#000000" d="M 124 701 L 196 701" stroke-miterlimit="10"/></g><g transform="translate(-94,-662) scale(1,1)"><path fill="none" stroke="#000000" d="M 185.83732514237585 705.209517756016 L 196 701 L 185.83732514237585 696.790482243984" stroke-miterlimit="10"/></g><g transform="translate(-94,-662) scale(1,1)"><g><path fill="none" stroke="none"/><text fill="#000000" stroke="none" font-family="Arial" font-size="13px" font-style="normal" font-weight="normal" text-decoration="none" x="148.5" y="692.5">new</text></g></g><g transform="translate(-94,-662) scale(1,1)"><path fill="none" stroke="#000000" d="M 665 947 L 813 947" stroke-miterlimit="10"/></g><g transform="translate(-94,-662) scale(1,1)"><path fill="none" stroke="#000000" d="M 802.8373251423759 951.209517756016 L 813 947 L 802.8373251423758 942.790482243984" stroke-miterlimit="10"/></g><g transform="translate(-94,-662) scale(1,1)"><g><path fill="none" stroke="none"/><text fill="#000000" stroke="none" font-family="Arial" font-size="13px" font-style="normal" font-weight="normal" text-decoration="none" x="730.5" y="938.5">set</text></g></g><g transform="translate(-94,-662) scale(1,1)"><path fill="none" stroke="#000000" d="M 257 701 L 502 701" stroke-miterlimit="10"/></g><g transform="translate(-94,-662) scale(1,1)"><path fill="none" stroke="#000000" d="M 491.83732514237585 705.209517756016 L 502 701 L 491.83732514237585 696.790482243984" stroke-miterlimit="10"/></g><g transform="translate(-94,-662) scale(1,1)"><path fill="none" stroke="#e2e2e2" d="M 242 927 L 362 776" stroke-miterlimit="10"/></g><g transform="translate(-94,-662) scale(1,1)"><path fill="none" stroke="#e2e2e2" d="M 358.9727441998634 786.575241005317 L 362 776 L 352.3815822677954 781.3372315228789" stroke-miterlimit="10"/></g><g transform="translate(-94,-662) scale(1,1)"><path fill="none" stroke="#000000" d="M 434 755 L 606 755" stroke-miterlimit="10"/></g><g transform="translate(-94,-662) scale(1,1)"><path fill="none" stroke="#000000" d="M 595.8373251423759 759.209517756016 L 606 755 L 595.8373251423758 750.790482243984" stroke-miterlimit="10"/></g><g transform="translate(-94,-662) scale(1,1)"><g><path fill="none" stroke="none"/><text fill="#000000" stroke="none" font-family="Arial" font-size="13px" font-style="normal" font-weight="normal" text-decoration="none" x="473.5" y="746.5">Thread.interrupt</text></g></g><g transform="translate(-94,-662) scale(1,1)"><path fill="none" stroke="#000000" d="M 634 927 L 694 864" stroke-miterlimit="10"/></g><g transform="translate(-94,-662) scale(1,1)"><path fill="none" stroke="#000000" d="M 690.0395301973742 874.2622940389803 L 694 864 L 683.9429872403856 868.456062651372" stroke-miterlimit="10"/></g><g transform="translate(-94,-662) scale(1,1)"><g><path fill="none" stroke="none"/><text fill="#000000" stroke="none" font-family="Arial" font-size="13px" font-style="normal" font-weight="normal" text-decoration="none" x="615.5" y="890.5">setException</text></g></g><g transform="translate(-94,-662) scale(1,1)"><path fill="#C0C0C0" stroke="none" d="M 842 708.5 C 842 701.59644 847.59644 696 854.5 696 C 861.40356 696 867 701.59644 867 708.5 C 867 715.40356 861.40356 721 854.5 721 C 847.59644 721 842 715.40356 842 708.5 Z" opacity="0.2"/></g><g transform="translate(-94,-662) scale(1,1)"><path fill="none" stroke="#000000" d="M 835 701.5 C 835 694.59644 840.59644 689 847.5 689 C 854.40356 689 860 694.59644 860 701.5 C 860 708.40356 854.40356 714 847.5 714 C 840.59644 714 835 708.40356 835 701.5 Z" stroke-miterlimit="10"/></g><g transform="translate(-94,-662) scale(1,1)"><path fill="#000000" stroke="none" d="M 840 701.5 C 840 697.357864 843.357864 694 847.5 694 C 851.642136 694 855 697.357864 855 701.5 C 855 705.642136 851.642136 709 847.5 709 C 843.357864 709 840 705.642136 840 701.5 Z"/></g><g transform="translate(-94,-662) scale(1,1)"><path fill="none" stroke="#000000" d="M 709 740 L 834 705" stroke-miterlimit="10"/></g><g transform="translate(-94,-662) scale(1,1)"><path fill="none" stroke="#000000" d="M 825.3487217270836 711.7937754043363 L 834 705 L 823.0786978090244 703.6865471255535" stroke-miterlimit="10"/></g><g transform="translate(-94,-662) scale(1,1)"><g><path fill="none" stroke="none"/><text fill="#000000" stroke="none" font-family="Arial" font-size="13px" font-style="normal" font-weight="normal" text-decoration="none" x="739.5" y="723.5">线程中断</text></g></g><g transform="translate(-94,-662) scale(1,1)"><path fill="none" stroke="#000000" d="M 847 927 L 847 715" stroke-miterlimit="10"/></g><g transform="translate(-94,-662) scale(1,1)"><path fill="none" stroke="#000000" d="M 851.209517756016 725.1626748576241 L 847 715 L 842.790482243984 725.1626748576241" stroke-miterlimit="10"/></g><g transform="translate(-94,-662) scale(1,1)"><g><path fill="none" stroke="none"/><text fill="#000000" stroke="none" font-family="Arial" font-size="13px" font-style="normal" font-weight="normal" text-decoration="none" x="822.5" y="826.5">正常结束</text></g></g><g transform="translate(-94,-662) scale(1,1)"><path fill="none" stroke="#000000" d="M 733 823 L 834 715" stroke-miterlimit="10"/></g><g transform="translate(-94,-662) scale(1,1)"><path fill="none" stroke="#000000" d="M 830.1330272313947 725.2978891821026 L 834 715 L 823.9839300600833 719.5473446052279" stroke-miterlimit="10"/></g><g transform="translate(-94,-662) scale(1,1)"><g><path fill="none" stroke="none"/><text fill="#000000" stroke="none" font-family="Arial" font-size="13px" font-style="normal" font-weight="normal" text-decoration="none" x="735.5" y="771.5">运行时出现异常</text></g></g><g transform="translate(-94,-662) scale(1,1)"><path fill="none" stroke="#000000" d="M 593 701 L 834 701" stroke-miterlimit="10"/></g><g transform="translate(-94,-662) scale(1,1)"><path fill="none" stroke="#000000" d="M 823.8373251423759 705.209517756016 L 834 701 L 823.8373251423758 696.790482243984" stroke-miterlimit="10"/></g><g transform="translate(-94,-662) scale(1,1)"><g><path fill="none" stroke="none"/><text fill="#000000" stroke="none" font-family="Arial" font-size="13px" font-style="normal" font-weight="normal" text-decoration="none" x="680.5" y="700.5">任务被取消</text></g></g><g transform="translate(-94,-662) scale(1,1)"><path fill="#C0C0C0" stroke="none" d="M 209 935 L 258.66455078125 935 Q 268.66455078125 935 268.66455078125 945 L 268.66455078125 964 Q 268.66455078125 974 258.66455078125 974 L 209 974 Q 199 974 199 964 L 199 945 Q 199 935 209 935 Z" opacity="0.2"/></g><g transform="translate(-94,-662) scale(1,1)"><path fill="#ffffff" stroke="none" d="M 202 928 L 251.66455078125 928 Q 261.66455078125 928 261.66455078125 938 L 261.66455078125 957 Q 261.66455078125 967 251.66455078125 967 L 202 967 Q 192 967 192 957 L 192 938 Q 192 928 202 928 Z"/></g><g transform="translate(-94,-662) scale(1,1)"><path fill="none" stroke="#e2e2e2" d="M 202 928 L 251.66455078125 928 Q 261.66455078125 928 261.66455078125 938 L 261.66455078125 957 Q 261.66455078125 967 251.66455078125 967 L 202 967 Q 192 967 192 957 L 192 938 Q 192 928 202 928 Z" stroke-miterlimit="10"/></g><g transform="translate(-94,-662) scale(1,1)"><g><path fill="none" stroke="none"/><text fill="#8e8e8e" stroke="none" font-family="Arial" font-size="13px" font-style="normal" font-weight="bold" text-decoration="none" x="196.5" y="947.5">RUNNING</text></g></g><g transform="translate(-94,-662) scale(1,1)"><path fill="none" stroke="#e2e2e2" d="M 226 722 L 226 927" stroke-miterlimit="10"/></g><g transform="translate(-94,-662) scale(1,1)"><path fill="none" stroke="#e2e2e2" d="M 221.790482243984 916.8373251423759 L 226 927 L 230.209517756016 916.8373251423759" stroke-miterlimit="10"/></g><g transform="translate(-94,-662) scale(1,1)"><g><path fill="none" stroke="none"/><text fill="#c6c6c6" stroke="none" font-family="Arial" font-size="13px" font-style="normal" font-weight="normal" text-decoration="none" x="231.5" y="829.5">run</text></g></g><g transform="translate(-94,-662) scale(1,1)"><path fill="none" stroke="#000000" d="M 263 947 L 567 947" stroke-miterlimit="10"/></g><g transform="translate(-94,-662) scale(1,1)"><path fill="none" stroke="#000000" d="M 556.8373251423759 951.209517756016 L 567 947 L 556.8373251423758 942.790482243984" stroke-miterlimit="10"/></g><g transform="translate(-94,-662) scale(1,1)"><g><path fill="none" stroke="none"/><text fill="#000000" stroke="none" font-family="Arial" font-size="13px" font-style="normal" font-weight="normal" text-decoration="none" x="363.5" y="938.5">set / setException</text></g></g><g transform="translate(-94,-662) scale(1,1)"><g><path fill="none" stroke="none"/><text fill="#a3ffd1" stroke="none" font-family="Arial" font-size="13px" font-style="normal" font-weight="normal" text-decoration="none" x="277" y="850">cancel(true)</text></g></g><g transform="translate(-94,-662) scale(1,1)"><g><path fill="none" stroke="none"/><text fill="#00a854" stroke="none" font-family="Arial" font-size="13px" font-style="normal" font-weight="normal" text-decoration="none" x="341" y="690">cancel(false)</text></g></g><g transform="translate(-94,-662) scale(1,1)"><path fill="none" stroke="#000000" d="M 257 712 L 325 736" stroke-miterlimit="10"/></g><g transform="translate(-94,-662) scale(1,1)"><path fill="none" stroke="#000000" d="M 314.01568365074917 736.5871919103503 L 325 736 L 316.8177080410799 728.648122804413" stroke-miterlimit="10"/></g><g transform="translate(-94,-662) scale(1,1)"><g><path fill="none" stroke="none"/><text fill="#00a854" stroke="none" font-family="Arial" font-size="13px" font-style="normal" font-weight="normal" text-decoration="none" x="261" y="730">cancel(true)</text></g></g></g></svg>