<svg version="1.1" xmlns="http://www.w3.org/2000/svg" xmlns:xlink="http://www.w3.org/1999/xlink" width="601.29345703125" height="481"><defs/><g><g transform="translate(-190,-76) scale(1,1)"><path fill="#C0C0C0" stroke="none" d="M 230.7099609375 104.5 C 230.7099609375 98.1487248 235.8586857375 93 242.2099609375 93 C 248.5612361375 93 253.7099609375 98.1487248 253.7099609375 104.5 C 253.7099609375 110.8512752 248.5612361375 116 242.2099609375 116 C 235.8586857375 116 230.7099609375 110.8512752 230.7099609375 104.5 Z" opacity="0.2"/></g><g transform="translate(-190,-76) scale(1,1)"><path fill="#ffffff" stroke="none" d="M 223.7099609375 97.5 C 223.7099609375 91.1487248 228.8586857375 86 235.2099609375 86 C 241.5612361375 86 246.7099609375 91.1487248 246.7099609375 97.5 C 246.7099609375 103.8512752 241.5612361375 109 235.2099609375 109 C 228.8586857375 109 223.7099609375 103.8512752 223.7099609375 97.5 Z"/></g><g transform="translate(-190,-76) scale(1,1)"><path fill="none" stroke="#000000" d="M 223.7099609375 97.5 C 223.7099609375 91.1487248 228.8586857375 86 235.2099609375 86 C 241.5612361375 86 246.7099609375 91.1487248 246.7099609375 97.5 C 246.7099609375 103.8512752 241.5612361375 109 235.2099609375 109 C 228.8586857375 109 223.7099609375 103.8512752 223.7099609375 97.5 Z" stroke-miterlimit="10"/></g><g transform="translate(-190,-76) scale(1,1)"><g><path fill="none" stroke="none"/><text fill="#000000" stroke="none" font-family="Arial" font-size="13px" font-style="normal" font-weight="bold" text-decoration="none" x="211.36181640625" y="128.5">Delayed</text></g></g><g transform="translate(-190,-76) scale(1,1)"><path fill="#C0C0C0" stroke="none" d="M 475.7099609375 104.5 C 475.7099609375 98.1487248 480.8586857375 93 487.2099609375 93 C 493.5612361375 93 498.7099609375 98.1487248 498.7099609375 104.5 C 498.7099609375 110.8512752 493.5612361375 116 487.2099609375 116 C 480.8586857375 116 475.7099609375 110.8512752 475.7099609375 104.5 Z" opacity="0.2"/></g><g transform="translate(-190,-76) scale(1,1)"><path fill="#ffffff" stroke="none" d="M 468.7099609375 97.5 C 468.7099609375 91.1487248 473.8586857375 86 480.2099609375 86 C 486.5612361375 86 491.7099609375 91.1487248 491.7099609375 97.5 C 491.7099609375 103.8512752 486.5612361375 109 480.2099609375 109 C 473.8586857375 109 468.7099609375 103.8512752 468.7099609375 97.5 Z"/></g><g transform="translate(-190,-76) scale(1,1)"><path fill="none" stroke="#000000" d="M 468.7099609375 97.5 C 468.7099609375 91.1487248 473.8586857375 86 480.2099609375 86 C 486.5612361375 86 491.7099609375 91.1487248 491.7099609375 97.5 C 491.7099609375 103.8512752 486.5612361375 109 480.2099609375 109 C 473.8586857375 109 468.7099609375 103.8512752 468.7099609375 97.5 Z" stroke-miterlimit="10"/></g><g transform="translate(-190,-76) scale(1,1)"><g><path fill="none" stroke="none"/><text fill="#000000" stroke="none" font-family="Arial" font-size="13px" font-style="normal" font-weight="bold" text-decoration="none" x="461.424072265625" y="128.5">Future</text></g></g><g transform="translate(-190,-76) scale(1,1)"><path fill="#C0C0C0" stroke="none" d="M 714.7099609375 104.5 C 714.7099609375 98.1487248 719.8586857375 93 726.2099609375 93 C 732.5612361375 93 737.7099609375 98.1487248 737.7099609375 104.5 C 737.7099609375 110.8512752 732.5612361375 116 726.2099609375 116 C 719.8586857375 116 714.7099609375 110.8512752 714.7099609375 104.5 Z" opacity="0.2"/></g><g transform="translate(-190,-76) scale(1,1)"><path fill="#ffffff" stroke="none" d="M 707.7099609375 97.5 C 707.7099609375 91.1487248 712.8586857375 86 719.2099609375 86 C 725.5612361375 86 730.7099609375 91.1487248 730.7099609375 97.5 C 730.7099609375 103.8512752 725.5612361375 109 719.2099609375 109 C 712.8586857375 109 707.7099609375 103.8512752 707.7099609375 97.5 Z"/></g><g transform="translate(-190,-76) scale(1,1)"><path fill="none" stroke="#000000" d="M 707.7099609375 97.5 C 707.7099609375 91.1487248 712.8586857375 86 719.2099609375 86 C 725.5612361375 86 730.7099609375 91.1487248 730.7099609375 97.5 C 730.7099609375 103.8512752 725.5612361375 109 719.2099609375 109 C 712.8586857375 109 707.7099609375 103.8512752 707.7099609375 97.5 Z" stroke-miterlimit="10"/></g><g transform="translate(-190,-76) scale(1,1)"><g><path fill="none" stroke="none"/><text fill="#000000" stroke="none" font-family="Arial" font-size="13px" font-style="normal" font-weight="bold" text-decoration="none" x="691.3818359375" y="128.5">Runnable</text></g></g><g transform="translate(-190,-76) scale(1,1)"><path fill="#C0C0C0" stroke="none" d="M 594.832275390625 243.5 C 594.832275390625 237.1487248 599.981000190625 232 606.332275390625 232 C 612.683550590625 232 617.832275390625 237.1487248 617.832275390625 243.5 C 617.832275390625 249.8512752 612.683550590625 255 606.332275390625 255 C 599.981000190625 255 594.832275390625 249.8512752 594.832275390625 243.5 Z" opacity="0.2"/></g><g transform="translate(-190,-76) scale(1,1)"><path fill="#ffffff" stroke="none" d="M 587.832275390625 236.5 C 587.832275390625 230.1487248 592.981000190625 225 599.332275390625 225 C 605.683550590625 225 610.832275390625 230.1487248 610.832275390625 236.5 C 610.832275390625 242.8512752 605.683550590625 248 599.332275390625 248 C 592.981000190625 248 587.832275390625 242.8512752 587.832275390625 236.5 Z"/></g><g transform="translate(-190,-76) scale(1,1)"><path fill="none" stroke="#000000" d="M 587.832275390625 236.5 C 587.832275390625 230.1487248 592.981000190625 225 599.332275390625 225 C 605.683550590625 225 610.832275390625 230.1487248 610.832275390625 236.5 C 610.832275390625 242.8512752 605.683550590625 248 599.332275390625 248 C 592.981000190625 248 587.832275390625 242.8512752 587.832275390625 236.5 Z" stroke-miterlimit="10"/></g><g transform="translate(-190,-76) scale(1,1)"><g><path fill="none" stroke="none"/><text fill="#000000" stroke="none" font-family="Arial" font-size="13px" font-style="normal" font-weight="bold" text-decoration="none" x="552.71826171875" y="267.5">RunnableFuture</text></g></g><g transform="translate(-190,-76) scale(1,1)"><path fill="#C0C0C0" stroke="none" d="M 353.088623046875 243.5 C 353.088623046875 237.1487248 358.237347846875 232 364.588623046875 232 C 370.939898246875 232 376.088623046875 237.1487248 376.088623046875 243.5 C 376.088623046875 249.8512752 370.939898246875 255 364.588623046875 255 C 358.237347846875 255 353.088623046875 249.8512752 353.088623046875 243.5 Z" opacity="0.2"/></g><g transform="translate(-190,-76) scale(1,1)"><path fill="#ffffff" stroke="none" d="M 346.088623046875 236.5 C 346.088623046875 230.1487248 351.237347846875 225 357.588623046875 225 C 363.939898246875 225 369.088623046875 230.1487248 369.088623046875 236.5 C 369.088623046875 242.8512752 363.939898246875 248 357.588623046875 248 C 351.237347846875 248 346.088623046875 242.8512752 346.088623046875 236.5 Z"/></g><g transform="translate(-190,-76) scale(1,1)"><path fill="none" stroke="#000000" d="M 346.088623046875 236.5 C 346.088623046875 230.1487248 351.237347846875 225 357.588623046875 225 C 363.939898246875 225 369.088623046875 230.1487248 369.088623046875 236.5 C 369.088623046875 242.8512752 363.939898246875 248 357.588623046875 248 C 351.237347846875 248 346.088623046875 242.8512752 346.088623046875 236.5 Z" stroke-miterlimit="10"/></g><g transform="translate(-190,-76) scale(1,1)"><g><path fill="none" stroke="none"/><text fill="#000000" stroke="none" font-family="Arial" font-size="13px" font-style="normal" font-weight="bold" text-decoration="none" x="308.083251953125" y="267.5">ScheduledFuture</text></g></g><g transform="translate(-190,-76) scale(1,1)"><path fill="#C0C0C0" stroke="none" d="M 480.700439453125 382.5 C 480.700439453125 376.1487248 485.849164253125 371 492.200439453125 371 C 498.551714653125 371 503.700439453125 376.1487248 503.700439453125 382.5 C 503.700439453125 388.8512752 498.551714653125 394 492.200439453125 394 C 485.849164253125 394 480.700439453125 388.8512752 480.700439453125 382.5 Z" opacity="0.2"/></g><g transform="translate(-190,-76) scale(1,1)"><path fill="#ffffff" stroke="none" d="M 473.700439453125 375.5 C 473.700439453125 369.1487248 478.849164253125 364 485.200439453125 364 C 491.551714653125 364 496.700439453125 369.1487248 496.700439453125 375.5 C 496.700439453125 381.8512752 491.551714653125 387 485.200439453125 387 C 478.849164253125 387 473.700439453125 381.8512752 473.700439453125 375.5 Z"/></g><g transform="translate(-190,-76) scale(1,1)"><path fill="none" stroke="#000000" d="M 473.700439453125 375.5 C 473.700439453125 369.1487248 478.849164253125 364 485.200439453125 364 C 491.551714653125 364 496.700439453125 369.1487248 496.700439453125 375.5 C 496.700439453125 381.8512752 491.551714653125 387 485.200439453125 387 C 478.849164253125 387 473.700439453125 381.8512752 473.700439453125 375.5 Z" stroke-miterlimit="10"/></g><g transform="translate(-190,-76) scale(1,1)"><g><path fill="none" stroke="none"/><text fill="#000000" stroke="none" font-family="Arial" font-size="13px" font-style="normal" font-weight="bold" text-decoration="none" x="407.866943359375" y="406.5">RunnableScheduledFuture</text></g></g><g transform="translate(-190,-76) scale(1,1)"><path fill="none" stroke="#000000" d="M 335 224 L 257 135" stroke-miterlimit="10"/></g><g transform="translate(-190,-76) scale(1,1)"><path fill="#FFFFFF" stroke="none" d="M 276.7280524432106 144.73673183352264 L 257 135 L 264.0649305561193 155.83474876827682"/></g><g transform="translate(-190,-76) scale(1,1)"><path fill="none" stroke="#000000" d="M 276.7280524432106 144.73673183352264 L 257 135 L 264.0649305561193 155.83474876827682 L 276.7280524432106 144.73673183352264" stroke-miterlimit="10"/></g><g transform="translate(-190,-76) scale(1,1)"><path fill="none" stroke="#000000" d="M 379 224 L 458 135" stroke-miterlimit="10"/></g><g transform="translate(-190,-76) scale(1,1)"><path fill="#FFFFFF" stroke="none" d="M 450.8035442835406 155.78968554646843 L 458 135 L 438.2108097337391 144.61186499102664"/></g><g transform="translate(-190,-76) scale(1,1)"><path fill="none" stroke="#000000" d="M 450.8035442835406 155.78968554646843 L 458 135 L 438.2108097337391 144.61186499102664 L 450.8035442835406 155.78968554646843" stroke-miterlimit="10"/></g><g transform="translate(-190,-76) scale(1,1)"><path fill="none" stroke="#000000" d="M 578 224 L 501 135" stroke-miterlimit="10"/></g><g transform="translate(-190,-76) scale(1,1)"><path fill="#FFFFFF" stroke="none" d="M 520.6654286587917 144.86260187100618 L 501 135 L 507.93164529644025 155.87947062270348"/></g><g transform="translate(-190,-76) scale(1,1)"><path fill="none" stroke="#000000" d="M 520.6654286587917 144.86260187100618 L 501 135 L 507.93164529644025 155.87947062270348 L 520.6654286587917 144.86260187100618" stroke-miterlimit="10"/></g><g transform="translate(-190,-76) scale(1,1)"><path fill="none" stroke="#000000" d="M 621 224 L 697 135" stroke-miterlimit="10"/></g><g transform="translate(-190,-76) scale(1,1)"><path fill="#FFFFFF" stroke="none" d="M 690.2034180346137 155.92382550079657 L 697 135 L 677.3987119034078 144.9894697033624"/></g><g transform="translate(-190,-76) scale(1,1)"><path fill="none" stroke="#000000" d="M 690.2034180346137 155.92382550079657 L 697 135 L 677.3987119034078 144.9894697033624 L 690.2034180346137 155.92382550079657" stroke-miterlimit="10"/></g><g transform="translate(-190,-76) scale(1,1)"><path fill="none" stroke="#000000" d="M 462 363 L 380 274" stroke-miterlimit="10"/></g><g transform="translate(-190,-76) scale(1,1)"><path fill="#FFFFFF" stroke="none" d="M 399.9639907143706 283.2433259574963 L 380 274 L 387.5806547484134 294.65269167893996"/></g><g transform="translate(-190,-76) scale(1,1)"><path fill="none" stroke="#000000" d="M 399.9639907143706 283.2433259574963 L 380 274 L 387.5806547484134 294.65269167893996 L 399.9639907143706 283.2433259574963" stroke-miterlimit="10"/></g><g transform="translate(-190,-76) scale(1,1)"><path fill="none" stroke="#000000" d="M 506 363 L 578 274" stroke-miterlimit="10"/></g><g transform="translate(-190,-76) scale(1,1)"><path fill="#FFFFFF" stroke="none" d="M 571.7617987006156 295.09703402254354 L 578 274 L 558.6710697385347 284.5067813790624"/></g><g transform="translate(-190,-76) scale(1,1)"><path fill="none" stroke="#000000" d="M 571.7617987006156 295.09703402254354 L 578 274 L 558.6710697385347 284.5067813790624 L 571.7617987006156 295.09703402254354" stroke-miterlimit="10"/></g><g transform="translate(-190,-76) scale(1,1)"><rect fill="#C0C0C0" stroke="none" x="695" y="371" width="79.07177734375" height="44" opacity="0.2"/></g><g transform="translate(-190,-76) scale(1,1)"><rect fill="#ffffff" stroke="none" x="688" y="364" width="79.07177734375" height="44"/></g><g transform="translate(-190,-76) scale(1,1)"><path fill="none" stroke="#000000" d="M 688 364 L 767.07177734375 364 L 767.07177734375 408 L 688 408 L 688 364 Z Z" stroke-miterlimit="10"/></g><g transform="translate(-190,-76) scale(1,1)"><path fill="none" stroke="#000000" d="M 688 389 L 767.07177734375 389" stroke-miterlimit="10"/></g><g transform="translate(-190,-76) scale(1,1)"><path fill="none" stroke="#000000" d="M 688 399 L 767.07177734375 399" stroke-miterlimit="10"/></g><g transform="translate(-190,-76) scale(1,1)"><g><path fill="none" stroke="none"/><text fill="#000000" stroke="none" font-family="Arial" font-size="13px" font-style="normal" font-weight="bold" text-decoration="none" x="694.66455078125" y="383.5">FutureTask</text></g></g><g transform="translate(-190,-76) scale(1,1)"><path fill="none" stroke="#000000" d="M 706 363 L 606.2631578947369 248" stroke-miterlimit="10"/></g><g transform="translate(-190,-76) scale(1,1)"><rect fill="#C0C0C0" stroke="none" x="447" y="510" width="341.29345703125" height="44" opacity="0.2"/></g><g transform="translate(-190,-76) scale(1,1)"><rect fill="#ffffff" stroke="none" x="440" y="503" width="341.29345703125" height="44"/></g><g transform="translate(-190,-76) scale(1,1)"><path fill="none" stroke="#000000" d="M 440 503 L 781.29345703125 503 L 781.29345703125 547 L 440 547 L 440 503 Z Z" stroke-miterlimit="10"/></g><g transform="translate(-190,-76) scale(1,1)"><path fill="none" stroke="#000000" d="M 440 528 L 781.29345703125 528" stroke-miterlimit="10"/></g><g transform="translate(-190,-76) scale(1,1)"><path fill="none" stroke="#000000" d="M 440 538 L 781.29345703125 538" stroke-miterlimit="10"/></g><g transform="translate(-190,-76) scale(1,1)"><g><path fill="none" stroke="none"/><text fill="#000000" stroke="none" font-family="Arial" font-size="13px" font-style="normal" font-weight="bold" text-decoration="none" x="455.275146484375" y="522.5">ScheduledThreadPoolExecutor.ScheduledFutureTask</text></g></g><g transform="translate(-190,-76) scale(1,1)"><path fill="none" stroke="#000000" d="M 589 502 L 492.2631578947368 387" stroke-miterlimit="10"/></g><g transform="translate(-190,-76) scale(1,1)"><path fill="none" stroke="#000000" d="M 629 502 L 708 409" stroke-miterlimit="10"/></g><g transform="translate(-190,-76) scale(1,1)"><path fill="#FFFFFF" stroke="none" d="M 701.2576512612275 429.9413641743983 L 708 409 L 688.4246588706753 419.04022010070344"/></g><g transform="translate(-190,-76) scale(1,1)"><path fill="none" stroke="#000000" d="M 701.2576512612275 429.9413641743983 L 708 409 L 688.4246588706753 419.04022010070344 L 701.2576512612275 429.9413641743983" stroke-miterlimit="10"/></g></g></svg>