<svg version="1.1" xmlns="http://www.w3.org/2000/svg" xmlns:xlink="http://www.w3.org/1999/xlink" width="810.75537109375" height="572"><defs/><g><g transform="translate(-62,-102) scale(1,1)"><path fill="#C0C0C0" stroke="none" d="M 591.891357421875 130.5 C 591.891357421875 124.1487248 597.040082221875 119 603.391357421875 119 C 609.742632621875 119 614.891357421875 124.1487248 614.891357421875 130.5 C 614.891357421875 136.8512752 609.742632621875 142 603.391357421875 142 C 597.040082221875 142 591.891357421875 136.8512752 591.891357421875 130.5 Z" opacity="0.2"/></g><g transform="translate(-62,-102) scale(1,1)"><path fill="#ffffff" stroke="none" d="M 584.891357421875 123.5 C 584.891357421875 117.1487248 590.040082221875 112 596.391357421875 112 C 602.742632621875 112 607.891357421875 117.1487248 607.891357421875 123.5 C 607.891357421875 129.8512752 602.742632621875 135 596.391357421875 135 C 590.040082221875 135 584.891357421875 129.8512752 584.891357421875 123.5 Z"/></g><g transform="translate(-62,-102) scale(1,1)"><path fill="none" stroke="#000000" d="M 584.891357421875 123.5 C 584.891357421875 117.1487248 590.040082221875 112 596.391357421875 112 C 602.742632621875 112 607.891357421875 117.1487248 607.891357421875 123.5 C 607.891357421875 129.8512752 602.742632621875 135 596.391357421875 135 C 590.040082221875 135 584.891357421875 129.8512752 584.891357421875 123.5 Z" stroke-miterlimit="10"/></g><g transform="translate(-62,-102) scale(1,1)"><g><path fill="none" stroke="none"/><text fill="#000000" stroke="none" font-family="Arial" font-size="13px" font-style="normal" font-weight="bold" text-decoration="none" x="558.095947265625" y="154.5">AttributeView</text></g></g><g transform="translate(-62,-102) scale(1,1)"><path fill="#C0C0C0" stroke="none" d="M 477.088623046875 248.5 C 477.088623046875 242.1487248 482.237347846875 237 488.588623046875 237 C 494.939898246875 237 500.088623046875 242.1487248 500.088623046875 248.5 C 500.088623046875 254.8512752 494.939898246875 260 488.588623046875 260 C 482.237347846875 260 477.088623046875 254.8512752 477.088623046875 248.5 Z" opacity="0.2"/></g><g transform="translate(-62,-102) scale(1,1)"><path fill="#ffffff" stroke="none" d="M 470.088623046875 241.5 C 470.088623046875 235.1487248 475.237347846875 230 481.588623046875 230 C 487.939898246875 230 493.088623046875 235.1487248 493.088623046875 241.5 C 493.088623046875 247.8512752 487.939898246875 253 481.588623046875 253 C 475.237347846875 253 470.088623046875 247.8512752 470.088623046875 241.5 Z"/></g><g transform="translate(-62,-102) scale(1,1)"><path fill="none" stroke="#000000" d="M 470.088623046875 241.5 C 470.088623046875 235.1487248 475.237347846875 230 481.588623046875 230 C 487.939898246875 230 493.088623046875 235.1487248 493.088623046875 241.5 C 493.088623046875 247.8512752 487.939898246875 253 481.588623046875 253 C 475.237347846875 253 470.088623046875 247.8512752 470.088623046875 241.5 Z" stroke-miterlimit="10"/></g><g transform="translate(-62,-102) scale(1,1)"><g><path fill="none" stroke="none"/><text fill="#000000" stroke="none" font-family="Arial" font-size="13px" font-style="normal" font-weight="bold" text-decoration="none" x="432.819580078125" y="272.5">FileAttributeView</text></g></g><g transform="translate(-62,-102) scale(1,1)"><path fill="#C0C0C0" stroke="none" d="M 723.70361328125 248.5 C 723.70361328125 242.1487248 728.85233808125 237 735.20361328125 237 C 741.55488848125 237 746.70361328125 242.1487248 746.70361328125 248.5 C 746.70361328125 254.8512752 741.55488848125 260 735.20361328125 260 C 728.85233808125 260 723.70361328125 254.8512752 723.70361328125 248.5 Z" opacity="0.2"/></g><g transform="translate(-62,-102) scale(1,1)"><path fill="#ffffff" stroke="none" d="M 716.70361328125 241.5 C 716.70361328125 235.1487248 721.85233808125 230 728.20361328125 230 C 734.55488848125 230 739.70361328125 235.1487248 739.70361328125 241.5 C 739.70361328125 247.8512752 734.55488848125 253 728.20361328125 253 C 721.85233808125 253 716.70361328125 247.8512752 716.70361328125 241.5 Z"/></g><g transform="translate(-62,-102) scale(1,1)"><path fill="none" stroke="#000000" d="M 716.70361328125 241.5 C 716.70361328125 235.1487248 721.85233808125 230 728.20361328125 230 C 734.55488848125 230 739.70361328125 235.1487248 739.70361328125 241.5 C 739.70361328125 247.8512752 734.55488848125 253 728.20361328125 253 C 721.85233808125 253 716.70361328125 247.8512752 716.70361328125 241.5 Z" stroke-miterlimit="10"/></g><g transform="translate(-62,-102) scale(1,1)"><g><path fill="none" stroke="none"/><text fill="#000000" stroke="none" font-family="Arial" font-size="13px" font-style="normal" font-weight="bold" text-decoration="none" x="663.898681640625" y="272.5">FileStoreAttributeView</text></g></g><g transform="translate(-62,-102) scale(1,1)"><path fill="#C0C0C0" stroke="none" d="M 582.43359375 352.5 C 582.43359375 346.1487248 587.58231855 341 593.93359375 341 C 600.28486895 341 605.43359375 346.1487248 605.43359375 352.5 C 605.43359375 358.8512752 600.28486895 364 593.93359375 364 C 587.58231855 364 582.43359375 358.8512752 582.43359375 352.5 Z" opacity="0.2"/></g><g transform="translate(-62,-102) scale(1,1)"><path fill="#ffffff" stroke="none" d="M 575.43359375 345.5 C 575.43359375 339.1487248 580.58231855 334 586.93359375 334 C 593.28486895 334 598.43359375 339.1487248 598.43359375 345.5 C 598.43359375 351.8512752 593.28486895 357 586.93359375 357 C 580.58231855 357 575.43359375 351.8512752 575.43359375 345.5 Z"/></g><g transform="translate(-62,-102) scale(1,1)"><path fill="none" stroke="#000000" d="M 575.43359375 345.5 C 575.43359375 339.1487248 580.58231855 334 586.93359375 334 C 593.28486895 334 598.43359375 339.1487248 598.43359375 345.5 C 598.43359375 351.8512752 593.28486895 357 586.93359375 357 C 580.58231855 357 575.43359375 351.8512752 575.43359375 345.5 Z" stroke-miterlimit="10"/></g><g transform="translate(-62,-102) scale(1,1)"><g><path fill="none" stroke="none"/><text fill="#000000" stroke="none" font-family="Arial" font-size="13px" font-style="normal" font-weight="bold" text-decoration="none" x="522.27001953125" y="376.5">BasicFileAttributeView</text></g></g><g transform="translate(-62,-102) scale(1,1)"><path fill="#C0C0C0" stroke="none" d="M 401.3154296875 352.5 C 401.3154296875 346.1487248 406.4641544875 341 412.8154296875 341 C 419.1667048875 341 424.3154296875 346.1487248 424.3154296875 352.5 C 424.3154296875 358.8512752 419.1667048875 364 412.8154296875 364 C 406.4641544875 364 401.3154296875 358.8512752 401.3154296875 352.5 Z" opacity="0.2"/></g><g transform="translate(-62,-102) scale(1,1)"><path fill="#ffffff" stroke="none" d="M 394.3154296875 345.5 C 394.3154296875 339.1487248 399.4641544875 334 405.8154296875 334 C 412.1667048875 334 417.3154296875 339.1487248 417.3154296875 345.5 C 417.3154296875 351.8512752 412.1667048875 357 405.8154296875 357 C 399.4641544875 357 394.3154296875 351.8512752 394.3154296875 345.5 Z"/></g><g transform="translate(-62,-102) scale(1,1)"><path fill="none" stroke="#000000" d="M 394.3154296875 345.5 C 394.3154296875 339.1487248 399.4641544875 334 405.8154296875 334 C 412.1667048875 334 417.3154296875 339.1487248 417.3154296875 345.5 C 417.3154296875 351.8512752 412.1667048875 357 405.8154296875 357 C 399.4641544875 357 394.3154296875 351.8512752 394.3154296875 345.5 Z" stroke-miterlimit="10"/></g><g transform="translate(-62,-102) scale(1,1)"><g><path fill="none" stroke="none"/><text fill="#000000" stroke="none" font-family="Arial" font-size="13px" font-style="normal" font-weight="bold" text-decoration="none" x="337.90185546875" y="376.5">FileOwnerAttributeView</text></g></g><g transform="translate(-62,-102) scale(1,1)"><path fill="#C0C0C0" stroke="none" d="M 762.377685546875 352.5 C 762.377685546875 346.1487248 767.526410346875 341 773.877685546875 341 C 780.228960746875 341 785.377685546875 346.1487248 785.377685546875 352.5 C 785.377685546875 358.8512752 780.228960746875 364 773.877685546875 364 C 767.526410346875 364 762.377685546875 358.8512752 762.377685546875 352.5 Z" opacity="0.2"/></g><g transform="translate(-62,-102) scale(1,1)"><path fill="#ffffff" stroke="none" d="M 755.377685546875 345.5 C 755.377685546875 339.1487248 760.526410346875 334 766.877685546875 334 C 773.228960746875 334 778.377685546875 339.1487248 778.377685546875 345.5 C 778.377685546875 351.8512752 773.228960746875 357 766.877685546875 357 C 760.526410346875 357 755.377685546875 351.8512752 755.377685546875 345.5 Z"/></g><g transform="translate(-62,-102) scale(1,1)"><path fill="none" stroke="#000000" d="M 755.377685546875 345.5 C 755.377685546875 339.1487248 760.526410346875 334 766.877685546875 334 C 773.228960746875 334 778.377685546875 339.1487248 778.377685546875 345.5 C 778.377685546875 351.8512752 773.228960746875 357 766.877685546875 357 C 760.526410346875 357 755.377685546875 351.8512752 755.377685546875 345.5 Z" stroke-miterlimit="10"/></g><g transform="translate(-62,-102) scale(1,1)"><g><path fill="none" stroke="none"/><text fill="#000000" stroke="none" font-family="Arial" font-size="13px" font-style="normal" font-weight="bold" text-decoration="none" x="681.98095703125" y="376.5">UserDefinedFileAttributeView</text></g></g><g transform="translate(-62,-102) scale(1,1)"><path fill="#C0C0C0" stroke="none" d="M 671.3681640625 453.5 C 671.3681640625 447.1487248 676.5168888625 442 682.8681640625 442 C 689.2194392625 442 694.3681640625 447.1487248 694.3681640625 453.5 C 694.3681640625 459.8512752 689.2194392625 465 682.8681640625 465 C 676.5168888625 465 671.3681640625 459.8512752 671.3681640625 453.5 Z" opacity="0.2"/></g><g transform="translate(-62,-102) scale(1,1)"><path fill="#ffffff" stroke="none" d="M 664.3681640625 446.5 C 664.3681640625 440.1487248 669.5168888625 435 675.8681640625 435 C 682.2194392625 435 687.3681640625 440.1487248 687.3681640625 446.5 C 687.3681640625 452.8512752 682.2194392625 458 675.8681640625 458 C 669.5168888625 458 664.3681640625 452.8512752 664.3681640625 446.5 Z"/></g><g transform="translate(-62,-102) scale(1,1)"><path fill="none" stroke="#000000" d="M 664.3681640625 446.5 C 664.3681640625 440.1487248 669.5168888625 435 675.8681640625 435 C 682.2194392625 435 687.3681640625 440.1487248 687.3681640625 446.5 C 687.3681640625 452.8512752 682.2194392625 458 675.8681640625 458 C 669.5168888625 458 664.3681640625 452.8512752 664.3681640625 446.5 Z" stroke-miterlimit="10"/></g><g transform="translate(-62,-102) scale(1,1)"><g><path fill="none" stroke="none"/><text fill="#000000" stroke="none" font-family="Arial" font-size="13px" font-style="normal" font-weight="bold" text-decoration="none" x="615.5400390625" y="477.5">DosFileAttributeView</text></g></g><g transform="translate(-62,-102) scale(1,1)"><path fill="#C0C0C0" stroke="none" d="M 498.430419921875 453.5 C 498.430419921875 447.1487248 503.579144721875 442 509.930419921875 442 C 516.281695121875 442 521.430419921875 447.1487248 521.430419921875 453.5 C 521.430419921875 459.8512752 516.281695121875 465 509.930419921875 465 C 503.579144721875 465 498.430419921875 459.8512752 498.430419921875 453.5 Z" opacity="0.2"/></g><g transform="translate(-62,-102) scale(1,1)"><path fill="#ffffff" stroke="none" d="M 491.430419921875 446.5 C 491.430419921875 440.1487248 496.579144721875 435 502.930419921875 435 C 509.281695121875 435 514.430419921875 440.1487248 514.430419921875 446.5 C 514.430419921875 452.8512752 509.281695121875 458 502.930419921875 458 C 496.579144721875 458 491.430419921875 452.8512752 491.430419921875 446.5 Z"/></g><g transform="translate(-62,-102) scale(1,1)"><path fill="none" stroke="#000000" d="M 491.430419921875 446.5 C 491.430419921875 440.1487248 496.579144721875 435 502.930419921875 435 C 509.281695121875 435 514.430419921875 440.1487248 514.430419921875 446.5 C 514.430419921875 452.8512752 509.281695121875 458 502.930419921875 458 C 496.579144721875 458 491.430419921875 452.8512752 491.430419921875 446.5 Z" stroke-miterlimit="10"/></g><g transform="translate(-62,-102) scale(1,1)"><g><path fill="none" stroke="none"/><text fill="#000000" stroke="none" font-family="Arial" font-size="13px" font-style="normal" font-weight="bold" text-decoration="none" x="438.266845703125" y="477.5">PosixFileAttributeView</text></g></g><g transform="translate(-62,-102) scale(1,1)"><path fill="none" stroke="#000000" d="M 505 229 L 572 161" stroke-miterlimit="10"/></g><g transform="translate(-62,-102) scale(1,1)"><path fill="#FFFFFF" stroke="none" d="M 563.7317494690443 181.3871536305918 L 572 161 L 551.7375693997286 169.56935856229538"/></g><g transform="translate(-62,-102) scale(1,1)"><path fill="none" stroke="#000000" d="M 563.7317494690443 181.3871536305918 L 572 161 L 551.7375693997286 169.56935856229538 L 563.7317494690443 181.3871536305918" stroke-miterlimit="10"/></g><g transform="translate(-62,-102) scale(1,1)"><path fill="none" stroke="#000000" d="M 700 229 L 624 161" stroke-miterlimit="10"/></g><g transform="translate(-62,-102) scale(1,1)"><path fill="#FFFFFF" stroke="none" d="M 644.7610599207654 168.27862562345288 L 624 161 L 633.5335207185318 180.82705179065522"/></g><g transform="translate(-62,-102) scale(1,1)"><path fill="none" stroke="#000000" d="M 644.7610599207654 168.27862562345288 L 624 161 L 633.5335207185318 180.82705179065522 L 644.7610599207654 168.27862562345288" stroke-miterlimit="10"/></g><g transform="translate(-62,-102) scale(1,1)"><path fill="none" stroke="#000000" d="M 423 333 L 463 279" stroke-miterlimit="10"/></g><g transform="translate(-62,-102) scale(1,1)"><path fill="#FFFFFF" stroke="none" d="M 457.66696842009935 300.34382285739326 L 463 279 L 444.13661532666305 290.3213390844775"/></g><g transform="translate(-62,-102) scale(1,1)"><path fill="none" stroke="#000000" d="M 457.66696842009935 300.34382285739326 L 463 279 L 444.13661532666305 290.3213390844775 L 457.66696842009935 300.34382285739326" stroke-miterlimit="10"/></g><g transform="translate(-62,-102) scale(1,1)"><path fill="none" stroke="#000000" d="M 561 333 L 506 279" stroke-miterlimit="10"/></g><g transform="translate(-62,-102) scale(1,1)"><path fill="#FFFFFF" stroke="none" d="M 526.4017300048238 287.23221797635796 L 506 279 L 514.6051444790595 299.2472587896365"/></g><g transform="translate(-62,-102) scale(1,1)"><path fill="none" stroke="#000000" d="M 526.4017300048238 287.23221797635796 L 506 279 L 514.6051444790595 299.2472587896365 L 526.4017300048238 287.23221797635796" stroke-miterlimit="10"/></g><g transform="translate(-62,-102) scale(1,1)"><path fill="none" stroke="#000000" d="M 697 333 L 540 276" stroke-miterlimit="10"/></g><g transform="translate(-62,-102) scale(1,1)"><path fill="#FFFFFF" stroke="none" d="M 561.9782799290507 275.02265085036714 L 540 276 L 556.2320809879402 290.84990056535565"/></g><g transform="translate(-62,-102) scale(1,1)"><path fill="none" stroke="#000000" d="M 561.9782799290507 275.02265085036714 L 540 276 L 556.2320809879402 290.84990056535565 L 561.9782799290507 275.02265085036714" stroke-miterlimit="10"/></g><g transform="translate(-62,-102) scale(1,1)"><path fill="none" stroke="#000000" d="M 653 434 L 608 383" stroke-miterlimit="10"/></g><g transform="translate(-62,-102) scale(1,1)"><path fill="#FFFFFF" stroke="none" d="M 627.7606026855499 392.6705005818644 L 608 383 L 615.1347796203806 403.8109326981902"/></g><g transform="translate(-62,-102) scale(1,1)"><path fill="none" stroke="#000000" d="M 627.7606026855499 392.6705005818644 L 608 383 L 615.1347796203806 403.8109326981902 L 627.7606026855499 392.6705005818644" stroke-miterlimit="10"/></g><g transform="translate(-62,-102) scale(1,1)"><path fill="none" stroke="#000000" d="M 523 434 L 565 383" stroke-miterlimit="10"/></g><g transform="translate(-62,-102) scale(1,1)"><path fill="#FFFFFF" stroke="none" d="M 558.5779358355495 404.04179393178447 L 565 383 L 545.5801197026072 393.33771005759667"/></g><g transform="translate(-62,-102) scale(1,1)"><path fill="none" stroke="#000000" d="M 558.5779358355495 404.04179393178447 L 565 383 L 545.5801197026072 393.33771005759667 L 558.5779358355495 404.04179393178447" stroke-miterlimit="10"/></g><g transform="translate(-62,-102) scale(1,1)"><path fill="#C0C0C0" stroke="none" d="M 327.20361328125 453.5 C 327.20361328125 447.1487248 332.35233808125 442 338.70361328125 442 C 345.05488848125 442 350.20361328125 447.1487248 350.20361328125 453.5 C 350.20361328125 459.8512752 345.05488848125 465 338.70361328125 465 C 332.35233808125 465 327.20361328125 459.8512752 327.20361328125 453.5 Z" opacity="0.2"/></g><g transform="translate(-62,-102) scale(1,1)"><path fill="#ffffff" stroke="none" d="M 320.20361328125 446.5 C 320.20361328125 440.1487248 325.35233808125 435 331.70361328125 435 C 338.05488848125 435 343.20361328125 440.1487248 343.20361328125 446.5 C 343.20361328125 452.8512752 338.05488848125 458 331.70361328125 458 C 325.35233808125 458 320.20361328125 452.8512752 320.20361328125 446.5 Z"/></g><g transform="translate(-62,-102) scale(1,1)"><path fill="none" stroke="#000000" d="M 320.20361328125 446.5 C 320.20361328125 440.1487248 325.35233808125 435 331.70361328125 435 C 338.05488848125 435 343.20361328125 440.1487248 343.20361328125 446.5 C 343.20361328125 452.8512752 338.05488848125 458 331.70361328125 458 C 325.35233808125 458 320.20361328125 452.8512752 320.20361328125 446.5 Z" stroke-miterlimit="10"/></g><g transform="translate(-62,-102) scale(1,1)"><g><path fill="none" stroke="none"/><text fill="#000000" stroke="none" font-family="Arial" font-size="13px" font-style="normal" font-weight="bold" text-decoration="none" x="273.905029296875" y="477.5">AclFileAttributeView</text></g></g><g transform="translate(-62,-102) scale(1,1)"><path fill="none" stroke="#000000" d="M 349 434 L 387 383" stroke-miterlimit="10"/></g><g transform="translate(-62,-102) scale(1,1)"><path fill="#FFFFFF" stroke="none" d="M 381.60706317330323 404.3287653740965 L 387 383 L 368.1049031689716 394.2683324296925"/></g><g transform="translate(-62,-102) scale(1,1)"><path fill="none" stroke="#000000" d="M 381.60706317330323 404.3287653740965 L 387 383 L 368.1049031689716 394.2683324296925 L 381.60706317330323 404.3287653740965" stroke-miterlimit="10"/></g><g transform="translate(-62,-102) scale(1,1)"><path fill="none" stroke="#000000" d="M 478 434 L 429 383" stroke-miterlimit="10"/></g><g transform="translate(-62,-102) scale(1,1)"><path fill="#FFFFFF" stroke="none" d="M 449.15293882022183 391.82377792719177 L 429 383 L 437.010926492615 403.4896329086179"/></g><g transform="translate(-62,-102) scale(1,1)"><path fill="none" stroke="#000000" d="M 449.15293882022183 391.82377792719177 L 429 383 L 437.010926492615 403.4896329086179 L 449.15293882022183 391.82377792719177" stroke-miterlimit="10"/></g><g transform="translate(-62,-102) scale(1,1)"><path fill="#C0C0C0" stroke="none" d="M 582.236328125 530.5 C 582.236328125 524.1487248 587.385052925 519 593.736328125 519 C 600.087603325 519 605.236328125 524.1487248 605.236328125 530.5 C 605.236328125 536.8512752 600.087603325 542 593.736328125 542 C 587.385052925 542 582.236328125 536.8512752 582.236328125 530.5 Z" opacity="0.2"/></g><g transform="translate(-62,-102) scale(1,1)"><path fill="#ffffff" stroke="none" d="M 575.236328125 523.5 C 575.236328125 517.1487248 580.385052925 512 586.736328125 512 C 593.087603325 512 598.236328125 517.1487248 598.236328125 523.5 C 598.236328125 529.8512752 593.087603325 535 586.736328125 535 C 580.385052925 535 575.236328125 529.8512752 575.236328125 523.5 Z"/></g><g transform="translate(-62,-102) scale(1,1)"><path fill="none" stroke="#000000" d="M 575.236328125 523.5 C 575.236328125 517.1487248 580.385052925 512 586.736328125 512 C 593.087603325 512 598.236328125 517.1487248 598.236328125 523.5 C 598.236328125 529.8512752 593.087603325 535 586.736328125 535 C 580.385052925 535 575.236328125 529.8512752 575.236328125 523.5 Z" stroke-miterlimit="10"/></g><g transform="translate(-62,-102) scale(1,1)"><g><path fill="none" stroke="none"/><text fill="#000000" stroke="none" font-family="Arial" font-size="13px" font-style="normal" font-weight="bold" text-decoration="none" x="532.911376953125" y="554.5">BasicFileAttributes</text></g></g><g transform="translate(-62,-102) scale(1,1)"><path fill="#C0C0C0" stroke="none" d="M 671.1708984375 634.5 C 671.1708984375 628.1487248 676.3196232375 623 682.6708984375 623 C 689.0221736375 623 694.1708984375 628.1487248 694.1708984375 634.5 C 694.1708984375 640.8512752 689.0221736375 646 682.6708984375 646 C 676.3196232375 646 671.1708984375 640.8512752 671.1708984375 634.5 Z" opacity="0.2"/></g><g transform="translate(-62,-102) scale(1,1)"><path fill="#ffffff" stroke="none" d="M 664.1708984375 627.5 C 664.1708984375 621.1487248 669.3196232375 616 675.6708984375 616 C 682.0221736375 616 687.1708984375 621.1487248 687.1708984375 627.5 C 687.1708984375 633.8512752 682.0221736375 639 675.6708984375 639 C 669.3196232375 639 664.1708984375 633.8512752 664.1708984375 627.5 Z"/></g><g transform="translate(-62,-102) scale(1,1)"><path fill="none" stroke="#000000" d="M 664.1708984375 627.5 C 664.1708984375 621.1487248 669.3196232375 616 675.6708984375 616 C 682.0221736375 616 687.1708984375 621.1487248 687.1708984375 627.5 C 687.1708984375 633.8512752 682.0221736375 639 675.6708984375 639 C 669.3196232375 639 664.1708984375 633.8512752 664.1708984375 627.5 Z" stroke-miterlimit="10"/></g><g transform="translate(-62,-102) scale(1,1)"><g><path fill="none" stroke="none"/><text fill="#000000" stroke="none" font-family="Arial" font-size="13px" font-style="normal" font-weight="bold" text-decoration="none" x="626.181396484375" y="658.5">DosFileAttributes</text></g></g><g transform="translate(-62,-102) scale(1,1)"><path fill="#C0C0C0" stroke="none" d="M 498.233154296875 634.5 C 498.233154296875 628.1487248 503.381879096875 623 509.733154296875 623 C 516.084429496875 623 521.233154296875 628.1487248 521.233154296875 634.5 C 521.233154296875 640.8512752 516.084429496875 646 509.733154296875 646 C 503.381879096875 646 498.233154296875 640.8512752 498.233154296875 634.5 Z" opacity="0.2"/></g><g transform="translate(-62,-102) scale(1,1)"><path fill="#ffffff" stroke="none" d="M 491.233154296875 627.5 C 491.233154296875 621.1487248 496.381879096875 616 502.733154296875 616 C 509.084429496875 616 514.233154296875 621.1487248 514.233154296875 627.5 C 514.233154296875 633.8512752 509.084429496875 639 502.733154296875 639 C 496.381879096875 639 491.233154296875 633.8512752 491.233154296875 627.5 Z"/></g><g transform="translate(-62,-102) scale(1,1)"><path fill="none" stroke="#000000" d="M 491.233154296875 627.5 C 491.233154296875 621.1487248 496.381879096875 616 502.733154296875 616 C 509.084429496875 616 514.233154296875 621.1487248 514.233154296875 627.5 C 514.233154296875 633.8512752 509.084429496875 639 502.733154296875 639 C 496.381879096875 639 491.233154296875 633.8512752 491.233154296875 627.5 Z" stroke-miterlimit="10"/></g><g transform="translate(-62,-102) scale(1,1)"><g><path fill="none" stroke="none"/><text fill="#000000" stroke="none" font-family="Arial" font-size="13px" font-style="normal" font-weight="bold" text-decoration="none" x="448.908203125" y="658.5">PosixFileAttributes</text></g></g><g transform="translate(-62,-102) scale(1,1)"><path fill="none" stroke="#000000" d="M 654 615 L 607 561" stroke-miterlimit="10"/></g><g transform="translate(-62,-102) scale(1,1)"><path fill="#FFFFFF" stroke="none" d="M 626.6946078322306 570.8042043193029 L 607 561 L 613.9935713926624 581.8588101092976"/></g><g transform="translate(-62,-102) scale(1,1)"><path fill="none" stroke="#000000" d="M 626.6946078322306 570.8042043193029 L 607 561 L 613.9935713926624 581.8588101092976 L 626.6946078322306 570.8042043193029" stroke-miterlimit="10"/></g><g transform="translate(-62,-102) scale(1,1)"><path fill="none" stroke="#000000" d="M 522 615 L 566 561" stroke-miterlimit="10"/></g><g transform="translate(-62,-102) scale(1,1)"><path fill="#FFFFFF" stroke="none" d="M 559.6877572352042 582.0749991999593 L 566 561 L 546.6342954887249 571.4388451843095"/></g><g transform="translate(-62,-102) scale(1,1)"><path fill="none" stroke="#000000" d="M 559.6877572352042 582.0749991999593 L 566 561 L 546.6342954887249 571.4388451843095 L 559.6877572352042 582.0749991999593" stroke-miterlimit="10"/></g><g transform="translate(-62,-102) scale(1,1)"><path fill="none" stroke="#000000" d="M 586 383 L 586 511" stroke-miterlimit="10"/></g><g transform="translate(-62,-102) scale(1,1)"><path fill="none" stroke="#000000" d="M 581.790482243984 500.83732514237585 L 586 511 L 590.209517756016 500.83732514237585" stroke-miterlimit="10"/></g><g transform="translate(-62,-102) scale(1,1)"><path fill="none" stroke="#000000" d="M 502 484 L 502 615" stroke-miterlimit="10"/></g><g transform="translate(-62,-102) scale(1,1)"><path fill="none" stroke="#000000" d="M 497.790482243984 604.8373251423759 L 502 615 L 506.209517756016 604.8373251423759" stroke-miterlimit="10"/></g><g transform="translate(-62,-102) scale(1,1)"><path fill="none" stroke="#000000" d="M 675 484 L 675 615" stroke-miterlimit="10"/></g><g transform="translate(-62,-102) scale(1,1)"><path fill="none" stroke="#000000" d="M 670.790482243984 604.8373251423759 L 675 615 L 679.209517756016 604.8373251423759" stroke-miterlimit="10"/></g><g transform="translate(-62,-102) scale(1,1)"><path fill="#C0C0C0" stroke="none" d="M 276.646728515625 248.5 C 276.646728515625 242.1487248 281.795453315625 237 288.146728515625 237 C 294.498003715625 237 299.646728515625 242.1487248 299.646728515625 248.5 C 299.646728515625 254.8512752 294.498003715625 260 288.146728515625 260 C 281.795453315625 260 276.646728515625 254.8512752 276.646728515625 248.5 Z" opacity="0.2"/></g><g transform="translate(-62,-102) scale(1,1)"><path fill="#ffffff" stroke="none" d="M 269.646728515625 241.5 C 269.646728515625 235.1487248 274.795453315625 230 281.146728515625 230 C 287.498003715625 230 292.646728515625 235.1487248 292.646728515625 241.5 C 292.646728515625 247.8512752 287.498003715625 253 281.146728515625 253 C 274.795453315625 253 269.646728515625 247.8512752 269.646728515625 241.5 Z"/></g><g transform="translate(-62,-102) scale(1,1)"><path fill="none" stroke="#000000" d="M 269.646728515625 241.5 C 269.646728515625 235.1487248 274.795453315625 230 281.146728515625 230 C 287.498003715625 230 292.646728515625 235.1487248 292.646728515625 241.5 C 292.646728515625 247.8512752 287.498003715625 253 281.146728515625 253 C 274.795453315625 253 269.646728515625 247.8512752 269.646728515625 241.5 Z" stroke-miterlimit="10"/></g><g transform="translate(-62,-102) scale(1,1)"><g><path fill="none" stroke="none"/><text fill="#000000" stroke="none" font-family="Arial" font-size="13px" font-style="normal" font-weight="bold" text-decoration="none" x="218.2890625" y="272.5">java.security.Principal</text></g></g><g transform="translate(-62,-102) scale(1,1)"><path fill="#C0C0C0" stroke="none" d="M 193.9072265625 352.5 C 193.9072265625 346.1487248 199.0559513625 341 205.4072265625 341 C 211.7585017625 341 216.9072265625 346.1487248 216.9072265625 352.5 C 216.9072265625 358.8512752 211.7585017625 364 205.4072265625 364 C 199.0559513625 364 193.9072265625 358.8512752 193.9072265625 352.5 Z" opacity="0.2"/></g><g transform="translate(-62,-102) scale(1,1)"><path fill="#ffffff" stroke="none" d="M 186.9072265625 345.5 C 186.9072265625 339.1487248 192.0559513625 334 198.4072265625 334 C 204.7585017625 334 209.9072265625 339.1487248 209.9072265625 345.5 C 209.9072265625 351.8512752 204.7585017625 357 198.4072265625 357 C 192.0559513625 357 186.9072265625 351.8512752 186.9072265625 345.5 Z"/></g><g transform="translate(-62,-102) scale(1,1)"><path fill="none" stroke="#000000" d="M 186.9072265625 345.5 C 186.9072265625 339.1487248 192.0559513625 334 198.4072265625 334 C 204.7585017625 334 209.9072265625 339.1487248 209.9072265625 345.5 C 209.9072265625 351.8512752 204.7585017625 357 198.4072265625 357 C 192.0559513625 357 186.9072265625 351.8512752 186.9072265625 345.5 Z" stroke-miterlimit="10"/></g><g transform="translate(-62,-102) scale(1,1)"><g><path fill="none" stroke="none"/><text fill="#000000" stroke="none" font-family="Arial" font-size="13px" font-style="normal" font-weight="bold" text-decoration="none" x="159.75634765625" y="376.5">UserPrincipal</text></g></g><g transform="translate(-62,-102) scale(1,1)"><path fill="#C0C0C0" stroke="none" d="M 118.950439453125 453.5 C 118.950439453125 447.1487248 124.099164253125 442 130.450439453125 442 C 136.801714653125 442 141.950439453125 447.1487248 141.950439453125 453.5 C 141.950439453125 459.8512752 136.801714653125 465 130.450439453125 465 C 124.099164253125 465 118.950439453125 459.8512752 118.950439453125 453.5 Z" opacity="0.2"/></g><g transform="translate(-62,-102) scale(1,1)"><path fill="#ffffff" stroke="none" d="M 111.950439453125 446.5 C 111.950439453125 440.1487248 117.099164253125 435 123.450439453125 435 C 129.801714653125 435 134.950439453125 440.1487248 134.950439453125 446.5 C 134.950439453125 452.8512752 129.801714653125 458 123.450439453125 458 C 117.099164253125 458 111.950439453125 452.8512752 111.950439453125 446.5 Z"/></g><g transform="translate(-62,-102) scale(1,1)"><path fill="none" stroke="#000000" d="M 111.950439453125 446.5 C 111.950439453125 440.1487248 117.099164253125 435 123.450439453125 435 C 129.801714653125 435 134.950439453125 440.1487248 134.950439453125 446.5 C 134.950439453125 452.8512752 129.801714653125 458 123.450439453125 458 C 117.099164253125 458 111.950439453125 452.8512752 111.950439453125 446.5 Z" stroke-miterlimit="10"/></g><g transform="translate(-62,-102) scale(1,1)"><g><path fill="none" stroke="none"/><text fill="#000000" stroke="none" font-family="Arial" font-size="13px" font-style="normal" font-weight="bold" text-decoration="none" x="80.457763671875" y="477.5">GroupPrincipal</text></g></g><g transform="translate(-62,-102) scale(1,1)"><path fill="none" stroke="#000000" d="M 218 333 L 261 279" stroke-miterlimit="10"/></g><g transform="translate(-62,-102) scale(1,1)"><path fill="#FFFFFF" stroke="none" d="M 254.92483963084373 300.144560210348 L 261 279 L 241.75275099622948 289.65567481611816"/></g><g transform="translate(-62,-102) scale(1,1)"><path fill="none" stroke="#000000" d="M 254.92483963084373 300.144560210348 L 261 279 L 241.75275099622948 289.65567481611816 L 254.92483963084373 300.144560210348" stroke-miterlimit="10"/></g><g transform="translate(-62,-102) scale(1,1)"><path fill="none" stroke="#000000" d="M 142 434 L 179 383" stroke-miterlimit="10"/></g><g transform="translate(-62,-102) scale(1,1)"><path fill="#FFFFFF" stroke="none" d="M 173.8789446410511 404.39567227292895 L 179 383 L 160.24984207662246 394.50789198108856"/></g><g transform="translate(-62,-102) scale(1,1)"><path fill="none" stroke="#000000" d="M 173.8789446410511 404.39567227292895 L 179 383 L 160.24984207662246 394.50789198108856 L 173.8789446410511 404.39567227292895" stroke-miterlimit="10"/></g><g transform="translate(-62,-102) scale(1,1)"><path fill="none" stroke="#000000" d="M 327 358 L 246 358" stroke-miterlimit="10"/></g><g transform="translate(-62,-102) scale(1,1)"><path fill="none" stroke="#000000" d="M 256.16267485762415 353.790482243984 L 246 358 L 256.16267485762415 362.209517756016" stroke-miterlimit="10"/></g><g transform="translate(-62,-102) scale(1,1)"><rect fill="#C0C0C0" stroke="none" x="231" y="551" width="62.4599609375" height="44" opacity="0.2"/></g><g transform="translate(-62,-102) scale(1,1)"><rect fill="#ffffff" stroke="none" x="224" y="544" width="62.4599609375" height="44"/></g><g transform="translate(-62,-102) scale(1,1)"><path fill="none" stroke="#000000" d="M 224 544 L 286.4599609375 544 L 286.4599609375 588 L 224 588 L 224 544 Z Z" stroke-miterlimit="10"/></g><g transform="translate(-62,-102) scale(1,1)"><path fill="none" stroke="#000000" d="M 224 569 L 286.4599609375 569" stroke-miterlimit="10"/></g><g transform="translate(-62,-102) scale(1,1)"><path fill="none" stroke="#000000" d="M 224 579 L 286.4599609375 579" stroke-miterlimit="10"/></g><g transform="translate(-62,-102) scale(1,1)"><g><path fill="none" stroke="none"/><text fill="#000000" stroke="none" font-family="Arial" font-size="13px" font-style="normal" font-weight="bold" text-decoration="none" x="231.029541015625" y="563.5">AclEntry</text></g></g><g transform="translate(-62,-102) scale(1,1)"><path fill="none" stroke="#000000" d="M 313 484 L 271 543" stroke-miterlimit="10"/></g><g transform="translate(-62,-102) scale(1,1)"><path fill="none" stroke="#000000" d="M 273.46430475708013 532.2795894638203 L 271 543 L 280.323001591878 537.1620516174053" stroke-miterlimit="10"/></g></g></svg>