<svg version="1.1" xmlns="http://www.w3.org/2000/svg" xmlns:xlink="http://www.w3.org/1999/xlink" width="562.814453125" height="277"><defs/><g><g transform="translate(-214,-134) scale(1,1)"><rect fill="#C0C0C0" stroke="none" x="655" y="202" width="118.814453125" height="44" opacity="0.2"/></g><g transform="translate(-214,-134) scale(1,1)"><rect fill="#ffffff" stroke="none" x="648" y="195" width="118.814453125" height="44"/></g><g transform="translate(-214,-134) scale(1,1)"><path fill="none" stroke="#000000" d="M 648 195 L 766.814453125 195 L 766.814453125 239 L 648 239 L 648 195 Z Z" stroke-miterlimit="10"/></g><g transform="translate(-214,-134) scale(1,1)"><path fill="none" stroke="#000000" d="M 648 220 L 766.814453125 220" stroke-miterlimit="10"/></g><g transform="translate(-214,-134) scale(1,1)"><path fill="none" stroke="#000000" d="M 648 230 L 766.814453125 230" stroke-miterlimit="10"/></g><g transform="translate(-214,-134) scale(1,1)"><g><path fill="none" stroke="none"/><text fill="#000000" stroke="none" font-family="Arial" font-size="13px" font-style="normal" font-weight="bold" text-decoration="none" x="656.4609375" y="214.5">java.nio.file.Paths</text></g></g><g transform="translate(-214,-134) scale(1,1)"><rect fill="#C0C0C0" stroke="none" x="471" y="151" width="113.0380859375" height="44" opacity="0.2"/></g><g transform="translate(-214,-134) scale(1,1)"><rect fill="#ffffff" stroke="none" x="464" y="144" width="113.0380859375" height="44"/></g><g transform="translate(-214,-134) scale(1,1)"><path fill="none" stroke="#000000" d="M 464 144 L 577.0380859375 144 L 577.0380859375 188 L 464 188 L 464 144 Z Z" stroke-miterlimit="10"/></g><g transform="translate(-214,-134) scale(1,1)"><path fill="none" stroke="#000000" d="M 464 169 L 577.0380859375 169" stroke-miterlimit="10"/></g><g transform="translate(-214,-134) scale(1,1)"><path fill="none" stroke="#000000" d="M 464 179 L 577.0380859375 179" stroke-miterlimit="10"/></g><g transform="translate(-214,-134) scale(1,1)"><g><path fill="none" stroke="none"/><text fill="#000000" stroke="none" font-family="Arial" font-size="13px" font-style="normal" font-weight="bold" text-decoration="none" x="472.470458984375" y="163.5">java.nio.file.Files</text></g></g><g transform="translate(-214,-134) scale(1,1)"><rect fill="#C0C0C0" stroke="none" x="231" y="202" width="159.287109375" height="44" opacity="0.2"/></g><g transform="translate(-214,-134) scale(1,1)"><rect fill="#ffffff" stroke="none" x="224" y="195" width="159.287109375" height="44"/></g><g transform="translate(-214,-134) scale(1,1)"><path fill="none" stroke="#000000" d="M 224 195 L 383.287109375 195 L 383.287109375 239 L 224 239 L 224 195 Z Z" stroke-miterlimit="10"/></g><g transform="translate(-214,-134) scale(1,1)"><path fill="none" stroke="#000000" d="M 224 220 L 383.287109375 220" stroke-miterlimit="10"/></g><g transform="translate(-214,-134) scale(1,1)"><path fill="none" stroke="#000000" d="M 224 230 L 383.287109375 230" stroke-miterlimit="10"/></g><g transform="translate(-214,-134) scale(1,1)"><g><path fill="none" stroke="none"/><text fill="#000000" stroke="none" font-family="Arial" font-size="13px" font-style="normal" font-weight="bold" text-decoration="none" x="233.924072265625" y="214.5">java.nio.file.FileSystems</text></g></g><g transform="translate(-214,-134) scale(1,1)"><rect fill="#C0C0C0" stroke="none" x="599" y="360" width="73.32080078125" height="48" opacity="0.2"/></g><g transform="translate(-214,-134) scale(1,1)"><rect fill="#ffffff" stroke="none" x="592" y="353" width="73.32080078125" height="48"/></g><g transform="translate(-214,-134) scale(1,1)"><path fill="none" stroke="#000000" d="M 592 353 L 665.32080078125 353 L 665.32080078125 401 L 592 401 L 592 353 Z Z" stroke-miterlimit="10"/></g><g transform="translate(-214,-134) scale(1,1)"><g><path fill="none" stroke="none"/><text fill="#000000" stroke="none" font-family="Arial" font-size="13px" font-style="normal" font-weight="normal" text-decoration="none" x="596.5" y="370.5">«interface»</text></g></g><g transform="translate(-214,-134) scale(1,1)"><g><path fill="none" stroke="none"/><text fill="#000000" stroke="none" font-family="Arial" font-size="13px" font-style="normal" font-weight="bold" text-decoration="none" x="615.2890625" y="385.5">Path</text></g></g><g transform="translate(-214,-134) scale(1,1)"><path fill="none" stroke="#000000" d="M 532 189 L 615 352" stroke-miterlimit="10" stroke-dasharray="3"/></g><g transform="translate(-214,-134) scale(1,1)"><path fill="none" stroke="#000000" d="M 606.637366765731 344.85392657544713 L 615 352 L 614.1397623088308 341.03368835411413" stroke-miterlimit="10"/></g><g transform="translate(-214,-134) scale(1,1)"><path fill="none" stroke="#000000" d="M 505 189 L 456 263" stroke-miterlimit="10" stroke-dasharray="3"/></g><g transform="translate(-214,-134) scale(1,1)"><path fill="none" stroke="#000000" d="M 458.1009755007275 252.20250483003846 L 456 263 L 465.12059607818003 256.8506319691624" stroke-miterlimit="10"/></g><g transform="translate(-214,-134) scale(1,1)"><rect fill="#C0C0C0" stroke="none" x="383" y="271" width="130.38623046875" height="44" opacity="0.2"/></g><g transform="translate(-214,-134) scale(1,1)"><rect fill="#ffffff" stroke="none" x="376" y="264" width="130.38623046875" height="44"/></g><g transform="translate(-214,-134) scale(1,1)"><path fill="none" stroke="#000000" d="M 376 264 L 506.38623046875 264 L 506.38623046875 308 L 376 308 L 376 264 Z Z" stroke-miterlimit="10"/></g><g transform="translate(-214,-134) scale(1,1)"><path fill="none" stroke="#000000" d="M 376 289 L 506.38623046875 289" stroke-miterlimit="10"/></g><g transform="translate(-214,-134) scale(1,1)"><path fill="none" stroke="#000000" d="M 376 299 L 506.38623046875 299" stroke-miterlimit="10"/></g><g transform="translate(-214,-134) scale(1,1)"><g><path fill="none" stroke="none"/><text fill="#000000" stroke="none" font-family="Arial" font-size="13px" font-style="normal" font-weight="bold" text-decoration="none" x="384.844970703125" y="283.5">FileSystemProvider</text></g></g><g transform="translate(-214,-134) scale(1,1)"><rect fill="#C0C0C0" stroke="none" x="351" y="362" width="77.6435546875" height="44" opacity="0.2"/></g><g transform="translate(-214,-134) scale(1,1)"><rect fill="#ffffff" stroke="none" x="344" y="355" width="77.6435546875" height="44"/></g><g transform="translate(-214,-134) scale(1,1)"><path fill="none" stroke="#000000" d="M 344 355 L 421.6435546875 355 L 421.6435546875 399 L 344 399 L 344 355 Z Z" stroke-miterlimit="10"/></g><g transform="translate(-214,-134) scale(1,1)"><path fill="none" stroke="#000000" d="M 344 380 L 421.6435546875 380" stroke-miterlimit="10"/></g><g transform="translate(-214,-134) scale(1,1)"><path fill="none" stroke="#000000" d="M 344 390 L 421.6435546875 390" stroke-miterlimit="10"/></g><g transform="translate(-214,-134) scale(1,1)"><g><path fill="none" stroke="none"/><text fill="#000000" stroke="none" font-family="Arial" font-size="13px" font-style="italic" font-weight="bold" text-decoration="none" x="350.67724609375" y="374.5">FileSystem</text></g></g><g transform="translate(-214,-134) scale(1,1)"><path fill="none" stroke="#000000" d="M 397 354 L 426 309" stroke-miterlimit="10" stroke-dasharray="3"/></g><g transform="translate(-214,-134) scale(1,1)"><path fill="none" stroke="#000000" d="M 424.03326417281045 319.82275150717453 L 426 309 L 416.9564667779717 315.2621487416118" stroke-miterlimit="10"/></g><g transform="translate(-214,-134) scale(1,1)"><path fill="none" stroke="#000000" d="M 314 240 L 371 354" stroke-miterlimit="10" stroke-dasharray="3"/></g><g transform="translate(-214,-134) scale(1,1)"><path fill="none" stroke="#000000" d="M 362.6900064950472 346.7927808450386 L 371 354 L 370.22022077900255 343.02767370306094" stroke-miterlimit="10"/></g><g transform="translate(-214,-134) scale(1,1)"><path fill="none" stroke="#000000" d="M 696 240 L 640 352" stroke-miterlimit="10" stroke-dasharray="3"/></g><g transform="translate(-214,-134) scale(1,1)"><path fill="none" stroke="#000000" d="M 640.7797792209975 341.02767370306094 L 640 352 L 648.3099935049528 344.7927808450386" stroke-miterlimit="10"/></g></g></svg>