<svg version="1.1" xmlns="http://www.w3.org/2000/svg" xmlns:xlink="http://www.w3.org/1999/xlink" width="580.18896484375" height="300"><defs/><g><g transform="translate(-78,-198) scale(1,1)"><path fill="#C0C0C0" stroke="none" d="M 460.187744140625 226.5 C 460.187744140625 220.1487248 465.336468940625 215 471.687744140625 215 C 478.039019340625 215 483.187744140625 220.1487248 483.187744140625 226.5 C 483.187744140625 232.8512752 478.039019340625 238 471.687744140625 238 C 465.336468940625 238 460.187744140625 232.8512752 460.187744140625 226.5 Z" opacity="0.2"/></g><g transform="translate(-78,-198) scale(1,1)"><path fill="#ffffff" stroke="none" d="M 453.187744140625 219.5 C 453.187744140625 213.1487248 458.336468940625 208 464.687744140625 208 C 471.039019340625 208 476.187744140625 213.1487248 476.187744140625 219.5 C 476.187744140625 225.8512752 471.039019340625 231 464.687744140625 231 C 458.336468940625 231 453.187744140625 225.8512752 453.187744140625 219.5 Z"/></g><g transform="translate(-78,-198) scale(1,1)"><path fill="none" stroke="#000000" d="M 453.187744140625 219.5 C 453.187744140625 213.1487248 458.336468940625 208 464.687744140625 208 C 471.039019340625 208 476.187744140625 213.1487248 476.187744140625 219.5 C 476.187744140625 225.8512752 471.039019340625 231 464.687744140625 231 C 458.336468940625 231 453.187744140625 225.8512752 453.187744140625 219.5 Z" stroke-miterlimit="10"/></g><g transform="translate(-78,-198) scale(1,1)"><g><path fill="none" stroke="none"/><text fill="#000000" stroke="none" font-family="Arial" font-size="13px" font-style="normal" font-weight="bold" text-decoration="none" x="430.36279296875" y="250.5">CopyOption</text></g></g><g transform="translate(-78,-198) scale(1,1)"><path fill="#C0C0C0" stroke="none" d="M 293.549560546875 226.5 C 293.549560546875 220.1487248 298.698285346875 215 305.049560546875 215 C 311.400835746875 215 316.549560546875 220.1487248 316.549560546875 226.5 C 316.549560546875 232.8512752 311.400835746875 238 305.049560546875 238 C 298.698285346875 238 293.549560546875 232.8512752 293.549560546875 226.5 Z" opacity="0.2"/></g><g transform="translate(-78,-198) scale(1,1)"><path fill="#ffffff" stroke="none" d="M 286.549560546875 219.5 C 286.549560546875 213.1487248 291.698285346875 208 298.049560546875 208 C 304.400835746875 208 309.549560546875 213.1487248 309.549560546875 219.5 C 309.549560546875 225.8512752 304.400835746875 231 298.049560546875 231 C 291.698285346875 231 286.549560546875 225.8512752 286.549560546875 219.5 Z"/></g><g transform="translate(-78,-198) scale(1,1)"><path fill="none" stroke="#000000" d="M 286.549560546875 219.5 C 286.549560546875 213.1487248 291.698285346875 208 298.049560546875 208 C 304.400835746875 208 309.549560546875 213.1487248 309.549560546875 219.5 C 309.549560546875 225.8512752 304.400835746875 231 298.049560546875 231 C 291.698285346875 231 286.549560546875 225.8512752 286.549560546875 219.5 Z" stroke-miterlimit="10"/></g><g transform="translate(-78,-198) scale(1,1)"><g><path fill="none" stroke="none"/><text fill="#000000" stroke="none" font-family="Arial" font-size="13px" font-style="normal" font-weight="bold" text-decoration="none" x="262.997802734375" y="250.5">OpenOption</text></g></g><g transform="translate(-78,-198) scale(1,1)"><rect fill="#C0C0C0" stroke="none" x="510" y="303" width="145.18896484375" height="87" opacity="0.2"/></g><g transform="translate(-78,-198) scale(1,1)"><rect fill="#ffffff" stroke="none" x="503" y="296" width="145.18896484375" height="87"/></g><g transform="translate(-78,-198) scale(1,1)"><path fill="none" stroke="#000000" d="M 503 296 L 648.18896484375 296 L 648.18896484375 383 L 503 383 L 503 296 Z Z" stroke-miterlimit="10"/></g><g transform="translate(-78,-198) scale(1,1)"><path fill="none" stroke="#000000" d="M 503 321 L 648.18896484375 321" stroke-miterlimit="10"/></g><g transform="translate(-78,-198) scale(1,1)"><path fill="none" stroke="#000000" d="M 503 374 L 648.18896484375 374" stroke-miterlimit="10"/></g><g transform="translate(-78,-198) scale(1,1)"><g><path fill="none" stroke="none"/><text fill="#000000" stroke="none" font-family="Arial" font-size="13px" font-style="normal" font-weight="bold" text-decoration="none" x="514.888671875" y="315.5">StandardCopyOption</text></g></g><g transform="translate(-78,-198) scale(1,1)"><g><path fill="none" stroke="none"/><text fill="#000000" stroke="none" font-family="Arial" font-size="13px" font-style="normal" font-weight="normal" text-decoration="none" x="508" y="338.5">+REPLACE_EXISTING</text><path fill="none" stroke="#000000" d="M 508 338.5 L 644.18896484375 338.5" stroke-miterlimit="10"/></g></g><g transform="translate(-78,-198) scale(1,1)"><g><path fill="none" stroke="none"/><text fill="#000000" stroke="none" font-family="Arial" font-size="13px" font-style="normal" font-weight="normal" text-decoration="none" x="508" y="353.5">+COPY_ATTRIBUTES</text><path fill="none" stroke="#000000" d="M 508 353.5 L 640.55810546875 353.5" stroke-miterlimit="10"/></g></g><g transform="translate(-78,-198) scale(1,1)"><g><path fill="none" stroke="none"/><text fill="#000000" stroke="none" font-family="Arial" font-size="13px" font-style="normal" font-weight="normal" text-decoration="none" x="508" y="368.5">+ATOMIC_MOVE</text><path fill="none" stroke="#000000" d="M 508 368.5 L 611.6572265625 368.5" stroke-miterlimit="10"/></g></g><g transform="translate(-78,-198) scale(1,1)"><rect fill="#C0C0C0" stroke="none" x="312" y="303" width="135.7880859375" height="57" opacity="0.2"/></g><g transform="translate(-78,-198) scale(1,1)"><rect fill="#ffffff" stroke="none" x="305" y="296" width="135.7880859375" height="57"/></g><g transform="translate(-78,-198) scale(1,1)"><path fill="none" stroke="#000000" d="M 305 296 L 440.7880859375 296 L 440.7880859375 353 L 305 353 L 305 296 Z Z" stroke-miterlimit="10"/></g><g transform="translate(-78,-198) scale(1,1)"><path fill="none" stroke="#000000" d="M 305 321 L 440.7880859375 321" stroke-miterlimit="10"/></g><g transform="translate(-78,-198) scale(1,1)"><path fill="none" stroke="#000000" d="M 305 344 L 440.7880859375 344" stroke-miterlimit="10"/></g><g transform="translate(-78,-198) scale(1,1)"><g><path fill="none" stroke="none"/><text fill="#000000" stroke="none" font-family="Arial" font-size="13px" font-style="normal" font-weight="bold" text-decoration="none" x="341.819091796875" y="315.5">LinkOption</text></g></g><g transform="translate(-78,-198) scale(1,1)"><g><path fill="none" stroke="none"/><text fill="#000000" stroke="none" font-family="Arial" font-size="13px" font-style="normal" font-weight="normal" text-decoration="none" x="310" y="338.5">+NOFOLLOW_LINKS</text><path fill="none" stroke="#000000" d="M 310 338.5 L 436.7880859375 338.5" stroke-miterlimit="10"/></g></g><g transform="translate(-78,-198) scale(1,1)"><path fill="none" stroke="#000000" d="M 401 295 L 456.10526315789474 231" stroke-miterlimit="10"/></g><g transform="translate(-78,-198) scale(1,1)"><path fill="none" stroke="#000000" d="M 349 295 L 304.3157894736842 231" stroke-miterlimit="10"/></g><g transform="translate(-78,-198) scale(1,1)"><path fill="none" stroke="#000000" d="M 529 295 L 472.2105263157895 231" stroke-miterlimit="10"/></g><g transform="translate(-78,-198) scale(1,1)"><rect fill="#C0C0C0" stroke="none" x="95" y="303" width="155.275390625" height="192" opacity="0.2"/></g><g transform="translate(-78,-198) scale(1,1)"><rect fill="#ffffff" stroke="none" x="88" y="296" width="155.275390625" height="192"/></g><g transform="translate(-78,-198) scale(1,1)"><path fill="none" stroke="#000000" d="M 88 296 L 243.275390625 296 L 243.275390625 488 L 88 488 L 88 296 Z Z" stroke-miterlimit="10"/></g><g transform="translate(-78,-198) scale(1,1)"><path fill="none" stroke="#000000" d="M 88 321 L 243.275390625 321" stroke-miterlimit="10"/></g><g transform="translate(-78,-198) scale(1,1)"><path fill="none" stroke="#000000" d="M 88 479 L 243.275390625 479" stroke-miterlimit="10"/></g><g transform="translate(-78,-198) scale(1,1)"><g><path fill="none" stroke="none"/><text fill="#000000" stroke="none" font-family="Arial" font-size="13px" font-style="normal" font-weight="bold" text-decoration="none" x="104.205078125" y="315.5">StandardOpenOption</text></g></g><g transform="translate(-78,-198) scale(1,1)"><g><path fill="none" stroke="none"/><text fill="#000000" stroke="none" font-family="Arial" font-size="13px" font-style="normal" font-weight="normal" text-decoration="none" x="93" y="338.5">+READ</text><path fill="none" stroke="#000000" d="M 93 338.5 L 136.7099609375 338.5" stroke-miterlimit="10"/></g></g><g transform="translate(-78,-198) scale(1,1)"><g><path fill="none" stroke="none"/><text fill="#000000" stroke="none" font-family="Arial" font-size="13px" font-style="normal" font-weight="normal" text-decoration="none" x="93" y="353.5">+WRITE</text><path fill="none" stroke="#000000" d="M 93 353.5 L 142.4736328125 353.5" stroke-miterlimit="10"/></g></g><g transform="translate(-78,-198) scale(1,1)"><g><path fill="none" stroke="none"/><text fill="#000000" stroke="none" font-family="Arial" font-size="13px" font-style="normal" font-weight="normal" text-decoration="none" x="93" y="368.5">+APPEND</text><path fill="none" stroke="#000000" d="M 93 368.5 L 154.0517578125 368.5" stroke-miterlimit="10"/></g></g><g transform="translate(-78,-198) scale(1,1)"><g><path fill="none" stroke="none"/><text fill="#000000" stroke="none" font-family="Arial" font-size="13px" font-style="normal" font-weight="normal" text-decoration="none" x="93" y="383.5">+TRUNCATE_EXISTING</text><path fill="none" stroke="#000000" d="M 93 383.5 L 239.275390625 383.5" stroke-miterlimit="10"/></g></g><g transform="translate(-78,-198) scale(1,1)"><g><path fill="none" stroke="none"/><text fill="#000000" stroke="none" font-family="Arial" font-size="13px" font-style="normal" font-weight="normal" text-decoration="none" x="93" y="398.5">+CREATE</text><path fill="none" stroke="#000000" d="M 93 398.5 L 153.32177734375 398.5" stroke-miterlimit="10"/></g></g><g transform="translate(-78,-198) scale(1,1)"><g><path fill="none" stroke="none"/><text fill="#000000" stroke="none" font-family="Arial" font-size="13px" font-style="normal" font-weight="normal" text-decoration="none" x="93" y="413.5">+CREATE_NEW</text><path fill="none" stroke="#000000" d="M 93 413.5 L 190.880859375 413.5" stroke-miterlimit="10"/></g></g><g transform="translate(-78,-198) scale(1,1)"><g><path fill="none" stroke="none"/><text fill="#000000" stroke="none" font-family="Arial" font-size="13px" font-style="normal" font-weight="normal" text-decoration="none" x="93" y="428.5">+DELETE_ON_CLOSE</text><path fill="none" stroke="#000000" d="M 93 428.5 L 229.1953125 428.5" stroke-miterlimit="10"/></g></g><g transform="translate(-78,-198) scale(1,1)"><g><path fill="none" stroke="none"/><text fill="#000000" stroke="none" font-family="Arial" font-size="13px" font-style="normal" font-weight="normal" text-decoration="none" x="93" y="443.5">+SPARSE</text><path fill="none" stroke="#000000" d="M 93 443.5 L 153.33447265625 443.5" stroke-miterlimit="10"/></g></g><g transform="translate(-78,-198) scale(1,1)"><g><path fill="none" stroke="none"/><text fill="#000000" stroke="none" font-family="Arial" font-size="13px" font-style="normal" font-weight="normal" text-decoration="none" x="93" y="458.5">+SYNC</text><path fill="none" stroke="#000000" d="M 93 458.5 L 136.7099609375 458.5" stroke-miterlimit="10"/></g></g><g transform="translate(-78,-198) scale(1,1)"><g><path fill="none" stroke="none"/><text fill="#000000" stroke="none" font-family="Arial" font-size="13px" font-style="normal" font-weight="normal" text-decoration="none" x="93" y="473.5">+DSYNC</text><path fill="none" stroke="#000000" d="M 93 473.5 L 146.09814453125 473.5" stroke-miterlimit="10"/></g></g><g transform="translate(-78,-198) scale(1,1)"><path fill="none" stroke="#000000" d="M 244 297 L 291.36842105263156 231" stroke-miterlimit="10"/></g></g></svg>