<svg xmlns="http://www.w3.org/2000/svg" xmlns:xlink="http://www.w3.org/1999/xlink" id="processonSvg1000" viewBox="67.5 87.0 1100.5 303.0" width="1100.5" height="303.0"><defs id="ProcessOnDefs1001"><marker id="ProcessOnMarker1025" markerUnits="userSpaceOnUse" orient="auto" markerWidth="16.23606797749979" markerHeight="10.550836550532098" viewBox="-1.0 -1.3763819204711736 16.23606797749979 10.550836550532098" refX="-1.0" refY="3.8990363547948754"><path id="ProcessOnPath1026" d="M12.0 3.8990363547948754L0.0 7.798072709589751V0.0Z" stroke="#323232" stroke-width="2.0" fill="#323232" transform="matrix(1.0,0.0,0.0,1.0,0.0,0.0)"/></marker></defs><g id="ProcessOnG1002"><path id="ProcessOnPath1003" d="M67.5 87.0H1168.0V390.0H67.5V87.0Z" fill="none"/><g id="ProcessOnG1004"><g id="ProcessOnG1005" transform="matrix(1.0,0.0,0.0,1.0,109.0,183.0)" opacity="1.0"><path id="ProcessOnPath1006" d="M0.0 0.0L75.0 0.0L75.0 55.0L0.0 55.0Z" stroke="#323232" stroke-width="2.0" stroke-dasharray="none" opacity="1.0" fill="#ffffff"/><g id="ProcessOnG1007" transform="matrix(1.0,0.0,0.0,1.0,10.0,19.375)"><text id="ProcessOnText1008" fill="#000000" font-size="13" x="26.5" y="13.325" font-family="微软雅黑" font-weight="normal" font-style="normal" text-decoration="none" family="微软雅黑" text-anchor="middle" size="13">Header</text></g></g><g id="ProcessOnG1009" transform="matrix(1.0,0.0,0.0,1.0,184.0,183.0)" opacity="1.0"><path id="ProcessOnPath1010" d="M0.0 0.0L68.0 0.0L68.0 55.0L0.0 55.0Z" stroke="#323232" stroke-width="2.0" stroke-dasharray="none" opacity="1.0" fill="#ffffff"/><g id="ProcessOnG1011" transform="matrix(1.0,0.0,0.0,1.0,10.0,11.25)"><text id="ProcessOnText1012" fill="#000000" font-size="13" x="23.0" y="13.325" font-family="微软雅黑" font-weight="normal" font-style="normal" text-decoration="none" family="微软雅黑" text-anchor="middle" size="13">Seg</text><text id="ProcessOnText1013" fill="#000000" font-size="13" x="23.0" y="29.575" font-family="微软雅黑" font-weight="normal" font-style="normal" text-decoration="none" family="微软雅黑" text-anchor="middle" size="13">Version</text></g></g><g id="ProcessOnG1014" transform="matrix(1.0,0.0,0.0,1.0,252.0,183.0)" opacity="1.0"><path id="ProcessOnPath1015" d="M0.0 0.0L68.0 0.0L68.0 55.0L0.0 55.0Z" stroke="#323232" stroke-width="2.0" stroke-dasharray="none" opacity="1.0" fill="#ffffff"/><g id="ProcessOnG1016" transform="matrix(1.0,0.0,0.0,1.0,10.0,11.25)"><text id="ProcessOnText1017" fill="#000000" font-size="13" x="23.0" y="13.325" font-family="微软雅黑" font-weight="normal" font-style="normal" text-decoration="none" family="微软雅黑" text-anchor="middle" size="13">Seg</text><text id="ProcessOnText1018" fill="#000000" font-size="13" x="23.0" y="29.575" font-family="微软雅黑" font-weight="normal" font-style="normal" text-decoration="none" family="微软雅黑" text-anchor="middle" size="13">Size</text></g></g><g id="ProcessOnG1019" transform="matrix(1.0,0.0,0.0,1.0,320.0,183.0)" opacity="1.0"><path id="ProcessOnPath1020" d="M0.0 0.0L29.0 0.0L29.0 55.0L0.0 55.0Z" stroke="#323232" stroke-width="2.0" stroke-dasharray="none" opacity="1.0" fill="#ffffff"/><g id="ProcessOnG1021" transform="matrix(1.0,0.0,0.0,1.0,10.0,19.375)"><text id="ProcessOnText1022" fill="#000000" font-size="13" x="3.5" y="13.325" font-family="微软雅黑" font-weight="normal" font-style="normal" text-decoration="none" family="微软雅黑" text-anchor="middle" size="13">b</text></g></g><g id="ProcessOnG1023"><path id="ProcessOnPath1024" d="M334.5 183.0L334.5 165.0L334.5 165.0L334.5 162.2360679774998" stroke="#323232" stroke-width="2.0" stroke-dasharray="none" fill="none" marker-end="url(#ProcessOnMarker1025)"/></g><g id="ProcessOnG1027" transform="matrix(1.0,0.0,0.0,1.0,254.5,107.0)" opacity="1.0"><path id="ProcessOnPath1028" d="M0.0 0.0L160.0 0.0L160.0 40.0L0.0 40.0Z" stroke="none" stroke-width="0.0" stroke-dasharray="none" opacity="1.0" fill="none"/><g id="ProcessOnG1029" transform="matrix(1.0,0.0,0.0,1.0,0.0,11.875)"><text id="ProcessOnText1030" fill="#000000" font-size="13" x="79.0" y="13.325" font-family="微软雅黑" font-weight="normal" font-style="normal" text-decoration="none" family="微软雅黑" text-anchor="middle" size="13">IsCompoundFile</text></g></g><g id="ProcessOnG1031" transform="matrix(1.0,0.0,0.0,1.0,349.0,183.0)" opacity="1.0"><path id="ProcessOnPath1032" d="M0.0 0.0L185.0 0.0L185.0 55.0L0.0 55.0Z" stroke="#323232" stroke-width="2.0" stroke-dasharray="10.0 4.0" opacity="1.0" fill="#ffe6cc"/><g id="ProcessOnG1033" transform="matrix(1.0,0.0,0.0,1.0,10.0,19.375)"><text id="ProcessOnText1034" fill="#000000" font-size="13" x="81.5" y="13.325" font-family="微软雅黑" font-weight="normal" font-style="normal" text-decoration="none" family="微软雅黑" text-anchor="middle" size="13">Diagnostics</text></g></g><g id="ProcessOnG1035" transform="matrix(1.0,0.0,0.0,1.0,534.0,183.0)" opacity="1.0"><path id="ProcessOnPath1036" d="M0.0 0.0L201.0 0.0L201.0 55.0L0.0 55.0Z" stroke="#323232" stroke-width="2.0" stroke-dasharray="10.0 4.0" opacity="1.0" fill="#ffcccc"/><g id="ProcessOnG1037" transform="matrix(1.0,0.0,0.0,1.0,10.0,19.375)"><text id="ProcessOnText1038" fill="#000000" font-size="13" x="89.5" y="13.325" font-family="微软雅黑" font-weight="normal" font-style="normal" text-decoration="none" family="微软雅黑" text-anchor="middle" size="13">Files</text></g></g><g id="ProcessOnG1039" transform="matrix(1.0,0.0,0.0,1.0,735.0,183.0)" opacity="1.0"><path id="ProcessOnPath1040" d="M0.0 0.0L201.0 0.0L201.0 55.0L0.0 55.0Z" stroke="#323232" stroke-width="2.0" stroke-dasharray="10.0 4.0" opacity="1.0" fill="#ccffcc"/><g id="ProcessOnG1041" transform="matrix(1.0,0.0,0.0,1.0,10.0,19.375)"><text id="ProcessOnText1042" fill="#000000" font-size="13" x="89.5" y="13.325" font-family="微软雅黑" font-weight="normal" font-style="normal" text-decoration="none" family="微软雅黑" text-anchor="middle" size="13">Attributes</text></g></g><g id="ProcessOnG1043" transform="matrix(1.0,0.0,0.0,1.0,936.0,183.0)" opacity="1.0"><path id="ProcessOnPath1044" d="M0.0 0.0L132.0 0.0L132.0 55.0L0.0 55.0Z" stroke="#323232" stroke-width="2.0" stroke-dasharray="none" opacity="1.0" fill="#ffffff"/><g id="ProcessOnG1045" transform="matrix(1.0,0.0,0.0,1.0,10.0,19.375)"><text id="ProcessOnText1046" fill="#000000" font-size="13" x="55.0" y="13.325" font-family="微软雅黑" font-weight="normal" font-style="normal" text-decoration="none" family="微软雅黑" text-anchor="middle" size="13">IndexSort</text></g></g><g id="ProcessOnG1047" transform="matrix(1.0,0.0,0.0,1.0,1068.0,183.0)" opacity="1.0"><path id="ProcessOnPath1048" d="M0.0 0.0L80.0 0.0L80.0 55.0L0.0 55.0Z" stroke="#323232" stroke-width="2.0" stroke-dasharray="none" opacity="1.0" fill="#ffffff"/><g id="ProcessOnG1049" transform="matrix(1.0,0.0,0.0,1.0,10.0,19.375)"><text id="ProcessOnText1050" fill="#000000" font-size="13" x="29.0" y="13.325" font-family="微软雅黑" font-weight="normal" font-style="normal" text-decoration="none" family="微软雅黑" text-anchor="middle" size="13">Footer</text></g></g><g id="ProcessOnG1051" transform="matrix(1.0,0.0,0.0,1.0,87.5,330.0)" opacity="1.0"><path id="ProcessOnPath1052" d="M0.0 0.0L121.5 0.0L121.5 40.0L0.0 40.0Z" stroke="#323232" stroke-width="2.0" stroke-dasharray="none" opacity="1.0" fill="#ffffff"/><g id="ProcessOnG1053" transform="matrix(1.0,0.0,0.0,1.0,10.0,11.875)"><text id="ProcessOnText1054" fill="#000000" font-size="13" x="49.75" y="13.325" font-family="微软雅黑" font-weight="normal" font-style="normal" text-decoration="none" family="微软雅黑" text-anchor="middle" size="13">os:Windows 10</text></g></g><g id="ProcessOnG1055" transform="matrix(1.0,0.0,0.0,1.0,209.0,330.0)" opacity="1.0"><path id="ProcessOnPath1056" d="M0.0 0.0L133.0 0.0L133.0 40.0L0.0 40.0Z" stroke="#323232" stroke-width="2.0" stroke-dasharray="none" opacity="1.0" fill="#ffffff"/><g id="ProcessOnG1057" transform="matrix(1.0,0.0,0.0,1.0,10.0,3.75)"><text id="ProcessOnText1058" fill="#000000" font-size="13" x="55.5" y="13.325" font-family="微软雅黑" font-weight="normal" font-style="normal" text-decoration="none" family="微软雅黑" text-anchor="middle" size="13">java.vendor:Oracl</text><text id="ProcessOnText1059" fill="#000000" font-size="13" x="55.5" y="29.575" font-family="微软雅黑" font-weight="normal" font-style="normal" text-decoration="none" family="微软雅黑" text-anchor="middle" size="13">e</text></g></g><g id="ProcessOnG1060"><path id="ProcessOnPath1061" d="M349.53208888623794 235.71442478062693L87.63830408857798 331.14715287270207" stroke="#323232" stroke-width="2.0" stroke-dasharray="none" fill="none"/></g><g id="ProcessOnG1062" transform="matrix(1.0,0.0,0.0,1.0,342.0,330.0)" opacity="1.0"><path id="ProcessOnPath1063" d="M0.0 0.0L63.0 0.0L63.0 40.0L0.0 40.0Z" stroke="#323232" stroke-width="2.0" stroke-dasharray="none" opacity="1.0" fill="#ffffff"/><g id="ProcessOnG1064" transform="matrix(1.0,0.0,0.0,1.0,10.0,11.875)"><text id="ProcessOnText1065" fill="#000000" font-size="13" x="20.5" y="13.325" font-family="微软雅黑" font-weight="normal" font-style="normal" text-decoration="none" family="微软雅黑" text-anchor="middle" size="13">...</text></g></g><g id="ProcessOnG1066"><path id="ProcessOnPath1067" d="M534.532088886238 236.71442478062693L404.5857864376269 330.4142135623731" stroke="#323232" stroke-width="2.0" stroke-dasharray="none" fill="none"/></g><g id="ProcessOnG1068" transform="matrix(1.0,0.0,0.0,1.0,427.5,330.0)" opacity="1.0"><path id="ProcessOnPath1069" d="M0.0 0.0L62.56771653543307 0.0L62.56771653543307 40.0L0.0 40.0Z" stroke="#323232" stroke-width="2.0" stroke-dasharray="none" opacity="1.0" fill="#ffffff"/><g id="ProcessOnG1070" transform="matrix(1.0,0.0,0.0,1.0,10.0,11.875)"><text id="ProcessOnText1071" fill="#000000" font-size="13" x="20.283858267716536" y="13.325" font-family="微软雅黑" font-weight="normal" font-style="normal" text-decoration="none" family="微软雅黑" text-anchor="middle" size="13">*.dii</text></g></g><g id="ProcessOnG1072" transform="matrix(1.0,0.0,0.0,1.0,490.0677165354331,330.0)" opacity="1.0"><path id="ProcessOnPath1073" d="M0.0 0.0L68.48976377952756 0.0L68.48976377952756 40.0L0.0 40.0Z" stroke="#323232" stroke-width="2.0" stroke-dasharray="none" opacity="1.0" fill="#ffffff"/><g id="ProcessOnG1074" transform="matrix(1.0,0.0,0.0,1.0,10.0,11.875)"><text id="ProcessOnText1075" fill="#000000" font-size="13" x="23.244881889763782" y="13.325" font-family="微软雅黑" font-weight="normal" font-style="normal" text-decoration="none" family="微软雅黑" text-anchor="middle" size="13">*.doc</text></g></g><g id="ProcessOnG1076" transform="matrix(1.0,0.0,0.0,1.0,558.5574803149607,330.0)" opacity="1.0"><path id="ProcessOnPath1077" d="M0.0 0.0L62.56771653543307 0.0L62.56771653543307 40.0L0.0 40.0Z" stroke="#323232" stroke-width="2.0" stroke-dasharray="none" opacity="1.0" fill="#ffffff"/><g id="ProcessOnG1078" transform="matrix(1.0,0.0,0.0,1.0,10.0,11.875)"><text id="ProcessOnText1079" fill="#000000" font-size="13" x="20.283858267716536" y="13.325" font-family="微软雅黑" font-weight="normal" font-style="normal" text-decoration="none" family="微软雅黑" text-anchor="middle" size="13">*.tim</text></g></g><g id="ProcessOnG1080" transform="matrix(1.0,0.0,0.0,1.0,621.1251968503938,330.0)" opacity="1.0"><path id="ProcessOnPath1081" d="M0.0 0.0L68.48976377952756 0.0L68.48976377952756 40.0L0.0 40.0Z" stroke="#323232" stroke-width="2.0" stroke-dasharray="none" opacity="1.0" fill="#ffffff"/><g id="ProcessOnG1082" transform="matrix(1.0,0.0,0.0,1.0,10.0,11.875)"><text id="ProcessOnText1083" fill="#000000" font-size="13" x="23.244881889763782" y="13.325" font-family="微软雅黑" font-weight="normal" font-style="normal" text-decoration="none" family="微软雅黑" text-anchor="middle" size="13">*.pos</text></g></g><g id="ProcessOnG1084" transform="matrix(1.0,0.0,0.0,1.0,689.6149606299214,330.0)" opacity="1.0"><path id="ProcessOnPath1085" d="M0.0 0.0L32.44251968503937 0.0L32.44251968503937 40.0L0.0 40.0Z" stroke="#323232" stroke-width="2.0" stroke-dasharray="none" opacity="1.0" fill="#ffffff"/><g id="ProcessOnG1086" transform="matrix(1.0,0.0,0.0,1.0,10.0,11.875)"><text id="ProcessOnText1087" fill="#000000" font-size="13" x="5.221259842519686" y="13.325" font-family="微软雅黑" font-weight="normal" font-style="normal" text-decoration="none" family="微软雅黑" text-anchor="middle" size="13">...</text></g></g><g id="ProcessOnG1088"><path id="ProcessOnPath1089" d="M735.1213203435597 237.87867965644034L721.1432743418808 330.5962666587139" stroke="#323232" stroke-width="2.0" stroke-dasharray="none" fill="none"/></g><g id="ProcessOnG1090"><path id="ProcessOnPath1091" d="M537.1471528727021 237.36169591142203L427.8302222155949 331.2139380484327" stroke="#323232" stroke-width="2.0" stroke-dasharray="none" fill="none"/></g><g id="ProcessOnG1092" transform="matrix(1.0,0.0,0.0,1.0,744.0,330.0)" opacity="1.0"><path id="ProcessOnPath1093" d="M0.0 0.0L336.0 0.0L336.0 40.0L0.0 40.0Z" stroke="#323232" stroke-width="2.0" stroke-dasharray="none" opacity="1.0" fill="#ffffff"/><g id="ProcessOnG1094" transform="matrix(1.0,0.0,0.0,1.0,10.0,11.875)"><text id="ProcessOnText1095" fill="#000000" font-size="13" x="157.0" y="13.325" font-family="微软雅黑" font-weight="normal" font-style="normal" text-decoration="none" family="微软雅黑" text-anchor="middle" size="13">Lucene50StoredFieldsFormat.mode:BEST_SPEED</text></g></g><g id="ProcessOnG1096"><path id="ProcessOnPath1097" d="M745.5 330.3301270189222L735.2766081771559 236.7056942545958" stroke="#323232" stroke-width="2.0" stroke-dasharray="none" fill="none"/></g><g id="ProcessOnG1098"><path id="ProcessOnPath1099" d="M1077.1933735541659 330.457456132867L936.532088886238 236.71442478062693" stroke="#323232" stroke-width="2.0" stroke-dasharray="none" fill="none"/></g></g></g></svg>