<svg version="1.1" xmlns="http://www.w3.org/2000/svg" xmlns:xlink="http://www.w3.org/1999/xlink" width="395.3427734375" height="67"><defs/><g><g transform="translate(-206.6572265625,-214) scale(1,1)"><rect fill="#C0C0C0" stroke="none" x="223.6572265625" y="231" width="73.32080078125" height="47" opacity="0.2"/></g><g transform="translate(-206.6572265625,-214) scale(1,1)"><rect fill="#ffffff" stroke="none" x="216.6572265625" y="224" width="73.32080078125" height="47"/></g><g transform="translate(-206.6572265625,-214) scale(1,1)"><path fill="none" stroke="#000000" d="M 216.6572265625 224 L 289.97802734375 224 L 289.97802734375 271 L 216.6572265625 271 L 216.6572265625 224 Z Z" stroke-miterlimit="10"/></g><g transform="translate(-206.6572265625,-214) scale(1,1)"><path fill="none" stroke="#000000" d="M 216.6572265625 262 L 289.97802734375 262" stroke-miterlimit="10"/></g><g transform="translate(-206.6572265625,-214) scale(1,1)"><g><path fill="none" stroke="none"/><text fill="#000000" stroke="none" font-family="Arial" font-size="13px" font-style="normal" font-weight="normal" text-decoration="none" x="221.1572265625" y="241.5">«interface»</text></g></g><g transform="translate(-206.6572265625,-214) scale(1,1)"><g><path fill="none" stroke="none"/><text fill="#000000" stroke="none" font-family="Arial" font-size="13px" font-style="normal" font-weight="bold" text-decoration="none" x="227.669921875" y="256.5">Collector</text></g></g><g transform="translate(-206.6572265625,-214) scale(1,1)"><rect fill="#C0C0C0" stroke="none" x="431" y="232" width="168" height="44" opacity="0.2"/></g><g transform="translate(-206.6572265625,-214) scale(1,1)"><rect fill="#ffffff" stroke="none" x="424" y="225" width="168" height="44"/></g><g transform="translate(-206.6572265625,-214) scale(1,1)"><path fill="none" stroke="#000000" d="M 424 225 L 592 225 L 592 269 L 424 269 L 424 225 Z Z" stroke-miterlimit="10"/></g><g transform="translate(-206.6572265625,-214) scale(1,1)"><path fill="none" stroke="#000000" d="M 424 250 L 592 250" stroke-miterlimit="10"/></g><g transform="translate(-206.6572265625,-214) scale(1,1)"><path fill="none" stroke="#000000" d="M 424 260 L 592 260" stroke-miterlimit="10"/></g><g transform="translate(-206.6572265625,-214) scale(1,1)"><g><path fill="none" stroke="none"/><text fill="#000000" stroke="none" font-family="Arial" font-size="13px" font-style="normal" font-weight="bold" text-decoration="none" x="439.369140625" y="244.5">Collectors.CollectorImpl</text></g></g><g transform="translate(-206.6572265625,-214) scale(1,1)"><path fill="none" stroke="#000000" d="M 423 247 L 291 247" stroke-miterlimit="10" stroke-dasharray="3"/></g><g transform="translate(-206.6572265625,-214) scale(1,1)"><path fill="#FFFFFF" stroke="none" d="M 311.3253497152483 238.58096448796803 L 291 247 L 311.3253497152483 255.41903551203197"/></g><g transform="translate(-206.6572265625,-214) scale(1,1)"><path fill="none" stroke="#000000" d="M 311.3253497152483 238.58096448796803 L 291 247 L 311.3253497152483 255.41903551203197 L 311.3253497152483 238.58096448796803" stroke-miterlimit="10"/></g></g></svg>