<svg version="1.1" xmlns="http://www.w3.org/2000/svg" xmlns:xlink="http://www.w3.org/1999/xlink" width="397.10986328125" height="233"><defs/><g><g transform="translate(-166,-127) scale(1,1)"><rect fill="#C0C0C0" stroke="none" x="183" y="177" width="151.10986328125" height="60" opacity="0.2"/></g><g transform="translate(-166,-127) scale(1,1)"><rect fill="#C0C0C0" stroke="none" x="324.7216796875" y="144" width="18.38818359375" height="37" opacity="0.2"/></g><g transform="translate(-166,-127) scale(1,1)"><rect fill="#ffffff" stroke="none" x="176" y="170" width="151.10986328125" height="60"/></g><g transform="translate(-166,-127) scale(1,1)"><path fill="none" stroke="#000000" d="M 176 170 L 327.10986328125 170 L 327.10986328125 230 L 176 230 L 176 170 Z Z" stroke-miterlimit="10"/></g><g transform="translate(-166,-127) scale(1,1)"><path fill="none" stroke="#000000" d="M 176 208 L 327.10986328125 208" stroke-miterlimit="10"/></g><g transform="translate(-166,-127) scale(1,1)"><g><path fill="none" stroke="none"/><text fill="#000000" stroke="none" font-family="Arial" font-size="13px" font-style="normal" font-weight="normal" text-decoration="none" x="219.39453125" y="187.5">«interface»</text></g></g><g transform="translate(-166,-127) scale(1,1)"><g><path fill="none" stroke="none"/><text fill="#000000" stroke="none" font-family="Arial" font-size="13px" font-style="normal" font-weight="bold" text-decoration="none" x="226.62451171875" y="202.5">Function</text></g></g><g transform="translate(-166,-127) scale(1,1)"><g><path fill="none" stroke="none"/><text fill="#000000" stroke="none" font-family="Arial" font-size="13px" font-style="normal" font-weight="normal" text-decoration="none" x="181" y="225.5">+apply(T t): R</text></g></g><g transform="translate(-166,-127) scale(1,1)"><rect fill="#ffffff" stroke="none" x="317.7216796875" y="137" width="18.38818359375" height="37"/></g><g transform="translate(-166,-127) scale(1,1)"><path fill="none" stroke="#000000" d="M 317.7216796875 137 L 336.10986328125 137 L 336.10986328125 174 L 317.7216796875 174 L 317.7216796875 137 Z Z" stroke-miterlimit="10" stroke-dasharray="3"/></g><g transform="translate(-166,-127) scale(1,1)"><g><path fill="none" stroke="none"/><text fill="#000000" stroke="none" font-family="Arial" font-size="13px" font-style="normal" font-weight="normal" text-decoration="none" x="322.7216796875" y="154.5">T</text></g></g><g transform="translate(-166,-127) scale(1,1)"><g><path fill="none" stroke="none"/><text fill="#000000" stroke="none" font-family="Arial" font-size="13px" font-style="normal" font-weight="normal" text-decoration="none" x="322.7216796875" y="169.5">R</text></g></g><g transform="translate(-166,-127) scale(1,1)"><rect fill="#C0C0C0" stroke="none" x="183" y="297" width="151.10986328125" height="60" opacity="0.2"/></g><g transform="translate(-166,-127) scale(1,1)"><rect fill="#C0C0C0" stroke="none" x="326.1689453125" y="279" width="16.94091796875" height="22" opacity="0.2"/></g><g transform="translate(-166,-127) scale(1,1)"><rect fill="#ffffff" stroke="none" x="176" y="290" width="151.10986328125" height="60"/></g><g transform="translate(-166,-127) scale(1,1)"><path fill="none" stroke="#000000" d="M 176 290 L 327.10986328125 290 L 327.10986328125 350 L 176 350 L 176 290 Z Z" stroke-miterlimit="10"/></g><g transform="translate(-166,-127) scale(1,1)"><path fill="none" stroke="#000000" d="M 176 328 L 327.10986328125 328" stroke-miterlimit="10"/></g><g transform="translate(-166,-127) scale(1,1)"><g><path fill="none" stroke="none"/><text fill="#000000" stroke="none" font-family="Arial" font-size="13px" font-style="normal" font-weight="normal" text-decoration="none" x="219.39453125" y="307.5">«interface»</text></g></g><g transform="translate(-166,-127) scale(1,1)"><g><path fill="none" stroke="none"/><text fill="#000000" stroke="none" font-family="Arial" font-size="13px" font-style="normal" font-weight="bold" text-decoration="none" x="221.57177734375" y="322.5">Consumer</text></g></g><g transform="translate(-166,-127) scale(1,1)"><g><path fill="none" stroke="none"/><text fill="#000000" stroke="none" font-family="Arial" font-size="13px" font-style="normal" font-weight="normal" text-decoration="none" x="181" y="345.5">+accept(T t): void</text></g></g><g transform="translate(-166,-127) scale(1,1)"><rect fill="#ffffff" stroke="none" x="319.1689453125" y="272" width="16.94091796875" height="22"/></g><g transform="translate(-166,-127) scale(1,1)"><path fill="none" stroke="#000000" d="M 319.1689453125 272 L 336.10986328125 272 L 336.10986328125 294 L 319.1689453125 294 L 319.1689453125 272 Z Z" stroke-miterlimit="10" stroke-dasharray="3"/></g><g transform="translate(-166,-127) scale(1,1)"><g><path fill="none" stroke="none"/><text fill="#000000" stroke="none" font-family="Arial" font-size="13px" font-style="normal" font-weight="normal" text-decoration="none" x="324.1689453125" y="289.5">T</text></g></g><g transform="translate(-166,-127) scale(1,1)"><rect fill="#C0C0C0" stroke="none" x="399" y="177" width="151.10986328125" height="60" opacity="0.2"/></g><g transform="translate(-166,-127) scale(1,1)"><rect fill="#C0C0C0" stroke="none" x="542.1689453125" y="159" width="16.94091796875" height="22" opacity="0.2"/></g><g transform="translate(-166,-127) scale(1,1)"><rect fill="#ffffff" stroke="none" x="392" y="170" width="151.10986328125" height="60"/></g><g transform="translate(-166,-127) scale(1,1)"><path fill="none" stroke="#000000" d="M 392 170 L 543.10986328125 170 L 543.10986328125 230 L 392 230 L 392 170 Z Z" stroke-miterlimit="10"/></g><g transform="translate(-166,-127) scale(1,1)"><path fill="none" stroke="#000000" d="M 392 208 L 543.10986328125 208" stroke-miterlimit="10"/></g><g transform="translate(-166,-127) scale(1,1)"><g><path fill="none" stroke="none"/><text fill="#000000" stroke="none" font-family="Arial" font-size="13px" font-style="normal" font-weight="normal" text-decoration="none" x="435.39453125" y="187.5">«interface»</text></g></g><g transform="translate(-166,-127) scale(1,1)"><g><path fill="none" stroke="none"/><text fill="#000000" stroke="none" font-family="Arial" font-size="13px" font-style="normal" font-weight="bold" text-decoration="none" x="440.094970703125" y="202.5">Predicate</text></g></g><g transform="translate(-166,-127) scale(1,1)"><g><path fill="none" stroke="none"/><text fill="#000000" stroke="none" font-family="Arial" font-size="13px" font-style="normal" font-weight="normal" text-decoration="none" x="397" y="225.5">+test(T t): boolean</text></g></g><g transform="translate(-166,-127) scale(1,1)"><rect fill="#ffffff" stroke="none" x="535.1689453125" y="152" width="16.94091796875" height="22"/></g><g transform="translate(-166,-127) scale(1,1)"><path fill="none" stroke="#000000" d="M 535.1689453125 152 L 552.10986328125 152 L 552.10986328125 174 L 535.1689453125 174 L 535.1689453125 152 Z Z" stroke-miterlimit="10" stroke-dasharray="3"/></g><g transform="translate(-166,-127) scale(1,1)"><g><path fill="none" stroke="none"/><text fill="#000000" stroke="none" font-family="Arial" font-size="13px" font-style="normal" font-weight="normal" text-decoration="none" x="540.1689453125" y="169.5">T</text></g></g><g transform="translate(-166,-127) scale(1,1)"><rect fill="#C0C0C0" stroke="none" x="399" y="297" width="151.10986328125" height="60" opacity="0.2"/></g><g transform="translate(-166,-127) scale(1,1)"><rect fill="#C0C0C0" stroke="none" x="542.1689453125" y="279" width="16.94091796875" height="22" opacity="0.2"/></g><g transform="translate(-166,-127) scale(1,1)"><rect fill="#ffffff" stroke="none" x="392" y="290" width="151.10986328125" height="60"/></g><g transform="translate(-166,-127) scale(1,1)"><path fill="none" stroke="#000000" d="M 392 290 L 543.10986328125 290 L 543.10986328125 350 L 392 350 L 392 290 Z Z" stroke-miterlimit="10"/></g><g transform="translate(-166,-127) scale(1,1)"><path fill="none" stroke="#000000" d="M 392 328 L 543.10986328125 328" stroke-miterlimit="10"/></g><g transform="translate(-166,-127) scale(1,1)"><g><path fill="none" stroke="none"/><text fill="#000000" stroke="none" font-family="Arial" font-size="13px" font-style="normal" font-weight="normal" text-decoration="none" x="435.39453125" y="307.5">«interface»</text></g></g><g transform="translate(-166,-127) scale(1,1)"><g><path fill="none" stroke="none"/><text fill="#000000" stroke="none" font-family="Arial" font-size="13px" font-style="normal" font-weight="bold" text-decoration="none" x="443.706787109375" y="322.5">Supplier</text></g></g><g transform="translate(-166,-127) scale(1,1)"><g><path fill="none" stroke="none"/><text fill="#000000" stroke="none" font-family="Arial" font-size="13px" font-style="normal" font-weight="normal" text-decoration="none" x="397" y="345.5">+get(): T</text></g></g><g transform="translate(-166,-127) scale(1,1)"><rect fill="#ffffff" stroke="none" x="535.1689453125" y="272" width="16.94091796875" height="22"/></g><g transform="translate(-166,-127) scale(1,1)"><path fill="none" stroke="#000000" d="M 535.1689453125 272 L 552.10986328125 272 L 552.10986328125 294 L 535.1689453125 294 L 535.1689453125 272 Z Z" stroke-miterlimit="10" stroke-dasharray="3"/></g><g transform="translate(-166,-127) scale(1,1)"><g><path fill="none" stroke="none"/><text fill="#000000" stroke="none" font-family="Arial" font-size="13px" font-style="normal" font-weight="normal" text-decoration="none" x="540.1689453125" y="289.5">T</text></g></g></g></svg>