<svg version="1.1" xmlns="http://www.w3.org/2000/svg" xmlns:xlink="http://www.w3.org/1999/xlink" width="715.71533203125" height="360"><defs/><g><g transform="translate(-22,-110) scale(1,1)"><path fill="#C0C0C0" stroke="none" d="M 435.578125 138.5 C 435.578125 132.1487248 440.7268498 127 447.078125 127 C 453.4294002 127 458.578125 132.1487248 458.578125 138.5 C 458.578125 144.8512752 453.4294002 150 447.078125 150 C 440.7268498 150 435.578125 144.8512752 435.578125 138.5 Z" opacity="0.2"/></g><g transform="translate(-22,-110) scale(1,1)"><path fill="#00d369" stroke="none" d="M 428.578125 131.5 C 428.578125 125.1487248 433.7268498 120 440.078125 120 C 446.4294002 120 451.578125 125.1487248 451.578125 131.5 C 451.578125 137.8512752 446.4294002 143 440.078125 143 C 433.7268498 143 428.578125 137.8512752 428.578125 131.5 Z"/></g><g transform="translate(-22,-110) scale(1,1)"><path fill="none" stroke="#000000" d="M 428.578125 131.5 C 428.578125 125.1487248 433.7268498 120 440.078125 120 C 446.4294002 120 451.578125 125.1487248 451.578125 131.5 C 451.578125 137.8512752 446.4294002 143 440.078125 143 C 433.7268498 143 428.578125 137.8512752 428.578125 131.5 Z" stroke-miterlimit="10"/></g><g transform="translate(-22,-110) scale(1,1)"><g><path fill="none" stroke="none"/><text fill="#000000" stroke="none" font-family="Arial" font-size="13px" font-style="normal" font-weight="bold" text-decoration="none" x="404.312255859375" y="162.5">BaseStream</text></g></g><g transform="translate(-22,-110) scale(1,1)"><path fill="#C0C0C0" stroke="none" d="M 238.7099609375 217.5 C 238.7099609375 211.1487248 243.8586857375 206 250.2099609375 206 C 256.5612361375 206 261.7099609375 211.1487248 261.7099609375 217.5 C 261.7099609375 223.8512752 256.5612361375 229 250.2099609375 229 C 243.8586857375 229 238.7099609375 223.8512752 238.7099609375 217.5 Z" opacity="0.2"/></g><g transform="translate(-22,-110) scale(1,1)"><path fill="#00d369" stroke="none" d="M 231.7099609375 210.5 C 231.7099609375 204.1487248 236.8586857375 199 243.2099609375 199 C 249.5612361375 199 254.7099609375 204.1487248 254.7099609375 210.5 C 254.7099609375 216.8512752 249.5612361375 222 243.2099609375 222 C 236.8586857375 222 231.7099609375 216.8512752 231.7099609375 210.5 Z"/></g><g transform="translate(-22,-110) scale(1,1)"><path fill="none" stroke="#000000" d="M 231.7099609375 210.5 C 231.7099609375 204.1487248 236.8586857375 199 243.2099609375 199 C 249.5612361375 199 254.7099609375 204.1487248 254.7099609375 210.5 C 254.7099609375 216.8512752 249.5612361375 222 243.2099609375 222 C 236.8586857375 222 231.7099609375 216.8512752 231.7099609375 210.5 Z" stroke-miterlimit="10"/></g><g transform="translate(-22,-110) scale(1,1)"><g><path fill="none" stroke="none"/><text fill="#000000" stroke="none" font-family="Arial" font-size="13px" font-style="normal" font-weight="bold" text-decoration="none" x="222.259521484375" y="241.5">Stream</text></g></g><g transform="translate(-22,-110) scale(1,1)"><path fill="#C0C0C0" stroke="none" d="M 379.7099609375 217.5 C 379.7099609375 211.1487248 384.8586857375 206 391.2099609375 206 C 397.5612361375 206 402.7099609375 211.1487248 402.7099609375 217.5 C 402.7099609375 223.8512752 397.5612361375 229 391.2099609375 229 C 384.8586857375 229 379.7099609375 223.8512752 379.7099609375 217.5 Z" opacity="0.2"/></g><g transform="translate(-22,-110) scale(1,1)"><path fill="#00d369" stroke="none" d="M 372.7099609375 210.5 C 372.7099609375 204.1487248 377.8586857375 199 384.2099609375 199 C 390.5612361375 199 395.7099609375 204.1487248 395.7099609375 210.5 C 395.7099609375 216.8512752 390.5612361375 222 384.2099609375 222 C 377.8586857375 222 372.7099609375 216.8512752 372.7099609375 210.5 Z"/></g><g transform="translate(-22,-110) scale(1,1)"><path fill="none" stroke="#000000" d="M 372.7099609375 210.5 C 372.7099609375 204.1487248 377.8586857375 199 384.2099609375 199 C 390.5612361375 199 395.7099609375 204.1487248 395.7099609375 210.5 C 395.7099609375 216.8512752 390.5612361375 222 384.2099609375 222 C 377.8586857375 222 372.7099609375 216.8512752 372.7099609375 210.5 Z" stroke-miterlimit="10"/></g><g transform="translate(-22,-110) scale(1,1)"><g><path fill="none" stroke="none"/><text fill="#000000" stroke="none" font-family="Arial" font-size="13px" font-style="normal" font-weight="bold" text-decoration="none" x="356.03271484375" y="241.5">IntStream</text></g></g><g transform="translate(-22,-110) scale(1,1)"><path fill="#C0C0C0" stroke="none" d="M 499.9208984375 217.5 C 499.9208984375 211.1487248 505.0696232375 206 511.4208984375 206 C 517.7721736375 206 522.9208984375 211.1487248 522.9208984375 217.5 C 522.9208984375 223.8512752 517.7721736375 229 511.4208984375 229 C 505.0696232375 229 499.9208984375 223.8512752 499.9208984375 217.5 Z" opacity="0.2"/></g><g transform="translate(-22,-110) scale(1,1)"><path fill="#00d369" stroke="none" d="M 492.9208984375 210.5 C 492.9208984375 204.1487248 498.0696232375 199 504.4208984375 199 C 510.7721736375 199 515.9208984375 204.1487248 515.9208984375 210.5 C 515.9208984375 216.8512752 510.7721736375 222 504.4208984375 222 C 498.0696232375 222 492.9208984375 216.8512752 492.9208984375 210.5 Z"/></g><g transform="translate(-22,-110) scale(1,1)"><path fill="none" stroke="#000000" d="M 492.9208984375 210.5 C 492.9208984375 204.1487248 498.0696232375 199 504.4208984375 199 C 510.7721736375 199 515.9208984375 204.1487248 515.9208984375 210.5 C 515.9208984375 216.8512752 510.7721736375 222 504.4208984375 222 C 498.0696232375 222 492.9208984375 216.8512752 492.9208984375 210.5 Z" stroke-miterlimit="10"/></g><g transform="translate(-22,-110) scale(1,1)"><g><path fill="none" stroke="none"/><text fill="#000000" stroke="none" font-family="Arial" font-size="13px" font-style="normal" font-weight="bold" text-decoration="none" x="469.010498046875" y="241.5">LongStream</text></g></g><g transform="translate(-22,-110) scale(1,1)"><path fill="#C0C0C0" stroke="none" d="M 645.0654296875 217.5 C 645.0654296875 211.1487248 650.2141544875 206 656.5654296875 206 C 662.9167048875 206 668.0654296875 211.1487248 668.0654296875 217.5 C 668.0654296875 223.8512752 662.9167048875 229 656.5654296875 229 C 650.2141544875 229 645.0654296875 223.8512752 645.0654296875 217.5 Z" opacity="0.2"/></g><g transform="translate(-22,-110) scale(1,1)"><path fill="#00d369" stroke="none" d="M 638.0654296875 210.5 C 638.0654296875 204.1487248 643.2141544875 199 649.5654296875 199 C 655.9167048875 199 661.0654296875 204.1487248 661.0654296875 210.5 C 661.0654296875 216.8512752 655.9167048875 222 649.5654296875 222 C 643.2141544875 222 638.0654296875 216.8512752 638.0654296875 210.5 Z"/></g><g transform="translate(-22,-110) scale(1,1)"><path fill="none" stroke="#000000" d="M 638.0654296875 210.5 C 638.0654296875 204.1487248 643.2141544875 199 649.5654296875 199 C 655.9167048875 199 661.0654296875 204.1487248 661.0654296875 210.5 C 661.0654296875 216.8512752 655.9167048875 222 649.5654296875 222 C 643.2141544875 222 638.0654296875 216.8512752 638.0654296875 210.5 Z" stroke-miterlimit="10"/></g><g transform="translate(-22,-110) scale(1,1)"><g><path fill="none" stroke="none"/><text fill="#000000" stroke="none" font-family="Arial" font-size="13px" font-style="normal" font-weight="bold" text-decoration="none" x="608.016845703125" y="241.5">DoubleStream</text></g></g><g transform="translate(-22,-110) scale(1,1)"><rect fill="#C0C0C0" stroke="none" x="391" y="423" width="111.58447265625" height="44" opacity="0.2"/></g><g transform="translate(-22,-110) scale(1,1)"><rect fill="#ffffff" stroke="none" x="384" y="416" width="111.58447265625" height="44"/></g><g transform="translate(-22,-110) scale(1,1)"><path fill="none" stroke="#000000" d="M 384 416 L 495.58447265625 416 L 495.58447265625 460 L 384 460 L 384 416 Z Z" stroke-miterlimit="10"/></g><g transform="translate(-22,-110) scale(1,1)"><path fill="none" stroke="#000000" d="M 384 441 L 495.58447265625 441" stroke-miterlimit="10"/></g><g transform="translate(-22,-110) scale(1,1)"><path fill="none" stroke="#000000" d="M 384 451 L 495.58447265625 451" stroke-miterlimit="10"/></g><g transform="translate(-22,-110) scale(1,1)"><g><path fill="none" stroke="none"/><text fill="#000000" stroke="none" font-family="Arial" font-size="13px" font-style="italic" font-weight="bold" text-decoration="none" x="392.82275390625" y="435.5">AbstractPipeline</text></g></g><g transform="translate(-22,-110) scale(1,1)"><rect fill="#C0C0C0" stroke="none" x="613" y="342" width="121.71533203125" height="44" opacity="0.2"/></g><g transform="translate(-22,-110) scale(1,1)"><rect fill="#ffffff" stroke="none" x="606" y="335" width="121.71533203125" height="44"/></g><g transform="translate(-22,-110) scale(1,1)"><path fill="none" stroke="#000000" d="M 606 335 L 727.71533203125 335 L 727.71533203125 379 L 606 379 L 606 335 Z Z" stroke-miterlimit="10"/></g><g transform="translate(-22,-110) scale(1,1)"><path fill="none" stroke="#000000" d="M 606 360 L 727.71533203125 360" stroke-miterlimit="10"/></g><g transform="translate(-22,-110) scale(1,1)"><path fill="none" stroke="#000000" d="M 606 370 L 727.71533203125 370" stroke-miterlimit="10"/></g><g transform="translate(-22,-110) scale(1,1)"><g><path fill="none" stroke="none"/><text fill="#000000" stroke="none" font-family="Arial" font-size="13px" font-style="italic" font-weight="bold" text-decoration="none" x="623.1318359375" y="354.5">DoublePipeline</text></g></g><g transform="translate(-22,-110) scale(1,1)"><rect fill="#C0C0C0" stroke="none" x="159" y="342" width="121.71533203125" height="44" opacity="0.2"/></g><g transform="translate(-22,-110) scale(1,1)"><rect fill="#ffffff" stroke="none" x="152" y="335" width="121.71533203125" height="44"/></g><g transform="translate(-22,-110) scale(1,1)"><path fill="none" stroke="#000000" d="M 152 335 L 273.71533203125 335 L 273.71533203125 379 L 152 379 L 152 335 Z Z" stroke-miterlimit="10"/></g><g transform="translate(-22,-110) scale(1,1)"><path fill="none" stroke="#000000" d="M 152 360 L 273.71533203125 360" stroke-miterlimit="10"/></g><g transform="translate(-22,-110) scale(1,1)"><path fill="none" stroke="#000000" d="M 152 370 L 273.71533203125 370" stroke-miterlimit="10"/></g><g transform="translate(-22,-110) scale(1,1)"><g><path fill="none" stroke="none"/><text fill="#000000" stroke="none" font-family="Arial" font-size="13px" font-style="italic" font-weight="bold" text-decoration="none" x="159.740478515625" y="354.5">ReferencePipeline</text></g></g><g transform="translate(-22,-110) scale(1,1)"><rect fill="#C0C0C0" stroke="none" x="313" y="342" width="121.71533203125" height="44" opacity="0.2"/></g><g transform="translate(-22,-110) scale(1,1)"><rect fill="#ffffff" stroke="none" x="306" y="335" width="121.71533203125" height="44"/></g><g transform="translate(-22,-110) scale(1,1)"><path fill="none" stroke="#000000" d="M 306 335 L 427.71533203125 335 L 427.71533203125 379 L 306 379 L 306 335 Z Z" stroke-miterlimit="10"/></g><g transform="translate(-22,-110) scale(1,1)"><path fill="none" stroke="#000000" d="M 306 360 L 427.71533203125 360" stroke-miterlimit="10"/></g><g transform="translate(-22,-110) scale(1,1)"><path fill="none" stroke="#000000" d="M 306 370 L 427.71533203125 370" stroke-miterlimit="10"/></g><g transform="translate(-22,-110) scale(1,1)"><g><path fill="none" stroke="none"/><text fill="#000000" stroke="none" font-family="Arial" font-size="13px" font-style="italic" font-weight="bold" text-decoration="none" x="336.503173828125" y="354.5">IntPipeline</text></g></g><g transform="translate(-22,-110) scale(1,1)"><rect fill="#C0C0C0" stroke="none" x="459" y="342" width="121.71533203125" height="44" opacity="0.2"/></g><g transform="translate(-22,-110) scale(1,1)"><rect fill="#ffffff" stroke="none" x="452" y="335" width="121.71533203125" height="44"/></g><g transform="translate(-22,-110) scale(1,1)"><path fill="none" stroke="#000000" d="M 452 335 L 573.71533203125 335 L 573.71533203125 379 L 452 379 L 452 335 Z Z" stroke-miterlimit="10"/></g><g transform="translate(-22,-110) scale(1,1)"><path fill="none" stroke="#000000" d="M 452 360 L 573.71533203125 360" stroke-miterlimit="10"/></g><g transform="translate(-22,-110) scale(1,1)"><path fill="none" stroke="#000000" d="M 452 370 L 573.71533203125 370" stroke-miterlimit="10"/></g><g transform="translate(-22,-110) scale(1,1)"><g><path fill="none" stroke="none"/><text fill="#000000" stroke="none" font-family="Arial" font-size="13px" font-style="italic" font-weight="bold" text-decoration="none" x="475.27001953125" y="354.5">LongPipeline</text></g></g><g transform="translate(-22,-110) scale(1,1)"><path fill="none" stroke="#000000" d="M 279 208 L 397 161" stroke-miterlimit="10"/></g><g transform="translate(-22,-110) scale(1,1)"><path fill="#FFFFFF" stroke="none" d="M 381.23269048315046 176.34248840963764 L 397 161 L 375.0020509248377 160.69960611429929"/></g><g transform="translate(-22,-110) scale(1,1)"><path fill="none" stroke="#000000" d="M 381.23269048315046 176.34248840963764 L 397 161 L 375.0020509248377 160.69960611429929 L 381.23269048315046 176.34248840963764" stroke-miterlimit="10"/></g><g transform="translate(-22,-110) scale(1,1)"><path fill="none" stroke="#000000" d="M 402 198 L 422 169" stroke-miterlimit="10"/></g><g transform="translate(-22,-110) scale(1,1)"><path fill="#FFFFFF" stroke="none" d="M 417.3912868069987 190.51185168005432 L 422 169 L 403.52997144983925 180.95232384753055"/></g><g transform="translate(-22,-110) scale(1,1)"><path fill="none" stroke="#000000" d="M 417.3912868069987 190.51185168005432 L 422 169 L 403.52997144983925 180.95232384753055 L 417.3912868069987 190.51185168005432" stroke-miterlimit="10"/></g><g transform="translate(-22,-110) scale(1,1)"><path fill="none" stroke="#000000" d="M 484 198 L 460 169" stroke-miterlimit="10"/></g><g transform="translate(-22,-110) scale(1,1)"><path fill="#FFFFFF" stroke="none" d="M 479.4447639027136 179.29082876972143 L 460 169 L 466.47280960708053 190.0262392212798"/></g><g transform="translate(-22,-110) scale(1,1)"><path fill="none" stroke="#000000" d="M 479.4447639027136 179.29082876972143 L 460 169 L 466.47280960708053 190.0262392212798 L 479.4447639027136 179.29082876972143" stroke-miterlimit="10"/></g><g transform="translate(-22,-110) scale(1,1)"><path fill="none" stroke="#000000" d="M 600 204 L 483 160" stroke-miterlimit="10"/></g><g transform="translate(-22,-110) scale(1,1)"><path fill="#FFFFFF" stroke="none" d="M 504.9880278337077 159.27430586050548 L 483 160 L 499.0610268332372 175.03474033902933"/></g><g transform="translate(-22,-110) scale(1,1)"><path fill="none" stroke="#000000" d="M 504.9880278337077 159.27430586050548 L 483 160 L 499.0610268332372 175.03474033902933 L 504.9880278337077 159.27430586050548" stroke-miterlimit="10"/></g><g transform="translate(-22,-110) scale(1,1)"><path fill="none" stroke="#000000" d="M 275 379 L 383 418" stroke-miterlimit="10"/></g><g transform="translate(-22,-110) scale(1,1)"><path fill="#FFFFFF" stroke="none" d="M 361.0234342607174 419.0151641773577 L 383 418 L 366.74239186473403 403.1780508123886"/></g><g transform="translate(-22,-110) scale(1,1)"><path fill="none" stroke="#000000" d="M 361.0234342607174 419.0151641773577 L 383 418 L 366.74239186473403 403.1780508123886 L 361.0234342607174 419.0151641773577" stroke-miterlimit="10"/></g><g transform="translate(-22,-110) scale(1,1)"><path fill="none" stroke="#000000" d="M 387 380 L 418 415" stroke-miterlimit="10"/></g><g transform="translate(-22,-110) scale(1,1)"><path fill="#FFFFFF" stroke="none" d="M 398.22118629305345 405.36680072115695 L 418 415 L 410.8259672385839 394.20256616940134"/></g><g transform="translate(-22,-110) scale(1,1)"><path fill="none" stroke="#000000" d="M 398.22118629305345 405.36680072115695 L 418 415 L 410.8259672385839 394.20256616940134 L 398.22118629305345 405.36680072115695" stroke-miterlimit="10"/></g><g transform="translate(-22,-110) scale(1,1)"><path fill="none" stroke="#000000" d="M 491 380 L 460 415" stroke-miterlimit="10"/></g><g transform="translate(-22,-110) scale(1,1)"><path fill="#FFFFFF" stroke="none" d="M 467.1740327614161 394.20256616940134 L 460 415 L 479.77881370694655 405.36680072115695"/></g><g transform="translate(-22,-110) scale(1,1)"><path fill="none" stroke="#000000" d="M 467.1740327614161 394.20256616940134 L 460 415 L 479.77881370694655 405.36680072115695 L 467.1740327614161 394.20256616940134" stroke-miterlimit="10"/></g><g transform="translate(-22,-110) scale(1,1)"><path fill="none" stroke="#000000" d="M 605 379 L 497 417" stroke-miterlimit="10"/></g><g transform="translate(-22,-110) scale(1,1)"><path fill="#FFFFFF" stroke="none" d="M 513.3788240524489 402.3121096593513 L 497 417 L 518.9674844165451 418.19567069415086"/></g><g transform="translate(-22,-110) scale(1,1)"><path fill="none" stroke="#000000" d="M 513.3788240524489 402.3121096593513 L 497 417 L 518.9674844165451 418.19567069415086 L 513.3788240524489 402.3121096593513" stroke-miterlimit="10"/></g><g transform="translate(-22,-110) scale(1,1)"><path fill="none" stroke="#000000" d="M 243 335 L 243 222" stroke-miterlimit="10"/></g><g transform="translate(-22,-110) scale(1,1)"><path fill="none" stroke="#000000" d="M 384 335 L 384 222" stroke-miterlimit="10"/></g><g transform="translate(-22,-110) scale(1,1)"><path fill="none" stroke="#000000" d="M 504 335 L 504 222" stroke-miterlimit="10"/></g><g transform="translate(-22,-110) scale(1,1)"><path fill="none" stroke="#000000" d="M 649 335 L 649 222" stroke-miterlimit="10"/></g><g transform="translate(-22,-110) scale(1,1)"><path fill="none" stroke="#000000" d="M 440 416 L 440 143" stroke-miterlimit="10"/></g><g transform="translate(-22,-110) scale(1,1)"><rect fill="#C0C0C0" stroke="none" x="39" y="264" width="102.90087890625" height="44" opacity="0.2"/></g><g transform="translate(-22,-110) scale(1,1)"><rect fill="#00d369" stroke="none" x="32" y="257" width="102.90087890625" height="44"/></g><g transform="translate(-22,-110) scale(1,1)"><path fill="none" stroke="#000000" d="M 32 257 L 134.90087890625 257 L 134.90087890625 301 L 32 301 L 32 257 Z Z" stroke-miterlimit="10"/></g><g transform="translate(-22,-110) scale(1,1)"><path fill="none" stroke="#000000" d="M 32 282 L 134.90087890625 282" stroke-miterlimit="10"/></g><g transform="translate(-22,-110) scale(1,1)"><path fill="none" stroke="#000000" d="M 32 292 L 134.90087890625 292" stroke-miterlimit="10"/></g><g transform="translate(-22,-110) scale(1,1)"><g><path fill="none" stroke="none"/><text fill="#000000" stroke="none" font-family="Arial" font-size="13px" font-style="normal" font-weight="bold" text-decoration="none" x="39.734130859375" y="276.5">StreamSupport</text></g></g><g transform="translate(-22,-110) scale(1,1)"><rect fill="#C0C0C0" stroke="none" x="183" y="264" width="50.919921875" height="44" opacity="0.2"/></g><g transform="translate(-22,-110) scale(1,1)"><rect fill="#ffffff" stroke="none" x="176" y="257" width="50.919921875" height="44"/></g><g transform="translate(-22,-110) scale(1,1)"><path fill="none" stroke="#000000" d="M 176 257 L 226.919921875 257 L 226.919921875 301 L 176 301 L 176 257 Z Z" stroke-miterlimit="10"/></g><g transform="translate(-22,-110) scale(1,1)"><path fill="none" stroke="#000000" d="M 176 282 L 226.919921875 282" stroke-miterlimit="10"/></g><g transform="translate(-22,-110) scale(1,1)"><path fill="none" stroke="#000000" d="M 176 292 L 226.919921875 292" stroke-miterlimit="10"/></g><g transform="translate(-22,-110) scale(1,1)"><g><path fill="none" stroke="none"/><text fill="#000000" stroke="none" font-family="Arial" font-size="13px" font-style="normal" font-weight="bold" text-decoration="none" x="185.9208984375" y="276.5">Head</text></g></g><g transform="translate(-22,-110) scale(1,1)"><path fill="none" stroke="#000000" d="M 203 301 L 203 335" stroke-miterlimit="10"/></g><g transform="translate(-22,-110) scale(1,1)"><path fill="#FFFFFF" stroke="none" d="M 194.58096448796803 314.6746502847517 L 203 335 L 211.41903551203197 314.6746502847517"/></g><g transform="translate(-22,-110) scale(1,1)"><path fill="none" stroke="#000000" d="M 194.58096448796803 314.6746502847517 L 203 335 L 211.41903551203197 314.6746502847517 L 194.58096448796803 314.6746502847517" stroke-miterlimit="10"/></g><g transform="translate(-22,-110) scale(1,1)"><rect fill="#C0C0C0" stroke="none" x="327" y="264" width="50.919921875" height="44" opacity="0.2"/></g><g transform="translate(-22,-110) scale(1,1)"><rect fill="#ffffff" stroke="none" x="320" y="257" width="50.919921875" height="44"/></g><g transform="translate(-22,-110) scale(1,1)"><path fill="none" stroke="#000000" d="M 320 257 L 370.919921875 257 L 370.919921875 301 L 320 301 L 320 257 Z Z" stroke-miterlimit="10"/></g><g transform="translate(-22,-110) scale(1,1)"><path fill="none" stroke="#000000" d="M 320 282 L 370.919921875 282" stroke-miterlimit="10"/></g><g transform="translate(-22,-110) scale(1,1)"><path fill="none" stroke="#000000" d="M 320 292 L 370.919921875 292" stroke-miterlimit="10"/></g><g transform="translate(-22,-110) scale(1,1)"><g><path fill="none" stroke="none"/><text fill="#000000" stroke="none" font-family="Arial" font-size="13px" font-style="normal" font-weight="bold" text-decoration="none" x="329.9208984375" y="276.5">Head</text></g></g><g transform="translate(-22,-110) scale(1,1)"><rect fill="#C0C0C0" stroke="none" x="519" y="264" width="50.919921875" height="44" opacity="0.2"/></g><g transform="translate(-22,-110) scale(1,1)"><rect fill="#ffffff" stroke="none" x="512" y="257" width="50.919921875" height="44"/></g><g transform="translate(-22,-110) scale(1,1)"><path fill="none" stroke="#000000" d="M 512 257 L 562.919921875 257 L 562.919921875 301 L 512 301 L 512 257 Z Z" stroke-miterlimit="10"/></g><g transform="translate(-22,-110) scale(1,1)"><path fill="none" stroke="#000000" d="M 512 282 L 562.919921875 282" stroke-miterlimit="10"/></g><g transform="translate(-22,-110) scale(1,1)"><path fill="none" stroke="#000000" d="M 512 292 L 562.919921875 292" stroke-miterlimit="10"/></g><g transform="translate(-22,-110) scale(1,1)"><g><path fill="none" stroke="none"/><text fill="#000000" stroke="none" font-family="Arial" font-size="13px" font-style="normal" font-weight="bold" text-decoration="none" x="521.9208984375" y="276.5">Head</text></g></g><g transform="translate(-22,-110) scale(1,1)"><rect fill="#C0C0C0" stroke="none" x="663" y="264" width="50.919921875" height="44" opacity="0.2"/></g><g transform="translate(-22,-110) scale(1,1)"><rect fill="#ffffff" stroke="none" x="656" y="257" width="50.919921875" height="44"/></g><g transform="translate(-22,-110) scale(1,1)"><path fill="none" stroke="#000000" d="M 656 257 L 706.919921875 257 L 706.919921875 301 L 656 301 L 656 257 Z Z" stroke-miterlimit="10"/></g><g transform="translate(-22,-110) scale(1,1)"><path fill="none" stroke="#000000" d="M 656 282 L 706.919921875 282" stroke-miterlimit="10"/></g><g transform="translate(-22,-110) scale(1,1)"><path fill="none" stroke="#000000" d="M 656 292 L 706.919921875 292" stroke-miterlimit="10"/></g><g transform="translate(-22,-110) scale(1,1)"><g><path fill="none" stroke="none"/><text fill="#000000" stroke="none" font-family="Arial" font-size="13px" font-style="normal" font-weight="bold" text-decoration="none" x="665.9208984375" y="276.5">Head</text></g></g><g transform="translate(-22,-110) scale(1,1)"><path fill="none" stroke="#000000" d="M 349 301 L 349 335" stroke-miterlimit="10"/></g><g transform="translate(-22,-110) scale(1,1)"><path fill="#FFFFFF" stroke="none" d="M 340.580964487968 314.6746502847517 L 349 335 L 357.419035512032 314.6746502847517"/></g><g transform="translate(-22,-110) scale(1,1)"><path fill="none" stroke="#000000" d="M 340.580964487968 314.6746502847517 L 349 335 L 357.419035512032 314.6746502847517 L 340.580964487968 314.6746502847517" stroke-miterlimit="10"/></g><g transform="translate(-22,-110) scale(1,1)"><path fill="none" stroke="#000000" d="M 541 301 L 541 335" stroke-miterlimit="10"/></g><g transform="translate(-22,-110) scale(1,1)"><path fill="#FFFFFF" stroke="none" d="M 532.580964487968 314.6746502847517 L 541 335 L 549.419035512032 314.6746502847517"/></g><g transform="translate(-22,-110) scale(1,1)"><path fill="none" stroke="#000000" d="M 532.580964487968 314.6746502847517 L 541 335 L 549.419035512032 314.6746502847517 L 532.580964487968 314.6746502847517" stroke-miterlimit="10"/></g><g transform="translate(-22,-110) scale(1,1)"><path fill="none" stroke="#000000" d="M 685 301 L 685 335" stroke-miterlimit="10"/></g><g transform="translate(-22,-110) scale(1,1)"><path fill="#FFFFFF" stroke="none" d="M 676.580964487968 314.6746502847517 L 685 335 L 693.419035512032 314.6746502847517"/></g><g transform="translate(-22,-110) scale(1,1)"><path fill="none" stroke="#000000" d="M 676.580964487968 314.6746502847517 L 685 335 L 693.419035512032 314.6746502847517 L 676.580964487968 314.6746502847517" stroke-miterlimit="10"/></g></g></svg>