<svg version="1.1" xmlns="http://www.w3.org/2000/svg" xmlns:xlink="http://www.w3.org/1999/xlink" width="969.13720703125" height="596"><defs/><g><g transform="translate(26,-41) scale(1,1)"><path fill="#C0C0C0" stroke="none" d="M 354.107666015625 69.5 C 354.107666015625 63.1487248 359.256390815625 58 365.607666015625 58 C 371.958941215625 58 377.107666015625 63.1487248 377.107666015625 69.5 C 377.107666015625 75.8512752 371.958941215625 81 365.607666015625 81 C 359.256390815625 81 354.107666015625 75.8512752 354.107666015625 69.5 Z" opacity="0.2"/></g><g transform="translate(26,-41) scale(1,1)"><path fill="#ffffff" stroke="none" d="M 347.107666015625 62.5 C 347.107666015625 56.1487248 352.256390815625 51 358.607666015625 51 C 364.958941215625 51 370.107666015625 56.1487248 370.107666015625 62.5 C 370.107666015625 68.8512752 364.958941215625 74 358.607666015625 74 C 352.256390815625 74 347.107666015625 68.8512752 347.107666015625 62.5 Z"/></g><g transform="translate(26,-41) scale(1,1)"><path fill="none" stroke="#000000" d="M 347.107666015625 62.5 C 347.107666015625 56.1487248 352.256390815625 51 358.607666015625 51 C 364.958941215625 51 370.107666015625 56.1487248 370.107666015625 62.5 C 370.107666015625 68.8512752 364.958941215625 74 358.607666015625 74 C 352.256390815625 74 347.107666015625 68.8512752 347.107666015625 62.5 Z" stroke-miterlimit="10"/></g><g transform="translate(26,-41) scale(1,1)"><g><path fill="none" stroke="none"/><text fill="#000000" stroke="none" font-family="Arial" font-size="13px" font-style="normal" font-weight="bold" text-decoration="none" x="296.83544921875" y="93.5">java.io.FilenameFilter</text></g></g><g transform="translate(26,-41) scale(1,1)"><path fill="#C0C0C0" stroke="none" d="M 513.127685546875 69.5 C 513.127685546875 63.1487248 518.276410346875 58 524.627685546875 58 C 530.978960746875 58 536.127685546875 63.1487248 536.127685546875 69.5 C 536.127685546875 75.8512752 530.978960746875 81 524.627685546875 81 C 518.276410346875 81 513.127685546875 75.8512752 513.127685546875 69.5 Z" opacity="0.2"/></g><g transform="translate(26,-41) scale(1,1)"><path fill="#ffffff" stroke="none" d="M 506.127685546875 62.5 C 506.127685546875 56.1487248 511.276410346875 51 517.627685546875 51 C 523.978960746875 51 529.127685546875 56.1487248 529.127685546875 62.5 C 529.127685546875 68.8512752 523.978960746875 74 517.627685546875 74 C 511.276410346875 74 506.127685546875 68.8512752 506.127685546875 62.5 Z"/></g><g transform="translate(26,-41) scale(1,1)"><path fill="none" stroke="#000000" d="M 506.127685546875 62.5 C 506.127685546875 56.1487248 511.276410346875 51 517.627685546875 51 C 523.978960746875 51 529.127685546875 56.1487248 529.127685546875 62.5 C 529.127685546875 68.8512752 523.978960746875 74 517.627685546875 74 C 511.276410346875 74 506.127685546875 68.8512752 506.127685546875 62.5 Z" stroke-miterlimit="10"/></g><g transform="translate(26,-41) scale(1,1)"><g><path fill="none" stroke="none"/><text fill="#000000" stroke="none" font-family="Arial" font-size="13px" font-style="normal" font-weight="bold" text-decoration="none" x="472.114990234375" y="93.5">java.io.FileFilter</text></g></g><g transform="translate(26,-41) scale(1,1)"><path fill="#C0C0C0" stroke="none" d="M 433.950439453125 162.5 C 433.950439453125 156.1487248 439.099164253125 151 445.450439453125 151 C 451.801714653125 151 456.950439453125 156.1487248 456.950439453125 162.5 C 456.950439453125 168.8512752 451.801714653125 174 445.450439453125 174 C 439.099164253125 174 433.950439453125 168.8512752 433.950439453125 162.5 Z" opacity="0.2"/></g><g transform="translate(26,-41) scale(1,1)"><path fill="#ffffff" stroke="none" d="M 426.950439453125 155.5 C 426.950439453125 149.1487248 432.099164253125 144 438.450439453125 144 C 444.801714653125 144 449.950439453125 149.1487248 449.950439453125 155.5 C 449.950439453125 161.8512752 444.801714653125 167 438.450439453125 167 C 432.099164253125 167 426.950439453125 161.8512752 426.950439453125 155.5 Z"/></g><g transform="translate(26,-41) scale(1,1)"><path fill="none" stroke="#000000" d="M 426.950439453125 155.5 C 426.950439453125 149.1487248 432.099164253125 144 438.450439453125 144 C 444.801714653125 144 449.950439453125 149.1487248 449.950439453125 155.5 C 449.950439453125 161.8512752 444.801714653125 167 438.450439453125 167 C 432.099164253125 167 426.950439453125 161.8512752 426.950439453125 155.5 Z" stroke-miterlimit="10"/></g><g transform="translate(26,-41) scale(1,1)"><g><path fill="none" stroke="none"/><text fill="#000000" stroke="none" font-family="Arial" font-size="13px" font-style="normal" font-weight="bold" text-decoration="none" x="406.6708984375" y="186.5">IOFileFilter</text></g></g><g transform="translate(26,-41) scale(1,1)"><rect fill="#C0C0C0" stroke="none" x="390" y="239" width="115.91357421875" height="44" opacity="0.2"/></g><g transform="translate(26,-41) scale(1,1)"><rect fill="#ffffff" stroke="none" x="383" y="232" width="115.91357421875" height="44"/></g><g transform="translate(26,-41) scale(1,1)"><path fill="none" stroke="#000000" d="M 383 232 L 498.91357421875 232 L 498.91357421875 276 L 383 276 L 383 232 Z Z" stroke-miterlimit="10"/></g><g transform="translate(26,-41) scale(1,1)"><path fill="none" stroke="#000000" d="M 383 257 L 498.91357421875 257" stroke-miterlimit="10"/></g><g transform="translate(26,-41) scale(1,1)"><path fill="none" stroke="#000000" d="M 383 267 L 498.91357421875 267" stroke-miterlimit="10"/></g><g transform="translate(26,-41) scale(1,1)"><g><path fill="none" stroke="none"/><text fill="#000000" stroke="none" font-family="Arial" font-size="13px" font-style="normal" font-weight="bold" text-decoration="none" x="392.197265625" y="251.5">AbstractFileFilter</text></g></g><g transform="translate(26,-41) scale(1,1)"><rect fill="#C0C0C0" stroke="none" x="542" y="239" width="96.419921875" height="44" opacity="0.2"/></g><g transform="translate(26,-41) scale(1,1)"><rect fill="#ffffff" stroke="none" x="535" y="232" width="96.419921875" height="44"/></g><g transform="translate(26,-41) scale(1,1)"><path fill="none" stroke="#000000" d="M 535 232 L 631.419921875 232 L 631.419921875 276 L 535 276 L 535 232 Z Z" stroke-miterlimit="10"/></g><g transform="translate(26,-41) scale(1,1)"><path fill="none" stroke="#000000" d="M 535 257 L 631.419921875 257" stroke-miterlimit="10"/></g><g transform="translate(26,-41) scale(1,1)"><path fill="none" stroke="#000000" d="M 535 267 L 631.419921875 267" stroke-miterlimit="10"/></g><g transform="translate(26,-41) scale(1,1)"><g><path fill="none" stroke="none"/><text fill="#000000" stroke="none" font-family="Arial" font-size="13px" font-style="normal" font-weight="bold" text-decoration="none" x="542.397705078125" y="251.5">FalseFileFilter</text></g></g><g transform="translate(26,-41) scale(1,1)"><rect fill="#C0C0C0" stroke="none" x="263" y="239" width="91.34814453125" height="44" opacity="0.2"/></g><g transform="translate(26,-41) scale(1,1)"><rect fill="#ffffff" stroke="none" x="256" y="232" width="91.34814453125" height="44"/></g><g transform="translate(26,-41) scale(1,1)"><path fill="none" stroke="#000000" d="M 256 232 L 347.34814453125 232 L 347.34814453125 276 L 256 276 L 256 232 Z Z" stroke-miterlimit="10"/></g><g transform="translate(26,-41) scale(1,1)"><path fill="none" stroke="#000000" d="M 256 257 L 347.34814453125 257" stroke-miterlimit="10"/></g><g transform="translate(26,-41) scale(1,1)"><path fill="none" stroke="#000000" d="M 256 267 L 347.34814453125 267" stroke-miterlimit="10"/></g><g transform="translate(26,-41) scale(1,1)"><g><path fill="none" stroke="none"/><text fill="#000000" stroke="none" font-family="Arial" font-size="13px" font-style="normal" font-weight="bold" text-decoration="none" x="263.391357421875" y="251.5">TrueFileFilter</text></g></g><g transform="translate(26,-41) scale(1,1)"><rect fill="#C0C0C0" stroke="none" x="403" y="523" width="87.736328125" height="44" opacity="0.2"/></g><g transform="translate(26,-41) scale(1,1)"><rect fill="#ffffff" stroke="none" x="396" y="516" width="87.736328125" height="44"/></g><g transform="translate(26,-41) scale(1,1)"><path fill="none" stroke="#000000" d="M 396 516 L 483.736328125 516 L 483.736328125 560 L 396 560 L 396 516 Z Z" stroke-miterlimit="10"/></g><g transform="translate(26,-41) scale(1,1)"><path fill="none" stroke="#000000" d="M 396 541 L 483.736328125 541" stroke-miterlimit="10"/></g><g transform="translate(26,-41) scale(1,1)"><path fill="none" stroke="#000000" d="M 396 551 L 483.736328125 551" stroke-miterlimit="10"/></g><g transform="translate(26,-41) scale(1,1)"><g><path fill="none" stroke="none"/><text fill="#000000" stroke="none" font-family="Arial" font-size="13px" font-style="normal" font-weight="bold" text-decoration="none" x="403.385009765625" y="535.5">AgeFileFilter</text></g></g><g transform="translate(26,-41) scale(1,1)"><rect fill="#C0C0C0" stroke="none" x="130" y="336" width="88.447265625" height="44" opacity="0.2"/></g><g transform="translate(26,-41) scale(1,1)"><rect fill="#ffffff" stroke="none" x="123" y="329" width="88.447265625" height="44"/></g><g transform="translate(26,-41) scale(1,1)"><path fill="none" stroke="#000000" d="M 123 329 L 211.447265625 329 L 211.447265625 373 L 123 373 L 123 329 Z Z" stroke-miterlimit="10"/></g><g transform="translate(26,-41) scale(1,1)"><path fill="none" stroke="#000000" d="M 123 354 L 211.447265625 354" stroke-miterlimit="10"/></g><g transform="translate(26,-41) scale(1,1)"><path fill="none" stroke="#000000" d="M 123 364 L 211.447265625 364" stroke-miterlimit="10"/></g><g transform="translate(26,-41) scale(1,1)"><g><path fill="none" stroke="none"/><text fill="#000000" stroke="none" font-family="Arial" font-size="13px" font-style="normal" font-weight="bold" text-decoration="none" x="130.740478515625" y="348.5">AndFileFilter</text></g></g><g transform="translate(26,-41) scale(1,1)"><rect fill="#C0C0C0" stroke="none" x="387" y="336" width="119.525390625" height="44" opacity="0.2"/></g><g transform="translate(26,-41) scale(1,1)"><rect fill="#ffffff" stroke="none" x="380" y="329" width="119.525390625" height="44"/></g><g transform="translate(26,-41) scale(1,1)"><path fill="none" stroke="#000000" d="M 380 329 L 499.525390625 329 L 499.525390625 373 L 380 373 L 380 329 Z Z" stroke-miterlimit="10"/></g><g transform="translate(26,-41) scale(1,1)"><path fill="none" stroke="#000000" d="M 380 354 L 499.525390625 354" stroke-miterlimit="10"/></g><g transform="translate(26,-41) scale(1,1)"><path fill="none" stroke="#000000" d="M 380 364 L 499.525390625 364" stroke-miterlimit="10"/></g><g transform="translate(26,-41) scale(1,1)"><g><path fill="none" stroke="none"/><text fill="#000000" stroke="none" font-family="Arial" font-size="13px" font-style="normal" font-weight="bold" text-decoration="none" x="387.3818359375" y="348.5">CanReadFileFilter</text></g></g><g transform="translate(26,-41) scale(1,1)"><rect fill="#C0C0C0" stroke="none" x="386" y="399" width="120.236328125" height="44" opacity="0.2"/></g><g transform="translate(26,-41) scale(1,1)"><rect fill="#ffffff" stroke="none" x="379" y="392" width="120.236328125" height="44"/></g><g transform="translate(26,-41) scale(1,1)"><path fill="none" stroke="#000000" d="M 379 392 L 499.236328125 392 L 499.236328125 436 L 379 436 L 379 392 Z Z" stroke-miterlimit="10"/></g><g transform="translate(26,-41) scale(1,1)"><path fill="none" stroke="#000000" d="M 379 417 L 499.236328125 417" stroke-miterlimit="10"/></g><g transform="translate(26,-41) scale(1,1)"><path fill="none" stroke="#000000" d="M 379 427 L 499.236328125 427" stroke-miterlimit="10"/></g><g transform="translate(26,-41) scale(1,1)"><g><path fill="none" stroke="none"/><text fill="#000000" stroke="none" font-family="Arial" font-size="13px" font-style="normal" font-weight="bold" text-decoration="none" x="387.11181640625" y="411.5">CanWriteFileFilter</text></g></g><g transform="translate(26,-41) scale(1,1)"><rect fill="#C0C0C0" stroke="none" x="-9" y="336" width="117.3671875" height="44" opacity="0.2"/></g><g transform="translate(26,-41) scale(1,1)"><rect fill="#ffffff" stroke="none" x="-16" y="329" width="117.3671875" height="44"/></g><g transform="translate(26,-41) scale(1,1)"><path fill="none" stroke="#000000" d="M -16 329 L 101.3671875 329 L 101.3671875 373 L -16 373 L -16 329 Z Z" stroke-miterlimit="10"/></g><g transform="translate(26,-41) scale(1,1)"><path fill="none" stroke="#000000" d="M -16 354 L 101.3671875 354" stroke-miterlimit="10"/></g><g transform="translate(26,-41) scale(1,1)"><path fill="none" stroke="#000000" d="M -16 364 L 101.3671875 364" stroke-miterlimit="10"/></g><g transform="translate(26,-41) scale(1,1)"><g><path fill="none" stroke="none"/><text fill="#000000" stroke="none" font-family="Arial" font-size="13px" font-style="normal" font-weight="bold" text-decoration="none" x="-8.253173828125" y="348.5">DelegateFileFilter</text></g></g><g transform="translate(26,-41) scale(1,1)"><rect fill="#C0C0C0" stroke="none" x="534" y="399" width="120.25537109375" height="44" opacity="0.2"/></g><g transform="translate(26,-41) scale(1,1)"><rect fill="#ffffff" stroke="none" x="527" y="392" width="120.25537109375" height="44"/></g><g transform="translate(26,-41) scale(1,1)"><path fill="none" stroke="#000000" d="M 527 392 L 647.25537109375 392 L 647.25537109375 436 L 527 436 L 527 392 Z Z" stroke-miterlimit="10"/></g><g transform="translate(26,-41) scale(1,1)"><path fill="none" stroke="#000000" d="M 527 417 L 647.25537109375 417" stroke-miterlimit="10"/></g><g transform="translate(26,-41) scale(1,1)"><path fill="none" stroke="#000000" d="M 527 427 L 647.25537109375 427" stroke-miterlimit="10"/></g><g transform="translate(26,-41) scale(1,1)"><g><path fill="none" stroke="none"/><text fill="#000000" stroke="none" font-family="Arial" font-size="13px" font-style="normal" font-weight="bold" text-decoration="none" x="536.206787109375" y="411.5">DirectoryFileFilter</text></g></g><g transform="translate(26,-41) scale(1,1)"><rect fill="#C0C0C0" stroke="none" x="670" y="399" width="102.9072265625" height="44" opacity="0.2"/></g><g transform="translate(26,-41) scale(1,1)"><rect fill="#ffffff" stroke="none" x="663" y="392" width="102.9072265625" height="44"/></g><g transform="translate(26,-41) scale(1,1)"><path fill="none" stroke="#000000" d="M 663 392 L 765.9072265625 392 L 765.9072265625 436 L 663 436 L 663 392 Z Z" stroke-miterlimit="10"/></g><g transform="translate(26,-41) scale(1,1)"><path fill="none" stroke="#000000" d="M 663 417 L 765.9072265625 417" stroke-miterlimit="10"/></g><g transform="translate(26,-41) scale(1,1)"><path fill="none" stroke="#000000" d="M 663 427 L 765.9072265625 427" stroke-miterlimit="10"/></g><g transform="translate(26,-41) scale(1,1)"><g><path fill="none" stroke="none"/><text fill="#000000" stroke="none" font-family="Arial" font-size="13px" font-style="normal" font-weight="bold" text-decoration="none" x="671.114990234375" y="411.5">EmptyFileFilter</text></g></g><g transform="translate(26,-41) scale(1,1)"><rect fill="#C0C0C0" stroke="none" x="552" y="336" width="85.57177734375" height="44" opacity="0.2"/></g><g transform="translate(26,-41) scale(1,1)"><rect fill="#ffffff" stroke="none" x="545" y="329" width="85.57177734375" height="44"/></g><g transform="translate(26,-41) scale(1,1)"><path fill="none" stroke="#000000" d="M 545 329 L 630.57177734375 329 L 630.57177734375 373 L 545 373 L 545 329 Z Z" stroke-miterlimit="10"/></g><g transform="translate(26,-41) scale(1,1)"><path fill="none" stroke="#000000" d="M 545 354 L 630.57177734375 354" stroke-miterlimit="10"/></g><g transform="translate(26,-41) scale(1,1)"><path fill="none" stroke="#000000" d="M 545 364 L 630.57177734375 364" stroke-miterlimit="10"/></g><g transform="translate(26,-41) scale(1,1)"><g><path fill="none" stroke="none"/><text fill="#000000" stroke="none" font-family="Arial" font-size="13px" font-style="normal" font-weight="bold" text-decoration="none" x="552.39453125" y="348.5">FileFileFilter</text></g></g><g transform="translate(26,-41) scale(1,1)"><rect fill="#C0C0C0" stroke="none" x="393" y="461" width="107.22998046875" height="44" opacity="0.2"/></g><g transform="translate(26,-41) scale(1,1)"><rect fill="#ffffff" stroke="none" x="386" y="454" width="107.22998046875" height="44"/></g><g transform="translate(26,-41) scale(1,1)"><path fill="none" stroke="#000000" d="M 386 454 L 493.22998046875 454 L 493.22998046875 498 L 386 498 L 386 454 Z Z" stroke-miterlimit="10"/></g><g transform="translate(26,-41) scale(1,1)"><path fill="none" stroke="#000000" d="M 386 479 L 493.22998046875 479" stroke-miterlimit="10"/></g><g transform="translate(26,-41) scale(1,1)"><path fill="none" stroke="#000000" d="M 386 489 L 493.22998046875 489" stroke-miterlimit="10"/></g><g transform="translate(26,-41) scale(1,1)"><g><path fill="none" stroke="none"/><text fill="#000000" stroke="none" font-family="Arial" font-size="13px" font-style="normal" font-weight="bold" text-decoration="none" x="394.09912109375" y="473.5">HiddenFileFilter</text></g></g><g transform="translate(26,-41) scale(1,1)"><rect fill="#C0C0C0" stroke="none" x="791" y="336" width="149.13720703125" height="44" opacity="0.2"/></g><g transform="translate(26,-41) scale(1,1)"><rect fill="#ffffff" stroke="none" x="784" y="329" width="149.13720703125" height="44"/></g><g transform="translate(26,-41) scale(1,1)"><path fill="none" stroke="#000000" d="M 784 329 L 933.13720703125 329 L 933.13720703125 373 L 784 373 L 784 329 Z Z" stroke-miterlimit="10"/></g><g transform="translate(26,-41) scale(1,1)"><path fill="none" stroke="#000000" d="M 784 354 L 933.13720703125 354" stroke-miterlimit="10"/></g><g transform="translate(26,-41) scale(1,1)"><path fill="none" stroke="#000000" d="M 784 364 L 933.13720703125 364" stroke-miterlimit="10"/></g><g transform="translate(26,-41) scale(1,1)"><g><path fill="none" stroke="none"/><text fill="#000000" stroke="none" font-family="Arial" font-size="13px" font-style="normal" font-weight="bold" text-decoration="none" x="793.194091796875" y="348.5">MagicNumberFileFilter</text></g></g><g transform="translate(26,-41) scale(1,1)"><rect fill="#C0C0C0" stroke="none" x="248" y="336" width="98.58447265625" height="44" opacity="0.2"/></g><g transform="translate(26,-41) scale(1,1)"><rect fill="#ffffff" stroke="none" x="241" y="329" width="98.58447265625" height="44"/></g><g transform="translate(26,-41) scale(1,1)"><path fill="none" stroke="#000000" d="M 241 329 L 339.58447265625 329 L 339.58447265625 373 L 241 373 L 241 329 Z Z" stroke-miterlimit="10"/></g><g transform="translate(26,-41) scale(1,1)"><path fill="none" stroke="#000000" d="M 241 354 L 339.58447265625 354" stroke-miterlimit="10"/></g><g transform="translate(26,-41) scale(1,1)"><path fill="none" stroke="#000000" d="M 241 364 L 339.58447265625 364" stroke-miterlimit="10"/></g><g transform="translate(26,-41) scale(1,1)"><g><path fill="none" stroke="none"/><text fill="#000000" stroke="none" font-family="Arial" font-size="13px" font-style="normal" font-weight="bold" text-decoration="none" x="248.035888671875" y="348.5">NameFileFilter</text></g></g><g transform="translate(26,-41) scale(1,1)"><rect fill="#C0C0C0" stroke="none" x="132" y="461" width="84.83544921875" height="44" opacity="0.2"/></g><g transform="translate(26,-41) scale(1,1)"><rect fill="#ffffff" stroke="none" x="125" y="454" width="84.83544921875" height="44"/></g><g transform="translate(26,-41) scale(1,1)"><path fill="none" stroke="#000000" d="M 125 454 L 209.83544921875 454 L 209.83544921875 498 L 125 498 L 125 454 Z Z" stroke-miterlimit="10"/></g><g transform="translate(26,-41) scale(1,1)"><path fill="none" stroke="#000000" d="M 125 479 L 209.83544921875 479" stroke-miterlimit="10"/></g><g transform="translate(26,-41) scale(1,1)"><path fill="none" stroke="#000000" d="M 125 489 L 209.83544921875 489" stroke-miterlimit="10"/></g><g transform="translate(26,-41) scale(1,1)"><g><path fill="none" stroke="none"/><text fill="#000000" stroke="none" font-family="Arial" font-size="13px" font-style="normal" font-weight="bold" text-decoration="none" x="132.385009765625" y="473.5">NotFileFilter</text></g></g><g transform="translate(26,-41) scale(1,1)"><rect fill="#C0C0C0" stroke="none" x="135" y="399" width="78.34814453125" height="44" opacity="0.2"/></g><g transform="translate(26,-41) scale(1,1)"><rect fill="#ffffff" stroke="none" x="128" y="392" width="78.34814453125" height="44"/></g><g transform="translate(26,-41) scale(1,1)"><path fill="none" stroke="#000000" d="M 128 392 L 206.34814453125 392 L 206.34814453125 436 L 128 436 L 128 392 Z Z" stroke-miterlimit="10"/></g><g transform="translate(26,-41) scale(1,1)"><path fill="none" stroke="#000000" d="M 128 417 L 206.34814453125 417" stroke-miterlimit="10"/></g><g transform="translate(26,-41) scale(1,1)"><path fill="none" stroke="#000000" d="M 128 427 L 206.34814453125 427" stroke-miterlimit="10"/></g><g transform="translate(26,-41) scale(1,1)"><g><path fill="none" stroke="none"/><text fill="#000000" stroke="none" font-family="Arial" font-size="13px" font-style="normal" font-weight="bold" text-decoration="none" x="135.035888671875" y="411.5">OrFileFilter</text></g></g><g transform="translate(26,-41) scale(1,1)"><rect fill="#C0C0C0" stroke="none" x="248" y="399" width="99.30810546875" height="44" opacity="0.2"/></g><g transform="translate(26,-41) scale(1,1)"><rect fill="#ffffff" stroke="none" x="241" y="392" width="99.30810546875" height="44"/></g><g transform="translate(26,-41) scale(1,1)"><path fill="none" stroke="#000000" d="M 241 392 L 340.30810546875 392 L 340.30810546875 436 L 241 436 L 241 392 Z Z" stroke-miterlimit="10"/></g><g transform="translate(26,-41) scale(1,1)"><path fill="none" stroke="#000000" d="M 241 417 L 340.30810546875 417" stroke-miterlimit="10"/></g><g transform="translate(26,-41) scale(1,1)"><path fill="none" stroke="#000000" d="M 241 427 L 340.30810546875 427" stroke-miterlimit="10"/></g><g transform="translate(26,-41) scale(1,1)"><g><path fill="none" stroke="none"/><text fill="#000000" stroke="none" font-family="Arial" font-size="13px" font-style="normal" font-weight="bold" text-decoration="none" x="249.121337890625" y="411.5">PrefixFileFilter</text></g></g><g transform="translate(26,-41) scale(1,1)"><rect fill="#C0C0C0" stroke="none" x="246" y="461" width="102.1962890625" height="44" opacity="0.2"/></g><g transform="translate(26,-41) scale(1,1)"><rect fill="#ffffff" stroke="none" x="239" y="454" width="102.1962890625" height="44"/></g><g transform="translate(26,-41) scale(1,1)"><path fill="none" stroke="#000000" d="M 239 454 L 341.1962890625 454 L 341.1962890625 498 L 239 498 L 239 454 Z Z" stroke-miterlimit="10"/></g><g transform="translate(26,-41) scale(1,1)"><path fill="none" stroke="#000000" d="M 239 479 L 341.1962890625 479" stroke-miterlimit="10"/></g><g transform="translate(26,-41) scale(1,1)"><path fill="none" stroke="#000000" d="M 239 489 L 341.1962890625 489" stroke-miterlimit="10"/></g><g transform="translate(26,-41) scale(1,1)"><g><path fill="none" stroke="none"/><text fill="#000000" stroke="none" font-family="Arial" font-size="13px" font-style="normal" font-weight="bold" text-decoration="none" x="246.391357421875" y="473.5">RegexFileFilter</text></g></g><g transform="translate(26,-41) scale(1,1)"><rect fill="#C0C0C0" stroke="none" x="677" y="336" width="89.18994140625" height="44" opacity="0.2"/></g><g transform="translate(26,-41) scale(1,1)"><rect fill="#ffffff" stroke="none" x="670" y="329" width="89.18994140625" height="44"/></g><g transform="translate(26,-41) scale(1,1)"><path fill="none" stroke="#000000" d="M 670 329 L 759.18994140625 329 L 759.18994140625 373 L 670 373 L 670 329 Z Z" stroke-miterlimit="10"/></g><g transform="translate(26,-41) scale(1,1)"><path fill="none" stroke="#000000" d="M 670 354 L 759.18994140625 354" stroke-miterlimit="10"/></g><g transform="translate(26,-41) scale(1,1)"><path fill="none" stroke="#000000" d="M 670 364 L 759.18994140625 364" stroke-miterlimit="10"/></g><g transform="translate(26,-41) scale(1,1)"><g><path fill="none" stroke="none"/><text fill="#000000" stroke="none" font-family="Arial" font-size="13px" font-style="normal" font-weight="bold" text-decoration="none" x="677.03271484375" y="348.5">SizeFileFilter</text></g></g><g transform="translate(26,-41) scale(1,1)"><rect fill="#C0C0C0" stroke="none" x="238" y="523" width="118.07177734375" height="44" opacity="0.2"/></g><g transform="translate(26,-41) scale(1,1)"><rect fill="#ffffff" stroke="none" x="231" y="516" width="118.07177734375" height="44"/></g><g transform="translate(26,-41) scale(1,1)"><path fill="none" stroke="#000000" d="M 231 516 L 349.07177734375 516 L 349.07177734375 560 L 231 560 L 231 516 Z Z" stroke-miterlimit="10"/></g><g transform="translate(26,-41) scale(1,1)"><path fill="none" stroke="#000000" d="M 231 541 L 349.07177734375 541" stroke-miterlimit="10"/></g><g transform="translate(26,-41) scale(1,1)"><path fill="none" stroke="#000000" d="M 231 551 L 349.07177734375 551" stroke-miterlimit="10"/></g><g transform="translate(26,-41) scale(1,1)"><g><path fill="none" stroke="none"/><text fill="#000000" stroke="none" font-family="Arial" font-size="13px" font-style="normal" font-weight="bold" text-decoration="none" x="239.83544921875" y="535.5">WildcardFileFilter</text></g></g><g transform="translate(26,-41) scale(1,1)"><rect fill="#C0C0C0" stroke="none" x="250" y="590" width="95.67724609375" height="44" opacity="0.2"/></g><g transform="translate(26,-41) scale(1,1)"><rect fill="#5a3333" stroke="none" x="243" y="583" width="95.67724609375" height="44"/></g><g transform="translate(26,-41) scale(1,1)"><path fill="none" stroke="#000000" d="M 243 583 L 338.67724609375 583 L 338.67724609375 627 L 243 627 L 243 583 Z Z" stroke-miterlimit="10"/></g><g transform="translate(26,-41) scale(1,1)"><path fill="none" stroke="#000000" d="M 243 608 L 338.67724609375 608" stroke-miterlimit="10"/></g><g transform="translate(26,-41) scale(1,1)"><path fill="none" stroke="#000000" d="M 243 618 L 338.67724609375 618" stroke-miterlimit="10"/></g><g transform="translate(26,-41) scale(1,1)"><g><path fill="none" stroke="none"/><text fill="#000000" stroke="none" font-family="Arial" font-size="13px" font-style="normal" font-weight="bold" text-decoration="none" x="251.11181640625" y="602.5">WildcardFilter</text></g></g><g transform="translate(26,-41) scale(1,1)"><path fill="none" stroke="#000000" d="M 459 143 L 496 100" stroke-miterlimit="10"/></g><g transform="translate(26,-41) scale(1,1)"><path fill="#FFFFFF" stroke="none" d="M 489.1246754506719 120.89808393947649 L 496 100 L 476.3612345209022 109.91558825572123"/></g><g transform="translate(26,-41) scale(1,1)"><path fill="none" stroke="#000000" d="M 489.1246754506719 120.89808393947649 L 496 100 L 476.3612345209022 109.91558825572123 L 489.1246754506719 120.89808393947649" stroke-miterlimit="10"/></g><g transform="translate(26,-41) scale(1,1)"><path fill="none" stroke="#000000" d="M 416 143 L 380 100" stroke-miterlimit="10"/></g><g transform="translate(26,-41) scale(1,1)"><path fill="#FFFFFF" stroke="none" d="M 399.5029471156253 110.18013034322857 L 380 100 L 386.59222695952144 120.98910535764112"/></g><g transform="translate(26,-41) scale(1,1)"><path fill="none" stroke="#000000" d="M 399.5029471156253 110.18013034322857 L 380 100 L 386.59222695952144 120.98910535764112 L 399.5029471156253 110.18013034322857" stroke-miterlimit="10"/></g><g transform="translate(26,-41) scale(1,1)"><path fill="none" stroke="#000000" d="M 338 231 L 426.950439453125 165.48291641626602" stroke-miterlimit="10"/></g><g transform="translate(26,-41) scale(1,1)"><path fill="none" stroke="#000000" d="M 439 231 L 438.3157894736842 167" stroke-miterlimit="10"/></g><g transform="translate(26,-41) scale(1,1)"><path fill="none" stroke="#000000" d="M 544 231 L 449.950439453125 166.0541564941406" stroke-miterlimit="10"/></g><g transform="translate(26,-41) scale(1,1)"><path fill="none" stroke="#000000" d="M 40 329 L 40 304 L 440 304 L 440 276" stroke-miterlimit="10"/></g><g transform="translate(26,-41) scale(1,1)"><path fill="#FFFFFF" stroke="none" d="M 448.419035512032 296.3253497152483 L 440 276 L 431.580964487968 296.3253497152483"/></g><g transform="translate(26,-41) scale(1,1)"><path fill="none" stroke="#000000" d="M 448.419035512032 296.3253497152483 L 440 276 L 431.580964487968 296.3253497152483 L 448.419035512032 296.3253497152483" stroke-miterlimit="10"/></g><g transform="translate(26,-41) scale(1,1)"><path fill="none" stroke="#000000" d="M 168 329 L 168 304 L 440 304 L 440 276" stroke-miterlimit="10"/></g><g transform="translate(26,-41) scale(1,1)"><path fill="#FFFFFF" stroke="none" d="M 448.419035512032 296.3253497152483 L 440 276 L 431.580964487968 296.3253497152483"/></g><g transform="translate(26,-41) scale(1,1)"><path fill="none" stroke="#000000" d="M 448.419035512032 296.3253497152483 L 440 276 L 431.580964487968 296.3253497152483 L 448.419035512032 296.3253497152483" stroke-miterlimit="10"/></g><g transform="translate(26,-41) scale(1,1)"><path fill="none" stroke="#000000" d="M 288 329 L 288 304 L 440 304 L 440 276" stroke-miterlimit="10"/></g><g transform="translate(26,-41) scale(1,1)"><path fill="#FFFFFF" stroke="none" d="M 448.419035512032 296.3253497152483 L 440 276 L 431.580964487968 296.3253497152483"/></g><g transform="translate(26,-41) scale(1,1)"><path fill="none" stroke="#000000" d="M 448.419035512032 296.3253497152483 L 440 276 L 431.580964487968 296.3253497152483 L 448.419035512032 296.3253497152483" stroke-miterlimit="10"/></g><g transform="translate(26,-41) scale(1,1)"><path fill="none" stroke="#000000" d="M 440 329 L 440 276" stroke-miterlimit="10"/></g><g transform="translate(26,-41) scale(1,1)"><path fill="#FFFFFF" stroke="none" d="M 448.419035512032 296.3253497152483 L 440 276 L 431.580964487968 296.3253497152483"/></g><g transform="translate(26,-41) scale(1,1)"><path fill="none" stroke="#000000" d="M 448.419035512032 296.3253497152483 L 440 276 L 431.580964487968 296.3253497152483 L 448.419035512032 296.3253497152483" stroke-miterlimit="10"/></g><g transform="translate(26,-41) scale(1,1)"><path fill="none" stroke="#000000" d="M 584 329 L 584 304 L 440 304 L 440 276" stroke-miterlimit="10"/></g><g transform="translate(26,-41) scale(1,1)"><path fill="#FFFFFF" stroke="none" d="M 448.419035512032 296.3253497152483 L 440 276 L 431.580964487968 296.3253497152483"/></g><g transform="translate(26,-41) scale(1,1)"><path fill="none" stroke="#000000" d="M 448.419035512032 296.3253497152483 L 440 276 L 431.580964487968 296.3253497152483 L 448.419035512032 296.3253497152483" stroke-miterlimit="10"/></g><g transform="translate(26,-41) scale(1,1)"><path fill="none" stroke="#000000" d="M 714 329 L 714 304 L 440 304 L 440 276" stroke-miterlimit="10"/></g><g transform="translate(26,-41) scale(1,1)"><path fill="#FFFFFF" stroke="none" d="M 448.419035512032 296.3253497152483 L 440 276 L 431.580964487968 296.3253497152483"/></g><g transform="translate(26,-41) scale(1,1)"><path fill="none" stroke="#000000" d="M 448.419035512032 296.3253497152483 L 440 276 L 431.580964487968 296.3253497152483 L 448.419035512032 296.3253497152483" stroke-miterlimit="10"/></g><g transform="translate(26,-41) scale(1,1)"><path fill="none" stroke="#000000" d="M 848 329 L 848 304 L 440 304 L 440 276" stroke-miterlimit="10"/></g><g transform="translate(26,-41) scale(1,1)"><path fill="#FFFFFF" stroke="none" d="M 448.419035512032 296.3253497152483 L 440 276 L 431.580964487968 296.3253497152483"/></g><g transform="translate(26,-41) scale(1,1)"><path fill="none" stroke="#000000" d="M 448.419035512032 296.3253497152483 L 440 276 L 431.580964487968 296.3253497152483 L 448.419035512032 296.3253497152483" stroke-miterlimit="10"/></g><g transform="translate(26,-41) scale(1,1)"><path fill="none" stroke="#000000" d="M 206 414 L 224 414 L 224 304 L 440 304 L 440 276" stroke-miterlimit="10"/></g><g transform="translate(26,-41) scale(1,1)"><path fill="#FFFFFF" stroke="none" d="M 448.419035512032 296.3253497152483 L 440 276 L 431.580964487968 296.3253497152483"/></g><g transform="translate(26,-41) scale(1,1)"><path fill="none" stroke="#000000" d="M 448.419035512032 296.3253497152483 L 440 276 L 431.580964487968 296.3253497152483 L 448.419035512032 296.3253497152483" stroke-miterlimit="10"/></g><g transform="translate(26,-41) scale(1,1)"><path fill="none" stroke="#000000" d="M 210 476 L 224 476 L 224 304 L 440 304 L 440 276" stroke-miterlimit="10"/></g><g transform="translate(26,-41) scale(1,1)"><path fill="#FFFFFF" stroke="none" d="M 448.419035512032 296.3253497152483 L 440 276 L 431.580964487968 296.3253497152483"/></g><g transform="translate(26,-41) scale(1,1)"><path fill="none" stroke="#000000" d="M 448.419035512032 296.3253497152483 L 440 276 L 431.580964487968 296.3253497152483 L 448.419035512032 296.3253497152483" stroke-miterlimit="10"/></g><g transform="translate(26,-41) scale(1,1)"><path fill="none" stroke="#000000" d="M 340 408 L 360 408 L 360 304 L 440 304 L 440 276" stroke-miterlimit="10"/></g><g transform="translate(26,-41) scale(1,1)"><path fill="#FFFFFF" stroke="none" d="M 448.419035512032 296.3253497152483 L 440 276 L 431.580964487968 296.3253497152483"/></g><g transform="translate(26,-41) scale(1,1)"><path fill="none" stroke="#000000" d="M 448.419035512032 296.3253497152483 L 440 276 L 431.580964487968 296.3253497152483 L 448.419035512032 296.3253497152483" stroke-miterlimit="10"/></g><g transform="translate(26,-41) scale(1,1)"><path fill="none" stroke="#000000" d="M 341 472 L 360 472 L 360 304 L 440 304 L 440 276" stroke-miterlimit="10"/></g><g transform="translate(26,-41) scale(1,1)"><path fill="#FFFFFF" stroke="none" d="M 448.419035512032 296.3253497152483 L 440 276 L 431.580964487968 296.3253497152483"/></g><g transform="translate(26,-41) scale(1,1)"><path fill="none" stroke="#000000" d="M 448.419035512032 296.3253497152483 L 440 276 L 431.580964487968 296.3253497152483 L 448.419035512032 296.3253497152483" stroke-miterlimit="10"/></g><g transform="translate(26,-41) scale(1,1)"><path fill="none" stroke="#000000" d="M 349 538 L 360 538 L 360 304 L 440 304 L 440 276" stroke-miterlimit="10"/></g><g transform="translate(26,-41) scale(1,1)"><path fill="#FFFFFF" stroke="none" d="M 448.419035512032 296.3253497152483 L 440 276 L 431.580964487968 296.3253497152483"/></g><g transform="translate(26,-41) scale(1,1)"><path fill="none" stroke="#000000" d="M 448.419035512032 296.3253497152483 L 440 276 L 431.580964487968 296.3253497152483 L 448.419035512032 296.3253497152483" stroke-miterlimit="10"/></g><g transform="translate(26,-41) scale(1,1)"><path fill="none" stroke="#000000" d="M 339 605 L 360 605 L 360 304 L 440 304 L 440 276" stroke-miterlimit="10"/></g><g transform="translate(26,-41) scale(1,1)"><path fill="#FFFFFF" stroke="none" d="M 448.419035512032 296.3253497152483 L 440 276 L 431.580964487968 296.3253497152483"/></g><g transform="translate(26,-41) scale(1,1)"><path fill="none" stroke="#000000" d="M 448.419035512032 296.3253497152483 L 440 276 L 431.580964487968 296.3253497152483 L 448.419035512032 296.3253497152483" stroke-miterlimit="10"/></g><g transform="translate(26,-41) scale(1,1)"><path fill="none" stroke="#000000" d="M 439 391 L 440 277" stroke-miterlimit="10"/></g><g transform="translate(26,-41) scale(1,1)"><path fill="#FFFFFF" stroke="none" d="M 448.2404259397596 297.3984161231047 L 440 277 L 431.4030026957572 297.25071942798183"/></g><g transform="translate(26,-41) scale(1,1)"><path fill="none" stroke="#000000" d="M 448.2404259397596 297.3984161231047 L 440 277 L 431.4030026957572 297.25071942798183 L 448.2404259397596 297.3984161231047" stroke-miterlimit="10"/></g><g transform="translate(26,-41) scale(1,1)"><path fill="none" stroke="#000000" d="M 439 453 L 440 277" stroke-miterlimit="10"/></g><g transform="translate(26,-41) scale(1,1)"><path fill="#FFFFFF" stroke="none" d="M 448.3034165417115 297.37285629789875 L 440 277 L 431.4656173032775 297.277186984044"/></g><g transform="translate(26,-41) scale(1,1)"><path fill="none" stroke="#000000" d="M 448.3034165417115 297.37285629789875 L 440 277 L 431.4656173032775 297.277186984044 L 448.3034165417115 297.37285629789875" stroke-miterlimit="10"/></g><g transform="translate(26,-41) scale(1,1)"><path fill="none" stroke="#000000" d="M 439 515 L 440 277" stroke-miterlimit="10"/></g><g transform="translate(26,-41) scale(1,1)"><path fill="#FFFFFF" stroke="none" d="M 448.3335613224532 297.36054409108243 L 440 277 L 431.4956389270885 297.28979651799267"/></g><g transform="translate(26,-41) scale(1,1)"><path fill="none" stroke="#000000" d="M 448.3335613224532 297.36054409108243 L 440 277 L 431.4956389270885 297.28979651799267 L 448.3335613224532 297.36054409108243" stroke-miterlimit="10"/></g><g transform="translate(26,-41) scale(1,1)"><path fill="none" stroke="#000000" d="M 527 414 L 512 414 L 512 304 L 440 304 L 440 276" stroke-miterlimit="10"/></g><g transform="translate(26,-41) scale(1,1)"><path fill="#FFFFFF" stroke="none" d="M 448.419035512032 296.3253497152483 L 440 276 L 431.580964487968 296.3253497152483"/></g><g transform="translate(26,-41) scale(1,1)"><path fill="none" stroke="#000000" d="M 448.419035512032 296.3253497152483 L 440 276 L 431.580964487968 296.3253497152483 L 448.419035512032 296.3253497152483" stroke-miterlimit="10"/></g><g transform="translate(26,-41) scale(1,1)"><path fill="none" stroke="#000000" d="M 663 414 L 656 414 L 656 304 L 440 304 L 440 276" stroke-miterlimit="10"/></g><g transform="translate(26,-41) scale(1,1)"><path fill="#FFFFFF" stroke="none" d="M 448.419035512032 296.3253497152483 L 440 276 L 431.580964487968 296.3253497152483"/></g><g transform="translate(26,-41) scale(1,1)"><path fill="none" stroke="#000000" d="M 448.419035512032 296.3253497152483 L 440 276 L 431.580964487968 296.3253497152483 L 448.419035512032 296.3253497152483" stroke-miterlimit="10"/></g></g></svg>